<svg width="284" height="190" viewBox="0 0 284 190" fill="none" xmlns="http://www.w3.org/2000/svg">
<path d="M179.432 5H104.344C93.1084 5 84 14.2641 84 25.6919V102.064C84 113.492 93.1084 122.756 104.344 122.756H179.432C190.668 122.756 199.777 113.492 199.777 102.064V25.6919C199.777 14.2641 190.668 5 179.432 5Z" stroke="#EB5489" stroke-miterlimit="10" stroke-linecap="round"></path>
<path d="M84 5L199.777 122.756" stroke="#EB5489" stroke-miterlimit="10" stroke-linecap="round"></path>
<path d="M199.777 5L84 122.756" stroke="#EB5489" stroke-miterlimit="10" stroke-linecap="round"></path>
<path d="M84 63.8923H199.777" stroke="#EB5489" stroke-miterlimit="10" stroke-linecap="round"></path>
<path d="M141.902 5V122.756" stroke="#EB5489" stroke-miterlimit="10" stroke-linecap="round"></path>
<path d="M89.9746 5V122.756" stroke="#EB5489" stroke-miterlimit="10" stroke-linecap="round"></path>
<path d="M193.801 5V122.756" stroke="#EB5489" stroke-miterlimit="10" stroke-linecap="round"></path>
<path d="M115.953 5V122.756" stroke="#EB5489" stroke-miterlimit="10" stroke-linecap="round"></path>
<path d="M167.852 5V122.756" stroke="#EB5489" stroke-miterlimit="10" stroke-linecap="round"></path>
<path d="M199.777 37.4993H84" stroke="#EB5489" stroke-miterlimit="10" stroke-linecap="round"></path>
<path d="M199.777 90.2853H84" stroke="#EB5489" stroke-miterlimit="10" stroke-linecap="round"></path>
<path d="M199.777 11.0773H84" stroke="#EB5489" stroke-miterlimit="10" stroke-linecap="round"></path>
<path d="M199.777 116.678H84" stroke="#EB5489" stroke-miterlimit="10" stroke-linecap="round"></path>
<path d="M142.047 90.2965C156.378 90.2074 167.925 78.3189 167.838 63.7427C167.75 49.1665 156.061 37.4224 141.73 37.5114C127.399 37.6005 115.852 49.489 115.94 64.0652C116.027 78.6413 127.716 90.3855 142.047 90.2965Z" stroke="#EB5489" stroke-miterlimit="10" stroke-linecap="round"></path>
<path d="M142.01 116.717C170.689 116.65 193.885 92.9508 193.82 63.782C193.755 34.6132 170.453 11.0208 141.775 11.087C113.096 11.1532 89.9004 34.8528 89.9655 64.0216C90.0305 93.1905 113.332 116.783 142.01 116.717Z" stroke="#EB5489" stroke-miterlimit="10" stroke-linecap="round"></path>
<path d="M178.272 68.9348C181.013 48.5061 166.952 29.6857 146.867 26.8982C126.781 24.1107 108.277 38.4118 105.537 58.8405C102.796 79.2692 116.857 98.0896 136.942 100.877C157.027 103.665 175.531 89.3635 178.272 68.9348Z" stroke="#EB5489" stroke-miterlimit="10" stroke-linecap="round"></path>
<path d="M166.885 50.6958V82.269C166.885 92.3689 157.41 100.53 145.716 100.53H138.062C126.368 100.53 116.893 92.34 116.893 82.269V50.6958L117.746 45.7471L123.209 38.1359C123.209 38.1359 150.581 43.866 151.606 44.1843C152.63 44.5027 164.751 47.8886 164.751 47.8886L166.828 50.7247L166.885 50.6958Z" fill="white"></path>
<path d="M155.56 85.7128C153.142 79.867 147.963 75.8155 141.903 75.8155C135.842 75.8155 130.664 79.867 128.245 85.7128C123.294 82.4716 119.311 77.5518 116.921 71.5903V76.9152C116.921 93.2082 126.197 100.53 137.635 100.53H146.171C157.609 100.53 166.885 91.8481 166.885 76.9152V71.5903C164.466 77.5229 160.483 82.4716 155.56 85.7128Z" fill="#E6E7E8"></path>
<path d="M123.921 34.3449C123.921 34.3449 120.563 32.0297 117.319 33.1294C117.319 33.1294 121.957 29.975 125.087 31.1326C125.087 31.1326 121.018 28.3833 117.319 28.6148C117.319 28.6148 123.835 27.2547 128.359 29.4541C128.359 29.4541 127.847 26.7916 130.721 25.5472C130.721 25.5472 128.416 30.0329 132.4 28.9621L129.156 32.2612L123.892 34.3449H123.921Z" fill="#656565"></path>
<path d="M139.911 86.6099C137.806 86.6099 136.241 86.2337 136.099 86.2048C135.387 86.0312 134.961 85.3077 135.131 84.5842C135.302 83.8607 136.013 83.4266 136.725 83.6002C136.782 83.6002 143.354 85.1919 147.224 81.2561C147.736 80.7352 148.59 80.7352 149.102 81.2561C149.614 81.777 149.614 82.6452 149.102 83.1661C146.313 86.0022 142.643 86.6389 139.911 86.6389V86.6099Z" fill="#656565"></path>
<path d="M132.912 73.5292C134.845 73.5292 136.412 71.9355 136.412 69.9696C136.412 68.0037 134.845 66.41 132.912 66.41C130.979 66.41 129.412 68.0037 129.412 69.9696C129.412 71.9355 130.979 73.5292 132.912 73.5292Z" fill="black"></path>
<path d="M148.419 71.9954C150.352 71.9954 151.918 70.4017 151.918 68.4358C151.918 66.4699 150.352 64.8762 148.419 64.8762C146.486 64.8762 144.919 66.4699 144.919 68.4358C144.919 70.4017 146.486 71.9954 148.419 71.9954Z" fill="black"></path>
<path d="M145.715 101.89H138.061C125.655 101.89 115.583 93.0924 115.583 82.269V50.6958H118.229V82.269C118.229 91.5876 127.135 99.1987 138.061 99.1987H145.715C156.67 99.1987 165.547 91.6165 165.547 82.269V50.6958H168.193V82.269C168.193 93.0924 158.092 101.89 145.715 101.89Z" fill="#656565"></path>
<path d="M166.885 73.3556C171.067 67.2782 171.864 62.7347 171.864 56.5127C171.864 39.6698 158.434 26.0392 141.903 26.0392C125.371 26.0392 111.941 39.6987 111.941 56.5127C111.941 62.7347 113.762 68.5227 116.921 73.3556C116.921 73.3556 123.124 52.8663 122.242 43.2294C122.242 43.2294 132.826 52.4032 154.877 51.4193C169.986 50.7537 166.885 73.3556 166.885 73.3556Z" fill="black"></path>
<g clip-path="url(#clip0_1056_6500)">
<g clip-path="url(#clip1_1056_6500)">
<path d="M43.7381 170.153L35.9392 171.823C31.0262 172.832 26.8004 173.91 23.2961 174.745C16.4248 176.519 12.4395 177.772 12.4395 177.772C12.4395 177.772 16.4248 176.833 23.4678 175.406C26.9035 174.745 31.2324 173.875 36.1797 173.075C41.127 172.275 46.4866 171.37 52.7051 170.501C56.4843 169.874 62.8059 169.074 66.963 168.587L67.4096 166.187C62.9776 166.848 56.4156 167.787 52.4302 168.552L43.7381 170.153Z" fill="black"></path>
<path d="M142.272 160.063C134.061 160.272 125.85 160.446 117.776 161.038C113.722 161.281 109.737 161.455 105.786 161.768L94.1047 162.812C89.7758 163.125 83.2481 163.925 79.1253 164.447L78.6787 167.335C83.042 166.882 89.8102 166.187 94.3796 165.839L105.992 164.934C109.943 164.656 113.928 164.517 117.948 164.308C125.987 163.786 134.13 163.716 142.307 163.577C148.869 163.299 157.389 163.438 163.951 163.438L161.855 159.959C155.946 159.89 148.113 159.855 142.238 160.063H142.272Z" fill="black"></path>
<path d="M261.592 171.231L248.88 168.657C244.001 167.648 238.573 166.917 232.32 166.013L229.709 165.665V167.717L231.942 167.961C238.023 168.761 243.658 169.179 248.605 169.944L261.351 171.892L272.517 173.562L261.592 171.231Z" fill="black"></path>
<path d="M89.1567 130.248C92.5923 132.057 91.7678 138.946 91.7678 138.946C91.5273 142.668 90.6684 146.356 89.2254 149.8C87.7137 150.253 86.4082 150.635 85.4119 151.018C81.186 152.549 80.1553 155.506 81.5983 157.35C83.0413 159.194 87.1297 158.741 87.1297 158.741C87.1297 158.741 92.4893 158.185 96.3028 149.661C98.0207 149.104 99.7385 148.443 101.834 147.713V148.93C101.834 149.348 102.899 156.341 109.358 156.341C112.519 156.202 115.542 154.984 117.913 152.862C119.425 151.609 120.799 150.183 122.036 148.652L122.62 147.922C122.208 150.079 122.551 152.34 123.616 154.253C124.509 155.367 125.952 155.889 127.361 155.576C127.361 155.576 128.117 155.576 129.251 154.114C129.251 154.114 128.22 153.418 128.598 151.088C129.044 148.304 129.663 145.521 130.419 142.807C131.552 139.328 132.411 135.78 133.03 132.161C137.015 126.525 138.87 125.829 139.489 126.595C139.97 127.152 140.657 127.499 141.378 127.534C141.378 127.534 143.062 127.743 144.161 125.238C144.848 123.881 144.848 122.281 144.161 120.924C141.172 120.889 138.321 122.142 136.328 124.403C135.091 125.656 133.957 126.943 132.892 128.334C132.824 127.882 132.652 127.43 132.411 127.047C131.827 126.038 130.865 125.308 129.766 125.064C128.014 124.681 126.193 125.377 125.128 126.838C125.128 126.838 126.124 126.838 125.815 129.97C125.815 129.97 123.822 138.876 123.101 143.642C121.349 146.112 119.39 148.443 117.26 150.6C117.26 150.6 111.901 156.097 109.942 150.6C109.427 148.478 109.358 146.286 109.771 144.164C110.973 143.573 112.107 142.877 113.206 142.077C116.607 139.572 119.253 136.162 120.868 132.231C120.868 132.231 123.101 126.664 119.459 124.299C115.817 121.933 108.877 128.021 108.877 128.021C104.514 132.753 102.075 138.946 102.006 145.417L100.288 146.147C99.3262 146.565 98.3642 146.913 97.3679 147.295C97.6427 146.565 97.8832 145.834 98.0894 145.069C101.8 132.301 96.028 128.056 96.028 128.056C96.028 128.056 90.153 122.35 82.629 131.953C82.5259 131.57 82.3885 131.222 82.1824 130.874C81.6327 129.865 80.6707 129.135 79.5713 128.856C77.8191 128.474 75.9639 129.169 74.8988 130.631C74.8988 130.631 75.8952 130.631 75.586 133.797L72.3908 150.392C66.7564 159.542 65.1073 155.193 65.1073 155.193C65.176 152.757 65.6913 150.322 66.5846 148.061C67.5466 145.208 68.3711 142.285 68.9895 139.328C70.5356 132.822 68.9895 131.083 68.9895 131.083C68.3024 129.378 66.6189 128.334 64.7981 128.474C61.6716 128.682 61.3624 130.178 61.3624 130.178C63.733 134.805 58.1673 148.478 58.1673 148.478C58.1673 148.478 55.0752 156.828 52.9451 158.324C50.815 159.82 50.815 157.419 50.815 157.419C51.1929 154.601 51.8457 151.818 52.8421 149.139C53.9071 146.043 54.766 142.877 55.3844 139.676C56.4495 133.727 53.2543 131.779 53.2543 131.779C52.2236 131.292 51.0899 131.152 49.9905 131.326C48.8567 131.326 47.7917 132.022 47.242 133.031C46.1769 135.084 44.9057 136.962 43.3941 138.702C42.81 139.433 42.1572 140.128 41.4701 140.755C41.4014 140.755 41.367 140.755 41.2983 140.755C40.4738 141.555 39.6149 142.251 38.6872 142.912C37.3817 141.52 35.87 140.407 34.1522 139.607C29.308 137.589 22.1962 136.893 19.6538 134.701C17.6955 133.066 17.3176 130.178 18.7606 128.056C24.5668 116.158 40.5081 111.322 40.5081 111.322C40.5081 111.322 55.2126 106.381 55.2126 111.043C55.2126 115.705 46.761 119.254 46.761 119.254C46.761 119.254 47.3107 122.733 55.4188 117.201C63.5269 111.67 59.0949 109.339 59.0949 109.339C59.0949 109.339 50.0592 102.381 30.7853 110.556C11.5114 118.732 10.1715 128.613 10.1715 128.613C9.48435 131.883 10.7212 135.258 13.3666 137.276C15.428 138.772 17.7642 139.85 20.2379 140.407C23.6735 141.277 30.5448 141.59 33.9804 145.451C32.6405 145.973 31.2319 146.391 29.7889 146.6H29.4797L27.4871 146.947C17.6268 149.07 14.8783 153.906 14.8783 153.906C9.99969 164.656 21.5434 166.082 21.5434 166.082C21.5434 166.082 33.0184 168.9 39.7866 159.994C42.6726 156.898 43.6689 152.444 42.3634 148.374C41.745 146.878 40.886 145.486 39.8554 144.234C40.8517 143.538 41.7793 142.773 42.6726 141.938C43.0505 141.59 43.4284 141.207 43.7376 140.859L44.0125 140.581L44.7683 139.641V139.467C44.7683 139.224 45.1462 138.98 45.2837 138.737C46.0051 137.519 46.8297 136.371 47.6886 135.258C47.6199 136.441 47.4481 137.589 47.1733 138.737C46.1769 142.738 45.3867 146.808 44.8714 150.914C44.6309 152.723 44.6309 154.601 44.8714 156.41C44.8714 156.41 45.799 163.369 51.0212 161.664C56.2433 159.959 58.8201 151.227 58.8201 151.227C58.8201 151.227 58.8201 157.559 62.5993 158.881C66.3785 160.203 68.7834 157.663 71.0509 155.019V155.68C71.0509 155.68 68.6803 166.987 68.5429 170.083C68.5429 170.083 67.3404 176.554 69.2644 178.537C70.1577 179.685 71.6006 180.207 73.0092 179.894C73.0092 179.894 73.7651 179.894 74.8988 178.433C74.8988 178.433 73.8681 177.737 74.2461 175.371C74.624 173.006 75.7577 166.048 76.7884 162.394C77.8191 158.741 80.4302 147.017 80.4302 147.017C80.4302 147.017 81.7701 140.859 82.3542 136.893C85.3088 132.857 87.7825 129.448 89.1567 130.248ZM87.0266 154.601C87.0266 154.601 85.2401 157.28 84.0033 155.61C82.7664 153.94 86.3051 153.001 88.1604 152.131C87.9542 153.001 87.5763 153.766 87.164 154.601H87.0266ZM111.385 135.78C112.313 132.996 113.618 130.317 115.302 127.917C117.329 125.69 118.257 126.978 118.257 126.978C118.875 128.265 118.978 129.761 118.531 131.152C118.222 132.474 117.707 133.727 116.951 134.875C115.92 136.684 114.58 138.25 112.966 139.502C112.004 140.268 110.973 140.963 109.908 141.624C110.32 139.641 110.836 137.658 111.523 135.745H111.385V135.78ZM29.8577 161.56C29.8577 161.56 21.9213 167.265 20.5814 161.246C19.2415 155.228 26.6282 152.062 26.6282 152.062C26.6282 152.062 27.5901 151.679 29.1018 150.983L31.2319 149.939L31.5755 149.765L32.4 149.348L33.2246 148.896L33.8086 148.583L34.9768 147.922H35.1829C35.4234 148.478 35.6295 149.07 35.767 149.696C37.2443 156.793 29.8577 161.56 29.8577 161.56Z" fill="black"></path>
<path d="M212.6 163.438C205.728 162.777 198.17 161.699 190.474 161.42C189.34 161.386 188.172 161.281 187.039 161.246C187.21 161.699 187.313 162.708 186.18 164.343L190.302 164.517C194.15 164.517 197.895 164.969 201.571 165.247L212.359 166.047C214.386 166.082 218.097 166.465 220.055 166.639V164.238L212.6 163.438Z" fill="black"></path>
<path d="M170.799 140.685C169.975 145.173 170.078 146.843 170.421 149.139C170.731 151.053 172.105 152.792 173.994 152.966C173.994 152.966 175.197 153.349 176.915 151.679C176.915 151.679 175.747 150.496 176.605 146.843C177.464 143.19 178.907 133.901 183.099 127.604C183.099 127.604 185.298 124.368 187.359 126.664C189.42 128.961 190.795 127.708 190.795 127.708C190.795 127.708 194.23 124.855 192.031 121.933C188.802 121.167 185.366 121.933 182.79 124.055C181.725 125.273 180.831 126.63 180.213 128.126C180.213 128.126 180.007 123.777 176.056 123.916C176.056 123.916 173.342 123.916 172.62 125.655C172.62 125.655 173.685 125.655 172.929 129.97C172.173 134.284 170.765 140.685 170.765 140.685H170.799Z" fill="black"></path>
<path d="M230.018 118.106C234.863 117.688 235.481 115.636 235.481 115.636C235.481 115.636 234.45 109.373 230.018 109.373C227.545 109.373 225.415 111.043 224.728 113.444V114.696C224.728 114.696 225.002 118.558 230.018 118.106Z" fill="black"></path>
<path d="M238.092 136.684C237.233 138.772 236.649 140.963 236.34 143.19C234.931 154.253 238.985 157.767 238.985 157.767C240.978 160.029 244.173 160.829 246.956 159.716C250.048 158.15 252.487 155.541 253.827 152.305C254.961 160.62 258.843 160.446 258.843 160.446C263 160.585 266.78 158.011 268.188 154.045C261.729 158.533 260.836 156.167 260.836 156.167C260.836 156.167 259.496 156.167 261.626 143.781C263.756 131.396 261.386 128.821 261.386 128.821C260.63 127.36 259.118 126.49 257.503 126.525C255.82 126.56 254.24 127.395 253.243 128.787C255.03 129.9 254.274 134.84 254.171 136.267C254.068 137.693 253.587 146.008 253.587 146.008C252.9 148.722 251.8 151.331 250.392 153.732C248.536 157.454 246.235 156.028 246.235 156.028C246.235 156.028 241.425 152.27 245.066 140.094C248.708 127.917 254.617 125.308 254.617 125.308C253.999 125.099 253.381 124.994 252.728 124.994C251.972 124.577 249.67 123.846 245.857 126.873L245.479 127.151C245.032 127.499 244.585 127.882 244.173 128.265C240.016 131.57 236.134 135.292 232.664 139.328L230.053 142.425C230.053 141.798 230.053 141.172 230.293 140.546L230.808 137.067C231.221 134.388 231.564 132.266 231.805 130.7C232.561 125.029 234.141 124.994 234.141 124.994C233.213 122.872 231.221 121.411 228.919 121.202C226.377 120.82 224.281 123.881 224.281 123.881C221.841 128.126 219.746 132.614 217.994 137.206C215.073 145.138 213.802 147.295 211.122 149.939C210.195 150.913 206.45 154.114 209.817 145.034C211.569 140.824 212.806 136.406 213.562 131.883C214.421 126.421 213.081 121.828 206.141 121.968C196.59 121.968 188.447 129.065 187.039 138.632C187.039 138.632 183.775 154.045 194.15 154.88C197.792 155.158 200.747 152.131 203.049 147.921C203.049 147.921 203.461 153.662 206.931 154.393C210.401 155.123 213.321 150.913 213.321 150.913C215.039 148.339 216.654 145.695 218.097 142.946C219.196 140.476 222.322 133.449 223.903 128.682C222.941 134.666 222.391 140.72 222.322 146.808C218.646 151.714 213.871 158.08 212.016 161.316L211.706 161.768L214.214 162.116C215.863 159.472 219.952 154.253 222.322 150.948V154.706C222.254 161.873 221.807 169.005 220.983 176.137C220.57 178.572 218.234 183.478 213.733 182.573C211.569 182.399 209.782 180.764 209.404 178.607C208.855 174.71 209.645 170.744 211.638 167.369L208.924 167.091C208.374 168.03 207.927 169.005 207.515 170.014C206.278 173.075 206.003 176.485 206.725 179.72C208.271 183.93 212.256 186.713 216.688 186.678C221.945 186.852 226.514 183.164 227.545 177.946C228.232 173.667 228.507 169.318 228.404 164.969C228.678 156.724 229.091 151.053 229.606 146.147L232.561 142.946C234.175 140.929 236.099 138.737 238.092 136.684ZM206.622 127.986C206.244 130.944 205.557 133.866 204.629 136.719C203.804 141.207 202.121 145.486 199.682 149.313C199.682 149.313 196.59 154.149 194.528 148.896C193.738 145.938 193.738 142.772 194.528 139.815C195.387 134.84 197.483 130.178 200.575 126.212C204.526 121.655 207 125.864 206.622 127.986Z" fill="black"></path>
<path d="M179.741 162.048C175.415 160.033 171.742 157.184 168.995 153.224C164.291 147.354 159.45 138.982 157.013 135.682C160.24 133.285 170.368 123.801 173.321 121.057C177.75 116.645 176.754 113.866 176.754 113.866C176.754 113.866 176.754 112.72 175.003 111.226C173.973 110.323 172.634 109.941 171.295 110.115C171.433 110.914 171.295 111.713 170.952 112.442C169.956 114.665 168.652 116.715 167.107 118.556C164.154 122.69 152.859 134.327 151.451 136.029C152 133.528 152.721 130.471 153.648 126.65C155.536 119.459 159.244 111.226 151.108 110.914C151.108 110.914 147.674 110.914 146.988 113.033C146.988 113.033 148.018 113.415 147.434 117.166C146.85 120.918 147.983 116.333 145.752 127.518C143.52 138.704 142.696 147.631 142.696 147.631C142.696 147.631 141.803 155.343 147.125 155.552C148.361 155.621 149.528 154.822 149.94 153.641C149.94 153.641 149.082 153.19 149.322 150.411C149.597 148.083 150.249 143.011 150.764 140.719L154.197 138.287C155.948 139.85 157.837 144.262 162.437 153.085C168.48 164.618 172.978 167.328 172.978 167.328C172.978 167.328 178.505 171.462 182.247 167.745C185.99 164.028 184.479 162.534 184.479 162.534C183.209 163.055 180.874 162.638 179.741 162.048Z" fill="black"></path>
</g>
</g>
<defs>
<clipPath id="clip0_1056_6500">
<rect width="264" height="85" fill="white" transform="translate(10 104.5)"></rect>
</clipPath>
<clipPath id="clip1_1056_6500">
<rect width="262.517" height="85" fill="white" transform="translate(10 104.5)"></rect>
</clipPath>
</defs>
</svg>