<svg width="200" height="200" viewBox="0 0 200 200" fill="none" xmlns="http://www.w3.org/2000/svg">
<path d="M99.3625 46.9702L152.418 99.7382L99.3625 152.498L46.3145 99.7382L99.3625 46.9702Z" fill="#F7679B"></path>
<path d="M87.4022 81.2822L106.17 99.9942L87.4022 118.706L68.6262 99.9942L87.4022 81.2822Z" fill="white"></path>
<path d="M108.642 99.498C108.018 98.722 106.962 98.29 105.97 98.586C104.634 98.986 103.69 100.098 102.698 101.034C101.898 101.794 101.098 102.562 100.306 103.33C98.6822 104.922 97.0982 106.538 95.5542 108.202C94.0502 109.826 92.5782 111.482 91.1302 113.162C90.3702 114.042 89.6022 114.922 88.8742 115.834C88.1462 116.746 87.3222 117.746 86.8422 118.81C86.2422 120.146 87.5542 121.93 89.0262 120.994C90.8822 119.818 92.3702 117.978 93.9062 116.426C95.5062 114.818 97.1302 113.234 98.7862 111.682C100.402 110.17 102.026 108.666 103.666 107.186C104.49 106.442 105.314 105.714 106.154 104.986C107.05 104.21 108.346 103.418 108.834 102.322C109.258 101.37 109.322 100.362 108.634 99.498H108.642Z" fill="#212527"></path>
<path d="M89.0259 118.73C85.8819 115.194 82.4179 111.97 79.0499 108.658C77.4099 107.05 75.7699 105.434 74.1299 103.826C73.2579 102.97 72.3859 102.138 71.4739 101.33C70.5699 100.53 69.7859 99.6901 68.6419 99.2901C67.8819 99.0261 66.9139 99.8261 67.2099 100.666C67.6019 101.786 68.2899 102.506 69.0579 103.394C69.8579 104.314 70.6739 105.202 71.5139 106.074C73.1539 107.778 74.7939 109.474 76.4259 111.178C79.7059 114.578 82.9059 118.082 86.4019 121.25C88.1059 122.802 90.6099 120.514 89.0339 118.738L89.0259 118.73Z" fill="#212527"></path>
<path d="M88.4982 79.8502C87.1542 80.1622 86.1302 81.1062 85.1302 82.0342C84.2662 82.8262 83.4262 83.6502 82.5782 84.4582C80.8342 86.1142 79.0902 87.7702 77.3462 89.4262C75.6422 91.0422 73.9542 92.6662 72.2902 94.3222C71.4102 95.2022 70.4982 96.0422 69.7062 97.0102C68.9542 97.9222 67.9622 98.7302 67.3542 99.7462C66.8022 100.666 67.7462 101.642 68.6662 101.234C69.7302 100.762 70.6742 99.8662 71.6582 99.2262C72.6422 98.5862 73.5462 97.8102 74.4742 97.0822C76.3622 95.5862 78.2182 94.0662 80.0742 92.5222C81.8742 91.0262 83.6822 89.5302 85.4822 88.0262C87.3382 86.4822 89.9782 84.8982 90.8662 82.5382C91.4262 81.0422 89.9622 79.5222 88.5062 79.8582L88.4982 79.8502Z" fill="#212527"></path>
<path d="M87.2023 84.362C89.8663 87.658 92.8583 90.786 96.0503 93.57C99.2583 96.37 102.57 99.386 106.458 101.194C107.826 101.834 108.954 100.346 108.042 99.162C105.482 95.842 102.266 93.074 99.4343 89.986C96.5943 86.882 93.8023 83.746 91.0343 80.57C90.0743 79.474 88.2263 79.562 87.2343 80.538C86.1143 81.642 86.2903 83.218 87.2023 84.354V84.362Z" fill="#212527"></path>
<path d="M122.738 85.8824C122.218 84.2504 121.074 82.9784 119.426 82.4344C117.93 81.9384 116.162 81.9624 114.602 81.8664C112.674 81.7544 110.73 81.8104 108.81 81.9784C106.874 82.1464 103.722 82.4904 102.05 83.5144C101.074 84.1144 101.346 85.4744 102.354 85.8344C104.274 86.5224 107.554 86.4424 109.586 86.4904C111.514 86.5384 113.282 86.5784 115.21 86.6024C116.01 86.6104 117.146 86.6344 117.874 86.6344C117.874 86.6344 117.874 87.0024 117.89 87.0104C117.898 87.0504 117.906 87.0984 117.914 87.1224C118.002 87.9544 117.842 88.8264 117.818 89.6584C117.786 90.6424 117.81 91.6344 117.802 92.6184C117.778 96.6344 117.754 100.65 117.778 104.666C117.794 107.698 117.778 110.714 118.114 113.706C112.562 113.082 106.97 113.074 101.546 113.746C100.362 113.89 99.6502 115.354 99.8102 116.41C99.9782 117.506 100.978 118.634 102.194 118.514C105.274 118.21 108.33 118.162 111.418 118.114C114.498 118.066 117.554 118.362 120.626 118.482C121.754 118.522 122.706 117.498 122.706 116.402C122.714 109.522 122.93 102.65 123.05 95.7784C123.082 94.0664 123.106 92.3544 123.138 90.6424C123.162 89.0984 123.218 87.3704 122.746 85.8824H122.738Z" fill="#212527"></path>
<path d="M151.746 97.4344C148.026 100.746 144.25 104.002 140.578 107.362C136.914 110.714 133.466 114.33 129.946 117.834C122.898 124.858 115.97 131.986 109.13 139.218C107.202 141.258 105.346 143.37 103.482 145.474C101.602 147.594 99.5782 149.634 98.2902 152.178C97.6422 153.466 98.9782 154.994 100.314 154.218C102.554 152.906 104.298 151.05 106.13 149.226C107.85 147.522 109.602 145.842 111.306 144.122C114.802 140.586 118.234 136.986 121.722 133.442C128.698 126.354 135.61 119.194 142.642 112.162C146.602 108.194 150.29 103.93 154.146 99.8584C155.666 98.2584 153.378 96.0024 151.746 97.4504V97.4344Z" fill="#D7487F"></path>
<path d="M153.746 97.1701C153.21 96.0341 152.242 95.0741 151.354 94.1861C150.402 93.2421 149.434 92.3061 148.474 91.3621C146.65 89.5781 144.842 87.7701 143.01 86.0021C139.426 82.5381 135.714 79.2421 132.434 75.4821C130.906 73.7301 129.354 72.0421 127.578 70.5381C125.802 69.0421 123.922 67.6741 122.098 66.2421C118.522 63.4181 115.394 60.1141 112.354 56.7461C108.914 52.9381 105.498 48.9541 101.258 45.9701C99.4583 44.7061 97.6423 47.3781 98.9943 48.8581C102.058 52.2021 105.098 55.5461 108.106 58.9461C111.106 62.3301 114.13 65.7141 117.602 68.6421C121.17 71.6501 125.018 74.1701 128.162 77.6501C131.474 81.3221 134.986 84.7061 138.618 88.0741C140.738 90.0421 142.914 91.9461 145.074 93.8741C147.186 95.7621 149.37 98.2821 152.05 99.3541C153.402 99.8901 154.234 98.2021 153.754 97.1701H153.746Z" fill="#D7487F"></path>
<path d="M99.0823 45.906C96.9943 47.306 95.1623 49.266 93.3463 51.002C91.5383 52.73 89.7383 54.474 87.9383 56.218C84.4343 59.602 80.9303 63.002 77.4423 66.402C70.3223 73.346 63.2263 80.322 56.1703 87.33C54.2103 89.282 52.3303 91.322 50.4263 93.33C48.4983 95.362 46.3383 97.394 44.9383 99.842C44.1863 101.154 45.6903 102.666 47.0023 101.906C49.1623 100.658 50.9863 98.794 52.7943 97.09C54.6183 95.37 56.4503 93.666 58.2663 91.946C61.8023 88.594 65.2023 85.09 68.6743 81.666C75.7623 74.682 82.8823 67.738 90.0343 60.818C92.0263 58.898 94.0183 56.97 96.0103 55.05C98.0583 53.082 100.338 51.122 102.018 48.834C103.29 47.098 100.81 44.746 99.0823 45.898V45.906Z" fill="#D7487F"></path>
<path d="M100.946 151.338C99.298 149.546 97.466 147.906 95.73 146.202C94.034 144.538 92.346 142.866 90.658 141.194C87.242 137.794 83.738 134.482 80.306 131.114C73.426 124.362 66.498 117.65 59.514 111.01C55.618 107.306 51.842 103.402 47.57 100.122C46.538 99.33 44.97 100.898 45.754 101.93C48.714 105.802 52.202 109.242 55.562 112.77C58.842 116.21 62.146 119.626 65.506 123.002C72.346 129.874 79.234 136.73 86.41 143.25C88.41 145.066 90.442 146.85 92.466 148.642C94.554 150.482 96.602 152.402 98.818 154.09C99.506 154.618 100.618 154.266 101.09 153.642C101.626 152.93 101.562 152.002 100.954 151.338H100.946Z" fill="#D7487F"></path>
<path d="M60.2562 71.7327C58.8159 70.7904 59.6611 71.2029 58.2207 70.2606C57.5122 69.7953 56.8153 69.3183 56.1183 68.853C55.7699 68.6203 55.4214 68.3644 55.0613 68.1666C54.5735 67.8874 54.1205 67.806 53.5629 67.7595C52.8312 67.7013 52.3782 68.6203 52.7382 69.202C53.0286 69.679 53.3306 70.0047 53.7952 70.3304C54.1089 70.5631 54.4689 70.7376 54.8174 70.9354C55.5724 71.3658 56.339 71.7962 57.094 72.2267C58.5808 73.0875 57.7821 72.5936 59.2689 73.4544C60.384 74.1059 61.3364 72.4307 60.2794 71.7327H60.2562Z" fill="#D7487F"></path>
<path d="M68.2109 53.667C70.4963 57.478 70.0719 56.9578 72.8508 60.5746C73.4126 61.3022 74.684 60.7578 74.346 59.9847C72.6297 56.0868 72.7447 56.8021 70.5342 53.0629C70.223 52.5471 69.576 52.1941 68.9165 52.3698C68.3375 52.5244 67.9032 53.1405 68.2109 53.667Z" fill="#D7487F"></path>
<path d="M64.4731 64.653C63.5644 64.8611 62.7553 64.1538 61.7526 63.1172C60.143 61.5776 58.4935 60.2697 57.0843 58.5406C56.5687 57.906 57.1819 56.7595 58.0354 57.1207C58.6344 57.3756 59.1993 57.6368 59.7188 58.0355C60.1824 58.3857 60.6089 58.7897 61.0333 59.1824C61.8934 59.9656 63.4318 61.6945 63.4318 61.6945C63.4318 61.6945 64.1135 62.6856 64.6508 63.4006C64.8607 63.6799 65.0221 64.5273 64.4731 64.653Z" fill="#D7487F"></path>
<path d="M147.8 123.836C146.515 124.046 145.229 124.265 143.954 124.504C143.635 123.664 143.326 122.815 143.036 121.966C142.891 121.546 142.398 121.508 142.118 121.756C141.2 122.539 140.977 123.865 140.755 125.095C138.803 125.477 136.851 125.868 134.909 126.298C134.232 126.441 134.116 127.586 134.783 127.824C136.397 128.406 138.078 128.721 139.731 129.15C139.402 129.971 139.064 130.791 138.764 131.631C138.764 131.631 138.774 131.631 138.784 131.631C138.745 131.774 138.764 131.917 138.822 132.032C138.494 132.394 138.194 132.776 137.943 133.205C137.576 133.825 138.156 134.684 138.784 134.312C139.76 133.739 140.514 132.842 141.335 132.012C141.905 131.43 142.485 130.849 143.055 130.267C143.538 130.495 144.012 130.753 144.466 131.049C144.485 131.077 144.505 131.097 144.524 131.125C144.553 131.182 144.582 131.24 144.611 131.297C144.717 131.507 144.93 131.621 145.142 131.545C145.693 132.003 146.196 132.528 146.592 133.167C146.911 133.663 147.655 133.11 147.404 132.566C146.679 131.039 145.993 129.494 145.336 127.929C145.529 127.729 145.722 127.538 145.915 127.338C146.563 126.679 147.249 125.926 148.099 125.63C149.095 125.286 148.872 123.645 147.809 123.827L147.8 123.836Z" fill="#D7487F"></path>
</svg>