<svg width="230" height="230" viewBox="0 0 230 230" fill="none" xmlns="http://www.w3.org/2000/svg">
<path d="M113.953 27.8799L201.116 114.57L113.953 201.247L26.8022 114.57L113.953 27.8799Z" fill="#F7679B"></path>
<path d="M94.3036 84.2495L125.137 114.991L94.3036 145.732L63.4573 114.991L94.3036 84.2495Z" fill="white"></path>
<path d="M129.198 114.175C128.173 112.9 126.438 112.191 124.808 112.677C122.613 113.334 121.063 115.161 119.433 116.699C118.119 117.947 116.804 119.209 115.503 120.471C112.835 123.086 110.233 125.741 107.696 128.475C105.225 131.143 102.807 133.863 100.428 136.623C99.1797 138.069 97.918 139.515 96.722 141.013C95.526 142.511 94.1723 144.154 93.3837 145.902C92.398 148.097 94.5534 151.028 96.9717 149.49C100.021 147.558 102.465 144.535 104.989 141.986C107.617 139.344 110.285 136.742 113.006 134.192C115.661 131.708 118.329 129.237 121.023 126.806C122.377 125.583 123.731 124.387 125.111 123.191C126.583 121.916 128.712 120.615 129.513 118.815C130.21 117.251 130.315 115.595 129.185 114.175H129.198Z" fill="#212527"></path>
<path d="M96.9711 145.771C91.8059 139.962 86.1151 134.665 80.5819 129.224C77.8877 126.582 75.1934 123.927 72.4991 121.286C71.0665 119.879 69.6339 118.513 68.1357 117.185C66.6505 115.871 65.3625 114.491 63.4831 113.834C62.2345 113.4 60.6442 114.714 61.1305 116.094C61.7745 117.934 62.9048 119.117 64.1665 120.576C65.4808 122.087 66.8214 123.546 68.2014 124.979C70.8957 127.778 73.59 130.565 76.2711 133.364C81.6597 138.95 86.9168 144.706 92.6602 149.911C95.4597 152.461 99.5734 148.702 96.9842 145.784L96.9711 145.771Z" fill="#212527"></path>
<path d="M96.1041 81.8968C93.8961 82.4094 92.2138 83.9602 90.571 85.4848C89.1515 86.7859 87.7715 88.1396 86.3784 89.4671C83.5132 92.1876 80.6481 94.9082 77.783 97.6288C74.9835 100.284 72.2104 102.952 69.4767 105.672C68.031 107.118 66.5327 108.498 65.2315 110.088C63.9961 111.587 62.3664 112.914 61.3675 114.583C60.4607 116.095 62.0115 117.698 63.523 117.028C65.271 116.252 66.8218 114.78 68.4384 113.729C70.055 112.677 71.5401 111.403 73.0647 110.207C76.1664 107.749 79.2155 105.252 82.2647 102.715C85.2218 100.257 88.1921 97.7996 91.1492 95.3288C94.1984 92.7922 98.5355 90.1899 99.9944 86.3128C100.914 83.8551 98.5092 81.3579 96.1172 81.9099L96.1041 81.8968Z" fill="#212527"></path>
<path d="M93.9752 89.3091C98.3518 94.724 103.267 99.8628 108.511 104.437C113.781 109.037 119.223 113.991 125.61 116.962C127.857 118.013 129.711 115.569 128.212 113.623C124.007 108.169 118.723 103.622 114.071 98.5485C109.405 93.4491 104.818 88.2971 100.271 83.0794C98.6935 81.2788 95.6575 81.4234 94.0278 83.0268C92.1878 84.8405 92.4769 87.4297 93.9752 89.296V89.3091Z" fill="#212527"></path>
<path d="M152.355 91.8067C151.501 89.1256 149.622 87.0359 146.914 86.1422C144.457 85.3273 141.552 85.3667 138.989 85.209C135.822 85.025 132.628 85.117 129.474 85.393C126.293 85.669 121.115 86.2341 118.368 87.9164C116.765 88.9021 117.211 91.1364 118.867 91.7279C122.022 92.8582 127.41 92.7267 130.749 92.8056C133.916 92.8844 136.821 92.9501 139.988 92.9896C141.302 93.0027 143.169 93.0422 144.365 93.0422C144.365 93.0422 144.365 93.6467 144.391 93.6599C144.404 93.7256 144.417 93.8044 144.43 93.8439C144.575 95.2107 144.312 96.6433 144.273 98.0101C144.22 99.6267 144.259 101.256 144.246 102.873C144.207 109.471 144.167 116.068 144.207 122.666C144.233 127.647 144.207 132.602 144.759 137.518C135.638 136.492 126.451 136.479 117.54 137.583C115.595 137.82 114.425 140.225 114.688 141.96C114.964 143.76 116.607 145.614 118.605 145.416C123.665 144.917 128.685 144.838 133.758 144.759C138.818 144.68 143.839 145.167 148.886 145.364C150.739 145.43 152.303 143.747 152.303 141.947C152.316 130.644 152.671 119.354 152.868 108.064C152.921 105.252 152.96 102.439 153.013 99.6267C153.052 97.0901 153.144 94.2513 152.369 91.8067H152.355Z" fill="#212527"></path>
<path d="M200.012 110.785C193.9 116.226 187.697 121.575 181.664 127.095C175.645 132.602 169.98 138.543 164.197 144.299C152.619 155.839 141.237 167.549 130 179.43C126.832 182.782 123.783 186.251 120.721 189.708C117.632 193.191 114.307 196.542 112.191 200.722C111.127 202.838 113.321 205.348 115.516 204.073C119.196 201.918 122.061 198.869 125.071 195.872C127.897 193.073 130.775 190.313 133.575 187.487C139.318 181.678 144.956 175.763 150.687 169.941C162.147 158.297 173.503 146.534 185.055 134.981C191.561 128.462 197.62 121.457 203.955 114.767C206.452 112.139 202.693 108.433 200.012 110.811V110.785Z" fill="#D7487F"></path>
<path d="M203.297 110.351C202.417 108.484 200.827 106.907 199.368 105.448C197.804 103.898 196.213 102.36 194.636 100.809C191.64 97.8781 188.669 94.9078 185.66 92.0032C179.772 86.3124 173.673 80.8975 168.285 74.7204C165.775 71.8421 163.225 69.0689 160.307 66.5981C157.389 64.1404 154.301 61.8929 151.304 59.5404C145.429 54.9009 140.291 49.4729 135.296 43.9398C129.645 37.6838 124.033 31.1387 117.067 26.2364C114.11 24.1598 111.127 28.5495 113.348 30.9809C118.381 36.4747 123.376 41.9684 128.317 47.5541C133.246 53.1135 138.214 58.6729 143.918 63.4832C149.78 68.4249 156.101 72.5649 161.267 78.2821C166.708 84.3147 172.477 89.8741 178.444 95.4072C181.927 98.6404 185.502 101.768 189.051 104.936C192.52 108.038 196.108 112.178 200.511 113.939C202.732 114.819 204.099 112.046 203.311 110.351H203.297Z" fill="#D7487F"></path>
<path d="M113.492 26.131C110.062 28.431 107.052 31.651 104.069 34.503C101.099 37.3419 98.1415 40.207 95.1844 43.0722C89.4278 48.6316 83.6712 54.2173 77.941 59.8031C66.2438 71.2111 54.5861 82.6716 42.9941 94.1848C39.7741 97.3916 36.6855 100.743 33.5575 104.042C30.3901 107.38 26.8415 110.718 24.5415 114.74C23.3061 116.896 25.777 119.38 27.9324 118.131C31.481 116.081 34.4775 113.018 37.4478 110.219C40.4444 107.393 43.4541 104.594 46.4375 101.768C52.2467 96.2613 57.8324 90.5048 63.5364 84.8796C75.181 73.4059 86.8781 61.9979 98.6278 50.6293C101.9 47.4751 105.173 44.3076 108.446 41.1533C111.81 37.9202 115.556 34.7002 118.316 30.9413C120.406 28.0893 116.331 24.2253 113.492 26.1179V26.131Z" fill="#D7487F"></path>
<path d="M116.554 199.341C113.847 196.397 110.837 193.703 107.985 190.903C105.199 188.17 102.425 185.423 99.6523 182.676C94.0403 177.09 88.2837 171.649 82.6455 166.116C71.3426 155.023 59.9609 143.997 48.4872 133.088C42.0866 127.003 35.8832 120.589 28.8649 115.201C27.1695 113.899 24.5935 116.475 25.8815 118.171C30.7443 124.532 36.4746 130.183 41.9946 135.979C47.3832 141.631 52.8112 147.243 58.3312 152.789C69.5683 164.079 80.8843 175.342 92.6735 186.054C95.9592 189.037 99.2975 191.968 102.623 194.912C106.053 197.935 109.417 201.089 113.058 203.862C114.188 204.73 116.015 204.151 116.791 203.126C117.671 201.957 117.566 200.432 116.567 199.341H116.554Z" fill="#D7487F"></path>
<path d="M49.7067 68.5611C47.3404 67.013 48.7289 67.6907 46.3627 66.1427C45.1987 65.3782 44.0537 64.5946 42.9088 63.8301C42.3363 63.4479 41.7638 63.0274 41.1722 62.7025C40.3708 62.2438 39.6265 62.1101 38.7106 62.0336C37.5084 61.9381 36.7642 63.4479 37.3557 64.4035C37.8328 65.1871 38.3289 65.7222 39.0922 66.2573C39.6075 66.6396 40.199 66.9263 40.7715 67.2512C42.0119 67.9583 43.2713 68.6654 44.5117 69.3726C46.9543 70.7869 45.6421 69.9753 48.0846 71.3896C49.9166 72.4599 51.4813 69.7078 49.7448 68.5611H49.7067Z" fill="#D7487F"></path>
<path d="M62.7751 38.8816C66.5296 45.1426 65.8324 44.288 70.3978 50.2299C71.3206 51.4253 73.4094 50.5308 72.8541 49.2607C70.0346 42.8572 70.2234 44.0323 66.592 37.8892C66.0807 37.0418 65.0177 36.462 63.9342 36.7506C62.9831 37.0046 62.2695 38.0167 62.7751 38.8816Z" fill="#D7487F"></path>
<path d="M56.6345 56.93C55.1415 57.2719 53.8124 56.1098 52.1651 54.4069C49.5208 51.8775 46.8107 49.7289 44.4957 46.8882C43.6486 45.8457 44.656 43.9621 46.0582 44.5555C47.0423 44.9743 47.9703 45.4034 48.8238 46.0585C49.5855 46.6338 50.2861 47.2975 50.9833 47.9426C52.3963 49.2293 54.9237 52.0697 54.9237 52.0697C54.9237 52.0697 56.0437 53.6979 56.9264 54.8726C57.2712 55.3313 57.5364 56.7235 56.6345 56.93Z" fill="#D7487F"></path>
<path d="M193.528 154.16C191.417 154.504 189.305 154.865 187.21 155.257C186.686 153.877 186.178 152.482 185.701 151.087C185.463 150.398 184.654 150.335 184.193 150.743C182.685 152.028 182.32 154.207 181.955 156.228C178.748 156.855 175.541 157.498 172.35 158.203C171.239 158.439 171.048 160.319 172.144 160.711C174.795 161.667 177.557 162.185 180.272 162.89C179.732 164.238 179.177 165.586 178.684 166.965C178.684 166.965 178.7 166.965 178.716 166.965C178.653 167.2 178.684 167.435 178.78 167.623C178.24 168.219 177.748 168.846 177.335 169.551C176.732 170.57 177.684 171.981 178.716 171.369C180.32 170.429 181.558 168.956 182.907 167.592C183.844 166.636 184.797 165.68 185.733 164.724C186.527 165.1 187.305 165.523 188.051 166.009C188.083 166.056 188.115 166.087 188.146 166.134C188.194 166.228 188.242 166.322 188.289 166.417C188.464 166.761 188.813 166.949 189.162 166.824C190.067 167.576 190.893 168.438 191.544 169.489C192.068 170.304 193.29 169.395 192.877 168.501C191.687 165.993 190.559 163.454 189.48 160.884C189.797 160.554 190.115 160.241 190.432 159.912C191.496 158.83 192.623 157.592 194.02 157.106C195.656 156.542 195.29 153.846 193.544 154.144L193.528 154.16Z" fill="#D7487F"></path>
</svg>