<svg width="42" height="50" viewBox="0 0 42 50" fill="none" xmlns="http://www.w3.org/2000/svg">
<path d="M35.1315 27.1615C35.5474 29.0461 34.2303 31.2662 32.2691 31.5303C28.1969 32.1371 24.2033 32.8939 20.2883 33.8005C27.1762 37.8337 33.9854 41.7169 40.7946 45.6002C42.7075 46.6995 41.2635 50.1331 39.1298 49.3408C28.6899 45.4504 18.5343 40.6463 8.74911 35.4568C5.61593 33.8507 7.19457 29.5818 9.97541 28.6966C15.088 27.1618 20.2081 26.0053 25.2572 25.0772C21.7868 21.7364 15.7412 18.2172 13.4351 16.3684C9.35834 12.9634 5.2105 9.78682 1.13372 6.38181C-2.17186 3.7192 2.47948 -1.97023 5.78506 0.692384C12.3176 5.86771 18.7004 11.1216 25.0832 16.3754C29.0027 19.4806 33.7418 21.9647 34.9818 27.2401L35.1315 27.1615Z" fill="#9A79DA"></path>
</svg>