<svg width="33" height="33" viewBox="0 0 33 33" fill="none" xmlns="http://www.w3.org/2000/svg">
<path d="M18.7301 0.0130492C19.4534 -0.0633199 20.2185 0.198764 20.6379 0.820242C22.4893 3.57856 24.3635 6.30832 26.2784 9.01742C28.1112 11.6038 30.248 13.9955 31.8973 16.7026C32.1558 16.8748 32.3783 17.1036 32.5415 17.3689L32.5354 17.3682C32.9881 18.1121 32.8385 18.8947 32.4129 19.5977C31.9229 20.4071 30.8306 20.8988 30.053 21.4175C29.3242 21.9041 28.6079 22.3925 27.89 22.8932C26.461 23.8893 25.0417 24.9058 23.6283 25.9293C22.1798 26.98 20.7531 28.059 19.3428 29.1591C18.0522 30.1715 16.7688 31.3909 15.2947 32.1414C14.784 32.7948 13.7083 33.0267 12.9967 32.1928C10.5749 29.3689 8.41755 26.3107 6.18769 23.3265C5.0795 21.8322 3.96422 20.3431 2.84977 18.848C2.27887 18.0829 1.72798 17.3076 1.19311 16.5088C0.68011 15.7382 0.213297 15.1068 0.0172988 14.1918C-0.0342369 13.9536 0.0337225 13.7349 0.166989 13.5617C0.183341 13.5364 0.20108 13.5108 0.22064 13.4859C0.796575 12.7511 1.65265 12.2168 2.33091 11.5775C3.04592 10.8984 3.84214 10.3313 4.61728 9.72977C6.08244 8.59836 7.56344 7.49429 9.05594 6.39813C10.5837 5.27462 12.1115 4.15112 13.6392 3.02761C14.3823 2.47917 15.1205 1.9171 15.8745 1.38275C16.7484 0.755388 17.6432 0.118268 18.7253 0.0068535L18.7301 0.0130492Z" fill="#EB5489"></path>
</svg>