<svg width="61" height="37" viewBox="0 0 61 37" fill="none" xmlns="http://www.w3.org/2000/svg">
<path d="M5.74368 1.88981C8.29645 7.52267 10.8278 13.2896 13.5152 18.944C17.6085 14.9215 21.6098 10.6094 25.3634 6.12015C26.896 4.30195 29.5672 4.86564 30.614 6.95786C33.0749 12.301 35.5145 17.7783 38.11 23.143C41.3741 19.1257 44.7514 15.2641 48.1286 11.4024C49.6399 9.7183 52.4885 10.0353 53.2446 12.2186C55.9874 19.257 58.8647 26.3168 60.7355 33.6285C61.1519 35.3451 58.7687 37.3026 57.5659 35.323C54.545 30.028 52.1055 24.5508 49.6873 18.9394C46.4447 22.8225 43.1806 26.8398 39.8034 30.7014C38.2707 32.5196 35.5995 31.9559 34.6874 29.8852C32.2264 24.542 29.6522 19.0433 27.1913 13.7001C23.1685 18.1463 19.0111 22.5711 14.4926 26.6632C13.0242 28.0791 10.5945 26.8664 9.88747 25.2409C6.74086 18.1382 3.57285 11.1695 0.291602 4.0453C-1.34902 0.483185 4.39371 -1.76345 6.03433 1.79867L5.74368 1.88981Z" fill="#478EE6"></path>
</svg>