<svg width="49" height="38" viewBox="0 0 49 38" fill="none" xmlns="http://www.w3.org/2000/svg">
<path d="M42.0269 17.643C42.9637 15.9344 41.7752 13.5746 40.1251 13.0929C35.9471 11.4397 31.7691 9.7865 27.69 8.00736C34.3422 6.51175 40.8691 4.9176 47.2176 2.77589C48.8608 2.23362 48.1211 -0.181099 46.5504 0.010724C36.4726 0.444427 26.4281 2.12661 16.4562 3.45831C12.9914 3.99532 12.3985 8.62232 15.5271 10.0621C21.0847 12.7993 26.8403 15.2846 32.6948 17.644C28.5705 20.3111 21.9712 22.2557 18.8366 23.6633C13.4386 26.1444 7.78968 28.4284 2.21331 30.362C-2.14217 32.0325 0.571811 38.6469 4.82832 37.1023C12.7936 34.1938 20.706 30.8363 28.2421 27.1832C33.2903 24.6309 39.2165 22.7685 42.0269 17.643Z" fill="#9A79DA"></path>
</svg>