<svg width="427" height="141" viewBox="0 0 427 141" fill="none" xmlns="http://www.w3.org/2000/svg">
<g clip-path="url(#clip0_1094_3815)">
<path d="M262.253 135.489V77.9456C262.253 75.9985 263.83 74.4238 265.78 74.4238H276.057C277.193 74.4238 278.262 74.9656 278.923 75.8884L299.842 104.943C301.843 107.72 306.236 106.306 306.236 102.886V77.9456C306.236 75.9985 307.813 74.4238 309.763 74.4238H317.581C319.531 74.4238 321.109 75.9985 321.109 77.9456V135.489C321.109 137.436 319.531 139.01 317.581 139.01H308.042C306.905 139.01 305.837 138.46 305.176 137.537L283.519 107.399C281.518 104.613 277.117 106.027 277.117 109.456V135.48C277.117 137.427 275.54 139.002 273.59 139.002H265.772C263.821 139.002 262.244 137.427 262.244 135.48L262.253 135.489Z" fill="#212527"></path>
<path d="M227.004 107.102V111.496C227.004 113.443 228.581 115.018 230.531 115.018H236.882C239.613 115.018 241.359 118.04 239.875 120.326C239.867 120.343 239.858 120.36 239.841 120.377C238.544 122.35 236.789 123.882 234.576 124.991C232.354 126.1 229.802 126.65 226.902 126.65C223.078 126.65 219.72 125.787 216.828 124.068C213.928 122.35 211.715 120.005 210.172 117.058C208.629 114.045 207.865 110.599 207.865 106.721C207.865 102.844 208.663 99.4323 210.265 96.4777C211.868 93.4638 214.055 91.1273 216.828 89.4679C219.66 87.8086 222.9 86.9789 226.529 86.9789C228.377 86.9789 230.192 87.3176 231.981 87.9949C233.77 88.6129 235.398 89.5018 236.882 90.6701C237.637 91.2373 238.315 91.8469 238.917 92.4903C240.028 93.6755 241.851 93.8702 243.25 93.0321L249.601 89.2139C251.424 88.1218 251.908 85.6413 250.551 84.0074C249.372 82.5851 248.058 81.2644 246.591 80.0538C244.064 77.9627 241.105 76.3288 237.722 75.1605C234.398 73.933 230.667 73.3149 226.537 73.3149C219.881 73.3149 213.996 74.7626 208.883 77.6495C203.829 80.4771 199.852 84.4138 196.961 89.4595C194.061 94.4459 192.619 100.194 192.619 106.713C192.619 113.232 194.069 119.014 196.961 124.06C199.861 129.046 203.829 132.983 208.883 135.87C213.996 138.697 219.881 140.111 226.537 140.111C232.329 140.111 237.416 139.002 241.783 136.792C246.159 134.574 249.61 131.315 252.137 127.014C254.486 122.951 255.723 118.057 255.893 112.351H255.927V107.102C255.927 105.155 254.35 103.581 252.4 103.581H230.531C228.581 103.581 227.004 105.155 227.004 107.102Z" fill="#212527"></path>
<path d="M181.901 74.4238H174.075C172.127 74.4238 170.547 76.0006 170.547 77.9457V135.497C170.547 137.442 172.127 139.019 174.075 139.019H181.901C183.85 139.019 185.429 137.442 185.429 135.497V77.9457C185.429 76.0006 183.85 74.4238 181.901 74.4238Z" fill="#212527"></path>
<path d="M138.885 140.128C135.739 140.128 132.72 139.73 129.829 138.926C126.997 138.062 124.411 136.928 122.062 135.514C119.781 134.041 117.898 132.407 116.423 130.621C115.965 130.045 115.558 129.461 115.202 128.868C114.032 126.879 115.066 124.314 117.288 123.687L125.725 121.3C127.158 120.893 128.633 121.511 129.481 122.739C130.109 123.653 130.897 124.5 131.847 125.27C133.568 126.565 135.731 127.243 138.317 127.302C140.844 127.361 142.938 126.777 144.6 125.55C146.322 124.322 147.186 122.722 147.186 120.749C147.186 119.209 146.567 117.854 145.338 116.686C144.168 115.517 142.472 114.628 140.259 114.01L131.109 111.708C127.904 110.912 125.097 109.651 122.698 107.923C120.357 106.205 118.509 104.105 117.152 101.65C115.855 99.1274 115.21 96.2659 115.21 93.0658C115.21 86.8518 117.271 82.0262 121.4 78.5806C125.53 75.0757 131.355 73.3232 138.868 73.3232C142.998 73.3232 146.601 73.9074 149.679 75.0757C152.757 76.1847 155.378 77.844 157.54 80.0621C158.795 81.3151 159.906 82.7458 160.864 84.3543C162.042 86.3269 161.042 88.8921 158.837 89.544L151.045 91.8552C149.552 92.2954 147.984 91.6858 147.093 90.416C146.542 89.6286 145.838 88.8836 144.973 88.1809C143.371 86.8264 141.276 86.1491 138.69 86.1491C136.104 86.1491 134.069 86.7333 132.593 87.9016C131.177 89.0699 130.465 90.7631 130.465 92.9811C130.465 94.5219 131.05 95.8087 132.22 96.8585C133.39 97.8406 134.993 98.5771 137.028 99.0766L146.177 101.388C151.418 102.683 155.479 105.113 158.379 108.677C161.339 112.182 162.814 116.186 162.814 120.673C162.814 124.737 161.856 128.208 159.948 131.103C158.099 133.999 155.386 136.242 151.816 137.842C148.246 139.383 143.93 140.153 138.877 140.153L138.885 140.128Z" fill="#212527"></path>
<path d="M64.3081 135.489V77.9456C64.3081 75.9985 65.8853 74.4238 67.8356 74.4238H102.924C104.874 74.4238 106.451 75.9985 106.451 77.9456V84.5575C106.451 86.5047 104.874 88.0794 102.924 88.0794H82.717C80.7667 88.0794 79.1896 89.654 79.1896 91.6012V96.3675C79.1896 98.3147 80.7667 99.8893 82.717 99.8893H98.4888C100.439 99.8893 102.016 101.464 102.016 103.411V109.557C102.016 111.505 100.439 113.079 98.4888 113.079H82.717C80.7667 113.079 79.1896 114.654 79.1896 116.601V121.825C79.1896 123.772 80.7667 125.346 82.717 125.346H103.381C105.332 125.346 106.909 126.921 106.909 128.868V135.48C106.909 137.427 105.332 139.002 103.381 139.002H67.8356C65.8853 139.002 64.3081 137.427 64.3081 135.48V135.489Z" fill="#212527"></path>
<path d="M391.607 63.5281V19.6407C391.607 17.6936 390.029 16.1189 388.079 16.1189H376.284C374.334 16.1189 372.757 14.5443 372.757 12.5971V5.9852C372.757 4.03804 374.334 2.46338 376.284 2.46338H421.726C423.676 2.46338 425.253 4.03804 425.253 5.9852V12.5971C425.253 14.5443 423.676 16.1189 421.726 16.1189H409.931C407.98 16.1189 406.403 17.6936 406.403 19.6407V63.5281C406.403 65.4753 404.826 67.0499 402.876 67.0499H395.151C393.201 67.0499 391.624 65.4753 391.624 63.5281H391.607Z" fill="#212527"></path>
<path d="M341.459 68.1677C335.049 68.1677 329.385 66.7539 324.449 63.9263C319.582 61.031 315.733 57.0943 312.9 52.1163C310.128 47.0707 308.737 41.2884 308.737 34.7697C308.737 28.2509 310.128 22.4941 312.9 17.5161C315.733 12.4704 319.582 8.53376 324.449 5.70614C329.376 2.81079 335.049 1.37158 341.459 1.37158C346.14 1.37158 350.422 2.20124 354.306 3.86056C358.249 5.46062 361.64 7.73796 364.473 10.6926C366.406 12.6651 368.034 14.8324 369.365 17.2113C370.425 19.1077 369.433 21.5036 367.372 22.1978L360.029 24.6698C358.452 25.2032 356.748 24.5428 355.866 23.129C355.154 21.9861 354.323 20.9448 353.381 20.0051C351.838 18.405 350.057 17.1775 348.022 16.3139C346.047 15.4504 343.859 15.0187 341.459 15.0187C338.067 15.0187 335.049 15.8483 332.403 17.5076C329.758 19.167 327.689 21.5036 326.213 24.5174C324.738 27.472 323.992 30.8838 323.992 34.7612C323.992 38.6386 324.729 42.0842 326.213 45.0981C327.756 48.0527 329.851 50.3893 332.496 52.1079C335.21 53.7672 338.288 54.5969 341.739 54.5969C344.266 54.5969 346.513 54.1312 348.489 53.2084C350.464 52.2857 352.152 50.9904 353.568 49.3311C354.467 48.3151 355.289 47.2146 356.035 46.0209C356.892 44.6325 358.605 44.0314 360.148 44.5563L367.627 47.0791C369.662 47.7649 370.654 50.1184 369.645 52.0148C368.339 54.4699 366.703 56.7133 364.752 58.7452C361.852 61.6998 358.435 64.0025 354.492 65.6703C350.549 67.3296 346.208 68.1593 341.459 68.1593V68.1677Z" fill="#212527"></path>
<path d="M275.184 68.2521C269.638 68.2521 264.83 67.2023 260.769 65.1112C256.766 63.0201 253.68 60.0655 251.526 56.2559C249.372 52.3785 248.287 47.7984 248.287 42.5072V5.9852C248.287 4.03804 249.864 2.46338 251.814 2.46338H259.632C261.583 2.46338 263.16 4.03804 263.16 5.9852V42.5072C263.16 44.9708 263.652 47.0873 264.635 48.8736C265.619 50.6599 267.009 52.0398 268.79 53.0304C270.639 54.0124 272.826 54.5034 275.353 54.5034C277.88 54.5034 279.975 54.0124 281.823 53.0304C283.672 52.0483 285.088 50.6599 286.071 48.8736C287.055 47.0873 287.547 44.9708 287.547 42.5072V5.9852C287.547 4.03804 289.124 2.46338 291.074 2.46338H298.892C300.843 2.46338 302.42 4.03804 302.42 5.9852V42.5072C302.42 47.7984 301.309 52.3785 299.096 56.2559C296.942 60.074 293.796 63.0201 289.667 65.1112C285.596 67.2023 280.763 68.2521 275.158 68.2521H275.184Z" fill="#212527"></path>
<path d="M47.3833 13.0713C45.3482 9.7527 42.5161 7.16213 38.8784 5.31656C35.2407 3.41173 31.0858 2.45508 26.4051 2.45508H4.51964C2.56937 2.45508 0.992188 4.02974 0.992188 5.9769V63.5198C0.992188 65.467 2.56937 67.0416 4.51964 67.0416H12.3377C14.288 67.0416 15.8652 65.467 15.8652 63.5198V50.1775C15.8652 48.2303 17.4423 46.6557 19.3926 46.6557H26.863C31.4843 46.6557 35.5799 45.699 39.1582 43.7942C42.7366 41.8894 45.5009 39.2734 47.4766 35.9547C49.5116 32.5684 50.5292 28.7587 50.5292 24.5088C50.5292 20.2589 49.4777 16.3307 47.3833 13.0629V13.0713ZM35.1814 26.0242C34.5284 31.18 30.3565 35.3452 25.1926 35.9971C17.6119 36.9537 11.2354 30.5873 12.1936 23.0188C12.8465 17.8631 17.0184 13.6978 22.1824 13.046C29.763 12.0893 36.1395 18.4557 35.1814 26.0242Z" fill="#212527"></path>
<path d="M93.4012 42.7952C93.4691 42.7613 93.5454 42.736 93.6132 42.6936C97.3103 40.848 100.21 38.2913 102.305 35.032C104.399 31.7726 105.451 28.0476 105.451 23.8654C105.451 19.6832 104.399 15.9921 102.305 12.792C100.27 9.53259 97.4375 7.00975 93.7998 5.22344C90.1621 3.37786 86.0072 2.45508 81.3265 2.45508H59.441C57.4907 2.45508 55.9136 4.02974 55.9136 5.9769V63.5198C55.9136 65.467 57.4907 67.0416 59.441 67.0416H67.2591C69.2094 67.0416 70.7865 65.467 70.7865 63.5198V48.8822C70.7865 46.9351 72.3637 45.3604 74.314 45.3604H76.6289C77.9008 45.3604 79.071 46.0377 79.6984 47.1467L90.0095 65.2638C90.6369 66.3643 91.8071 67.0501 93.079 67.0501H101.787C104.535 67.0501 106.231 64.0531 104.815 61.7081L93.4012 42.7867V42.7952ZM76.7306 35.3452C71.5666 34.6933 67.3948 30.5281 66.7418 25.3723C65.7837 17.8038 72.1602 11.4374 79.7408 12.3941C84.9048 13.046 89.0767 17.2112 89.7296 22.3669C90.6878 29.9355 84.3113 36.3018 76.7306 35.3452Z" fill="#212527"></path>
<path d="M174.338 17.5923C171.438 12.5466 167.435 8.60993 162.322 5.78231C157.268 2.88696 151.443 1.44775 144.855 1.44775C138.266 1.44775 132.407 2.89543 127.294 5.78231C122.24 8.60993 118.263 12.5466 115.372 17.5923C112.472 22.5787 111.03 28.3271 111.03 34.8458C111.03 41.3646 112.48 47.0537 115.372 52.0994C118.271 57.0858 122.274 61.0225 127.387 63.9094C132.5 66.737 138.385 68.1508 145.041 68.1508C151.698 68.1508 157.455 66.737 162.509 63.9094C167.563 61.014 171.506 57.0774 174.338 52.0994C177.238 47.0537 178.679 41.3053 178.679 34.8458C178.679 28.3863 177.229 22.5702 174.338 17.5923ZM163.34 36.6999C162.475 45.3774 155.445 52.4042 146.754 53.2592C135.001 54.4191 125.208 44.6409 126.378 32.9156C127.243 24.238 134.272 17.2113 142.964 16.3563C154.716 15.1964 164.51 24.9746 163.34 36.6999Z" fill="#212527"></path>
<path d="M237.552 18.0578C234.593 13.1983 230.463 9.38021 225.164 6.61185C219.923 3.84349 213.886 2.45508 207.051 2.45508H189.414C187.464 2.45508 185.887 4.02974 185.887 5.9769V63.5198C185.887 65.467 187.464 67.0416 189.414 67.0416H207.051C213.894 67.0416 219.932 65.6532 225.164 62.8849C230.463 60.1165 234.593 56.2984 237.552 51.4389C240.511 46.5795 241.987 41.0089 241.987 34.7356C241.987 28.4624 240.511 22.8326 237.552 18.0324V18.0578ZM226.741 36.6659C225.893 45.1911 218.991 52.0823 210.46 52.9205C198.928 54.0634 189.312 44.463 190.457 32.9493C191.305 24.4242 198.207 17.5329 206.738 16.6948C218.27 15.5519 227.885 25.1522 226.741 36.6659Z" fill="#212527"></path>
<path d="M52.649 90.0182C49.6897 85.1588 45.5602 81.3407 40.2606 78.5723C35.0202 75.8039 28.9829 74.4155 22.1484 74.4155H4.51964C2.56937 74.4155 0.992188 75.9902 0.992188 77.9373V135.48C0.992188 137.427 2.56937 139.002 4.51964 139.002H22.1569C28.9998 139.002 35.0372 137.614 40.269 134.845C45.5687 132.077 49.6982 128.259 52.6575 123.399C55.6168 118.54 57.0923 112.969 57.0923 106.696C57.0923 100.423 55.6168 94.793 52.6575 89.9928L52.649 90.0182ZM41.8293 108.576C40.9813 117.101 34.079 123.992 25.5487 124.83C14.0166 125.973 4.40093 116.373 5.54566 104.859C6.3936 96.3338 13.2959 89.4425 21.8262 88.6044C33.3583 87.4615 42.974 97.0619 41.8293 108.576Z" fill="#212527"></path>
<path d="M402.045 86.1152C399.391 87.6306 397.178 89.8317 395.558 92.3969C395.431 92.5916 395.177 92.6424 394.982 92.5154C394.854 92.4308 394.795 92.2953 394.795 92.1598C394.719 89.6793 394.507 86.1575 394.38 83.6516L395.211 84.4812C391.056 84.7268 384.9 85.0654 380.795 85.2262L382.373 83.6516C382.525 87.4951 382.602 91.3386 382.636 95.1822C382.763 106.298 382.424 118.607 382.271 129.782L380.795 128.309L395.211 128.504L393.93 129.782L394.227 107.763L394.244 106.383C394.261 98.1283 405.242 96.8415 411.567 96.9854L411.067 97.4849C411.211 92.8117 411.338 88.1301 411.389 83.4569L411.567 83.6347C408.243 83.5923 404.945 84.5066 402.045 86.1067V86.1152ZM401.875 85.8019C404.852 84.2103 408.193 83.3129 411.576 83.296C411.669 83.296 411.754 83.3722 411.754 83.4738C411.805 88.147 411.924 92.8286 412.076 97.5018C412.085 97.7812 411.856 98.0013 411.576 98.0013C406.615 98.2384 397.424 99.3305 396.228 105.18C396.126 105.866 396.203 107.051 396.194 107.788L396.491 129.808C396.499 130.51 395.923 131.095 395.211 131.086L380.795 131.281C379.99 131.289 379.329 130.654 379.32 129.85C379.176 118.633 378.803 106.357 378.955 95.2076C378.989 91.364 379.066 87.5205 379.218 83.677C379.193 82.7965 379.905 82.06 380.795 82.1023C384.916 82.2208 391.123 82.6526 395.304 82.8473C395.736 82.8727 396.067 83.2368 396.05 83.677C395.914 86.2083 395.719 89.6963 395.635 92.1852L394.871 91.9482C396.754 89.4592 399.103 87.275 401.875 85.8273V85.8019Z" fill="#0569E7"></path>
<path d="M359.308 117.761C354.874 120.36 348.2 119.666 345.148 115.289C344.113 113.875 343.494 112.173 343.257 110.446C343.231 110.286 343.367 110.133 343.528 110.142L376.59 109.532L375.708 110.413C375.665 107.433 375.386 104.453 374.707 101.591C372.774 92.9812 366.541 85.5058 357.519 84.1682C351.906 83.2962 345.716 84.1682 340.764 87.0127C327.951 94.1072 326.773 114.121 337.448 123.577C341.688 127.387 347.344 129.148 353.042 129.266C361.657 129.723 371.027 126.269 374.716 117.837L375.097 118.675C370.874 117.058 366.635 115.492 362.37 113.985L362.683 113.841C362.013 115.484 360.767 116.83 359.308 117.769V117.761ZM359.113 117.456C360.487 116.5 361.632 115.187 362.208 113.638C362.259 113.511 362.395 113.443 362.522 113.494C366.83 114.883 371.146 116.203 375.487 117.473C375.81 117.566 375.996 117.905 375.894 118.227C372.647 127.641 362.59 132.551 353.017 132.542C339.119 133.076 327.443 123.103 326.824 109.041C325.772 95.3263 334.54 83.3131 348.446 81.5522C362.514 79.4527 373.673 87.309 376.607 101.159C377.26 104.224 377.505 107.331 377.463 110.421C377.463 110.912 377.073 111.31 376.581 111.31L343.52 110.7L343.791 110.396C343.969 112.063 344.503 113.697 345.462 115.086C348.328 119.395 354.874 120.021 359.105 117.473L359.113 117.456Z" fill="#0569E7"></path>
<path d="M262.074 135.489C262.159 119.514 261.981 99.6525 261.727 83.6096L261.65 78.42C261.591 77.5395 261.769 76.3627 262.337 75.5923C263.126 74.3055 264.805 73.6282 266.246 73.7298L267.544 73.7129C269.138 73.7129 273.666 73.6367 275.336 73.6282C276.871 73.4928 278.499 73.9754 279.474 75.2368L280.271 76.3119L283.349 80.4941L295.594 97.2651C296.611 98.662 299.198 102.209 300.181 103.555C300.283 103.733 300.639 104.165 300.749 104.334C301.665 105.68 303.895 105.579 304.718 104.199C305.091 103.648 305.099 102.997 305.082 102.336C305.031 102.065 304.972 80.2063 304.93 78.9956V78.3438C304.684 75.6855 306.922 73.0864 309.644 73.0864C310.543 73.0526 312.663 73.0864 313.579 73.0526C314.359 73.078 316.699 73.0102 317.479 73.0272C320.617 72.9256 322.906 75.7701 322.567 78.784C322.66 89.9675 322.965 124.915 322.982 135.54C323.025 138.418 320.472 140.966 317.589 140.89L312.392 140.873C311.493 140.898 309.356 140.848 308.491 140.856C306.948 140.975 304.887 140.23 303.895 138.875C298.273 131.078 292.694 123.061 287.241 115.154C286.063 113.435 283.629 109.871 282.493 108.186C281.628 106.738 279.356 106.865 278.516 108.288C278.202 108.821 278.16 109.312 278.16 110.286L278.092 112.876L277.575 133.626L277.549 134.922C277.804 137.377 275.709 139.612 273.216 139.332L270.622 139.298C268.883 139.273 267.179 139.282 265.407 139.231C263.541 139.061 262.024 137.36 262.066 135.497L262.074 135.489ZM262.431 135.489C262.431 137.148 263.796 138.647 265.458 138.765C267.145 138.782 268.909 138.74 270.63 138.731L273.225 138.697C274.081 138.723 274.836 138.52 275.464 138.045C276.083 137.58 276.523 136.877 276.659 136.124C276.786 135.506 276.659 134.295 276.676 133.618C276.642 132.289 276.108 110.65 276.091 110.277C275.396 105.35 281.501 102.683 284.579 106.679C285.791 108.305 288.437 111.75 289.675 113.41C295.356 120.97 301.071 128.716 306.609 136.395C307.38 137.478 308.245 137.114 309.797 137.173L312.392 137.165L317.589 137.148C318.412 137.148 319.175 136.488 319.251 135.658C319.285 125.203 319.582 89.7982 319.675 78.7755C319.692 77.7596 319.692 77.4379 319.438 76.9384C319.031 76.2188 318.327 75.804 317.471 75.8209L316.173 75.8125L313.579 75.7955L310.984 75.7786C310.407 75.8125 309.458 75.677 308.932 75.931C307.957 76.3289 307.473 77.294 307.55 78.3438V78.9956L307.414 99.7456C307.372 100.787 307.482 102.844 307.287 103.86C306.753 106.798 303.183 108.449 300.58 107.018C299.638 106.544 298.994 105.68 298.417 104.834C293.601 98.0355 283.714 84.1768 278.898 77.3109L278.168 76.2865C277.651 75.6177 276.837 75.2198 275.981 75.2283C275.557 75.2029 270.698 75.186 270.138 75.1606L267.544 75.1352C266.967 75.1775 265.636 75.0336 265.11 75.186C263.626 75.5161 262.719 76.9215 262.846 78.4369L262.77 83.6265C262.541 99.6948 262.312 119.505 262.422 135.506L262.431 135.489Z" fill="#0569E7"></path>
<path d="M227.181 107.102C227.207 108.711 227.181 110.379 227.258 111.936C227.453 113.46 228.835 114.713 230.353 114.739C231.947 114.739 233.592 114.713 235.212 114.688L236.433 114.671C237.73 114.552 239.163 115.06 239.985 116.127C242.529 119.319 238.9 122.883 236.322 124.694C230.582 128.453 222.882 128.301 216.803 125.296C207.111 120.461 204.202 107.822 207.653 98.1114C210.019 91.3302 216.285 86.0898 223.459 85.3279C229.632 84.3458 236.17 86.7248 240.376 91.2879C240.859 91.7535 241.724 91.7874 242.3 91.4403L242.428 91.3641L242.69 91.2117C244.047 90.4074 247.43 88.3841 248.821 87.5629C249.482 87.1142 249.728 86.1152 249.389 85.4464C248.872 84.6591 247.43 83.1014 246.566 82.331C237.416 73.8142 222.823 72.9168 211.706 77.8186C203.134 81.6452 196.706 89.6286 194.697 98.7887C190.211 118.743 202.354 137.698 223.374 139.112C232.752 139.967 243.097 137.588 249.313 130.087C253.544 125.211 255.376 118.726 255.579 112.351C255.579 112.207 255.681 112.089 255.808 112.055L255.842 112.046L255.613 112.351L255.656 107.585C255.808 106.069 255.003 104.546 253.536 104.021C252.951 103.75 251.899 103.809 251.255 103.792L248.863 103.767L244.09 103.75H234.542C233.176 103.784 231.116 103.648 229.81 103.826C228.309 104.139 227.165 105.57 227.19 107.102H227.181ZM226.825 107.102C226.783 104.935 228.835 103.183 230.963 103.411C231.718 103.411 233.77 103.411 234.542 103.42L244.09 103.411L248.863 103.394L251.255 103.369C251.958 103.369 253.027 103.293 253.697 103.58C255.35 104.122 256.351 105.892 256.207 107.576L256.249 112.343C256.249 112.487 256.156 112.614 256.02 112.647L255.986 112.656L256.215 112.36C256.113 118.904 254.426 125.651 250.186 130.798C243.903 138.841 233.058 141.576 223.239 140.881C205.508 140.069 191.814 125.922 191.441 108.22C190.364 90.3651 202.311 74.9063 220.177 72.2396C226.876 71.2067 233.88 71.647 240.18 74.2968C245.022 76.3201 249.567 79.461 252.569 83.8548C253.79 86.2591 252.849 89.3407 250.585 90.7038C249.542 91.3472 247.736 92.4393 246.659 93.0911C246.328 93.2943 244.454 94.4288 244.183 94.5981C242.105 95.8764 239.222 95.5632 237.543 93.7346C232.04 87.7745 222.187 87.1819 215.946 92.253C211.181 96.0458 209.163 102.184 209.442 108.194C209.587 114.298 212.385 120.318 217.846 123.382C223.086 126.354 230.353 126.819 235.644 123.653C237.806 122.222 241.376 119.446 239.333 116.618C238.374 115.246 236.755 115.34 235.203 115.331L230.31 115.263C228.538 115.196 226.986 113.714 226.8 111.987C226.741 110.311 226.8 108.728 226.8 107.094L226.825 107.102Z" fill="#0569E7"></path>
<path d="M170.361 135.488C170.488 117.092 169.394 96.6807 169.369 78.1741C169.157 75.4904 171.582 73.0184 174.278 73.1708L175.474 73.1539C176.669 73.1539 179.069 73.0946 180.256 73.0861L181.452 73.0692C184.174 72.7729 186.921 75.1264 186.862 77.9456C187.031 89.0105 187.455 105.24 187.226 116.161C187.176 121.723 186.709 129.639 186.387 135.268C186.404 137.216 184.979 139.129 183.054 139.535C182.257 139.789 181.274 139.569 180.485 139.578L178.094 139.467C176.619 139.374 174.736 139.434 173.261 139.213C171.573 138.833 170.31 137.216 170.361 135.497V135.488ZM170.725 135.488C170.742 137.444 172.582 138.976 174.516 138.697C175.27 138.672 177.322 138.587 178.102 138.562L180.494 138.452L181.689 138.392C183.012 138.401 184.191 137.47 184.437 136.2C184.632 136.047 183.902 126.167 183.936 125.702C183.216 110.963 183.741 92.8033 183.996 77.9371C184.013 76.6079 182.859 75.6344 181.469 75.7698C180.714 75.7529 178.662 75.736 177.882 75.719C177.093 75.7106 175.058 75.6767 174.295 75.6682C172.862 75.5328 171.641 76.7265 171.726 78.1657C171.709 96.7061 170.598 117.058 170.734 135.48L170.725 135.488Z" fill="#0569E7"></path>
<path d="M138.885 140.306C132.61 140.322 126.327 138.553 121.087 135.065C118.526 133.262 116.101 131.171 114.634 128.233C113.896 126.201 115.261 123.78 117.373 123.306L118.492 122.976C119.865 122.569 123.783 121.401 125.216 120.969C125.979 120.69 126.98 120.588 127.785 120.868C128.642 121.13 129.388 121.697 129.905 122.417C130.779 123.602 131.838 124.677 133.136 125.38C136.307 126.997 140.581 127.141 143.659 125.262C146.898 123.424 147.356 119.115 144.21 116.872C141.895 115.009 138.69 114.654 135.841 113.883L131.304 112.774C126.581 111.708 121.934 109.43 118.695 105.739C113.048 99.576 112.666 89.6793 116.491 82.4663C120.62 74.9909 129.591 72.0194 137.655 71.8839C144.125 71.613 151.087 72.866 156.386 76.8619C159.032 78.9953 161.72 81.6451 162.907 84.8961C163.645 87.5798 161.873 90.5682 159.159 91.254C159.015 91.2963 157.938 91.6349 157.76 91.6857C156.641 92.0328 154.402 92.7101 153.283 93.0488C152.486 93.2773 151.579 93.616 150.765 93.743C148.992 94.0054 147.169 93.2858 146.008 91.9651C145.016 90.6529 143.837 89.3153 142.277 88.6549C139.326 87.5374 133.865 87.5036 132.585 91.0169C130.999 95.7494 135.519 96.8838 139.122 97.7812C147.381 99.9569 154.928 101.244 160.117 108.863C165.926 116.779 164.637 129.249 156.76 135.302C151.714 139.281 145.109 140.339 138.868 140.297L138.885 140.306ZM138.885 139.942C144.99 139.882 151.494 138.697 156.208 134.625C163.136 128.75 163.848 117.27 158.15 110.353C155.437 106.84 151.562 104.503 147.313 103.335C144.837 102.691 140.869 101.811 138.3 101.176C133.721 100.304 128.464 98.2299 128.65 92.7016C128.591 87.1395 133.356 84.2103 138.435 84.2781C142.039 84.0749 145.847 85.7257 148.094 88.6803C148.323 88.9512 148.526 89.2729 148.755 89.5523C149.204 90.0857 149.934 90.3227 150.595 90.1111C151.646 89.8063 153.47 89.2729 154.53 88.9682C155.479 88.6973 157.472 88.13 158.413 87.8507C159.278 87.6052 159.846 86.6146 159.626 85.7257C159.193 84.5405 158.286 83.4569 157.523 82.4579C154.792 79.0461 150.858 76.7772 146.635 75.7105C138.334 73.8565 127.896 74.2967 121.392 80.3668C117.05 84.3712 115.812 90.8391 116.694 96.5113C117.568 102.421 122.096 107.145 127.522 109.422C129.897 110.514 133.789 111.31 136.35 112.021C139.453 112.893 142.768 113.325 145.38 115.483C148.331 117.651 149.009 122.197 146.474 124.931C144.193 127.505 140.53 128.284 137.257 127.903C134.823 127.666 132.339 126.701 130.617 124.906C129.006 123.323 128.286 120.919 125.487 121.841L120.959 123.044L118.704 123.653C118.17 123.797 117.05 124.043 116.575 124.356C115.337 125.067 114.71 126.684 115.159 128.064C115.363 128.741 115.906 129.351 116.304 129.994C117.618 131.89 119.433 133.431 121.299 134.777C126.437 138.274 132.686 140.009 138.893 139.942H138.885Z" fill="#0569E7"></path>
<path d="M64.1217 135.489C64.2488 117.736 63.8927 96.0545 63.6044 78.2253C63.4179 75.5416 65.7073 73.4251 68.3699 73.6452L69.5315 73.6283L78.7996 73.5182C82.7001 73.4844 98.9722 73.3743 102.551 73.3489C105.086 73.1288 107.528 75.2199 107.553 77.7935C107.587 79.2328 107.579 81.5863 107.596 83.034V84.1938C107.833 86.7336 105.671 89.2649 103.051 89.2733L98.3787 89.3157C95.3006 89.3411 87.4486 89.3919 84.4724 89.4173C84.1077 89.4257 83.0902 89.4173 82.7341 89.4257C81.6402 89.4088 80.6566 90.2893 80.5633 91.3729C80.5294 92.4989 80.5888 94.6661 80.5888 95.8514C80.4531 97.2059 81.2925 98.425 82.7256 98.4081C82.8952 98.4081 83.4124 98.3996 83.5905 98.4081L88.2288 98.3657L97.4968 98.2896C100.736 97.9424 103.594 100.05 103.653 103.42C103.67 104.783 103.687 107.12 103.704 108.483C104.068 111.869 101.957 114.798 98.4211 114.866H98.1328L88.8647 114.917L84.2264 114.942C82.8528 114.993 82.1829 114.73 81.4113 115.552C81.1823 115.839 81.0297 116.178 81.0212 116.542L81.0042 118.786C81.0212 119.116 80.9788 121.368 80.9958 121.681C80.9025 122.68 81.7589 123.594 82.7849 123.535H83.3615C88.534 123.535 96.7252 123.653 101.898 123.755C102.042 123.755 103.203 123.789 103.348 123.789C106.027 123.78 108.401 126.142 108.317 128.818C108.249 130.714 108.198 133.305 108.13 135.193C108.223 138.122 105.671 140.408 102.805 140.069L101.643 140.035C94.3 139.823 78.7487 139.366 71.5157 139.282C70.8204 139.248 68.726 139.273 68.0392 139.248C65.9532 139.392 64.0029 137.571 64.0793 135.48L64.1217 135.489ZM64.4863 135.489C64.4863 137.385 66.2076 138.943 68.0816 138.774C68.7769 138.748 70.8204 138.757 71.5581 138.74L80.8262 138.57C84.1671 138.443 100.804 138.088 103.806 137.876C104.857 137.665 105.654 136.683 105.663 135.684L105.535 131.154L105.467 128.86C105.391 127.616 104.289 126.777 103.093 126.93C99.5064 127.014 91.7053 127.116 88.0337 127.158C86.9823 127.133 82.98 127.243 81.9963 127.124C79.4016 126.828 77.3072 124.432 77.3411 121.825V121.681V121.105C77.3411 119.928 77.3242 117.583 77.3326 116.407C77.375 114.019 79.1896 111.827 81.5385 111.344C82.573 111.132 83.3531 111.242 84.2604 111.225L88.8986 111.251L98.1667 111.302C99.0061 111.395 99.8795 110.997 100.176 110.176C100.363 109.82 100.287 108.88 100.312 108.483L100.337 106.171C100.329 105.57 100.405 103.606 100.337 103.039C100.134 101.998 99.1588 101.397 98.1158 101.498H97.5392L88.2711 101.422C87.6521 101.422 83.2852 101.38 82.768 101.38C80.1224 101.422 77.7651 99.1277 77.7821 96.4863C77.816 94.7931 77.7566 92.8375 77.8414 91.1104C78.1043 88.4014 80.6905 86.4711 83.3615 86.759H84.5232L89.1615 86.7928C92.1887 86.8182 100.092 86.869 103.025 86.8859C104.051 86.8859 105.018 86.1071 105.247 85.0996C105.357 84.7102 105.306 83.8044 105.323 83.0509L105.34 80.7397C105.306 80.2487 105.425 77.9883 105.315 77.4888C105.077 76.2189 103.856 75.3892 102.576 75.5077H101.999C92.5194 75.4823 76.79 75.2622 67.3778 75.2453C65.9532 75.4485 64.9187 76.8284 65.029 78.2507V78.8264L65.012 79.9862C64.7407 97.1975 64.376 118.388 64.5202 135.514L64.4863 135.489Z" fill="#0569E7"></path>
<path d="M0.805462 135.489C1.03441 116.314 0.161023 97.1213 0.0338314 77.9459C-0.0424837 75.457 2.25545 73.2643 4.73145 73.4082C5.22326 73.4167 6.68172 73.3743 7.19897 73.3828C15.0849 73.5606 26.159 72.3584 33.7651 74.6104C47.451 78.0983 57.9824 89.8914 58.7795 104.131C60.5263 124.382 45.382 139.629 25.3704 139.866C21.4699 139.976 16.06 139.502 12.134 139.459L5.54548 139.29C3.11187 139.536 0.780024 138.13 0.788503 135.489H0.805462ZM1.17008 135.489C1.22096 137.842 3.36626 139.053 5.56244 138.731L12.151 138.562L18.7395 138.325C39.1072 138.723 56.4901 125.855 55.2351 104.351C54.9044 91.339 45.4583 80.5365 33.0783 77.1163C28.9403 75.9057 24.726 75.5501 20.3845 75.5755C19.6129 75.5331 5.74051 75.4485 5.56244 75.4231C5.01975 75.4231 4.40923 75.3892 4.08701 75.4485C2.89989 75.6093 1.94171 76.7269 1.94171 77.929L1.92475 79.5714C1.77212 98.2049 0.941133 116.838 1.17008 135.472V135.489Z" fill="#0569E7"></path>
<path d="M391.429 63.5285C391.547 50.7365 391.225 34.7867 390.937 21.9185C390.877 21.0719 391.022 19.438 390.716 18.7184C390.326 17.6263 389.232 16.8897 388.088 16.9151C387.494 16.9151 386.087 16.949 385.484 16.9575C383.763 16.9913 380.261 17.0336 378.54 17.0506L376.802 17.0675C374.648 17.2961 372.375 15.8569 371.883 13.6811C371.621 12.5975 371.765 11.0906 371.714 9.98153L371.68 6.5105C371.57 5.12209 372.062 3.5051 373.164 2.55691C374.207 1.53254 375.733 1.2447 377.149 1.32089L380.626 1.28703C389.3 1.20237 412.22 0.982252 420.564 0.880661C423.803 0.499694 426.847 2.47226 426.915 6.01101V6.23113L426.941 7.96664C426.932 9.55824 427.076 11.7932 426.941 13.4441C426.601 15.9669 424.244 17.9564 421.7 17.9226C419.402 17.9395 413.441 17.9734 411.067 17.9903C409.778 17.9734 408.956 17.8718 408.388 18.9639C408.226 19.3448 408.252 19.3872 408.235 19.9036C408.218 26.6255 408.116 34.0248 407.896 40.7044L407.361 54.5716L407.099 61.5052C407.014 62.538 407.158 64.1635 406.624 65.1624C406.047 66.3815 404.86 67.2451 403.563 67.4313C402.443 67.5498 401.112 67.3974 400.018 67.4059C398.255 67.3382 396.559 67.3467 394.786 67.2874C392.912 67.1181 391.378 65.3995 391.437 63.5285H391.429ZM391.793 63.5285C391.793 65.1963 393.175 66.6778 394.829 66.7879C396.533 66.8048 398.305 66.7371 400.01 66.7032C400.951 66.6524 402.528 66.7032 403.402 66.5593C404.648 66.3138 405.615 65.2386 405.75 64.0111C405.793 62.4449 405.462 56.2817 405.428 54.58C404.97 43.7352 404.521 30.6723 404.555 19.9036C404.512 19.2517 404.682 18.1427 405.013 17.4654C406.047 15.0018 408.659 14.0282 411.067 14.2484C413.314 14.2653 419.301 14.2907 421.488 14.3076C422.396 14.4092 423.311 13.7912 423.464 12.8769C423.515 12.716 423.506 11.971 423.515 11.4292L423.566 7.95817C423.549 7.628 423.634 5.98561 423.566 5.64698C423.235 4.09771 422.082 3.97919 420.564 4.02999C410.304 3.903 387.604 3.69135 377.158 3.58976H376.293C374.724 3.60669 373.673 4.90198 373.834 6.51897L373.8 9.99C373.774 10.5911 373.8 12.0134 373.774 12.589C373.774 14.2145 375.148 15.332 376.819 15.1711C379.303 15.1881 383.008 15.2304 385.501 15.2812C386.604 15.3405 388.105 15.205 389.156 15.4759C391.234 15.95 392.582 18.2104 392.319 20.1999L392.294 21.9354L391.997 35.8026C391.878 43.9299 391.691 55.5113 391.802 63.537L391.793 63.5285Z" fill="#0569E7"></path>
<path d="M341.459 68.3455C297.188 68.0068 296.798 1.07519 341.154 0.253999C352.711 -0.126968 364.337 5.84997 370.171 15.916C370.705 16.7626 371.154 17.7615 371.146 18.7944C371.188 20.7415 369.967 22.604 368.169 23.3575C367.788 23.5268 365.71 24.221 365.261 24.3819C364.778 24.5427 360.419 26.0666 360.08 26.1513C358.164 26.6508 356.018 25.855 354.857 24.2803L354.161 23.2559C348.531 14.7731 335.244 14.3498 329.359 22.7395C323.754 30.6382 324.627 44.353 332.878 50.1776C338.652 54.165 347.556 53.9364 352.364 48.4421C353.492 47.2822 354.314 46.0208 355.281 44.734C356.697 43.0747 359.13 42.6683 361.064 43.5741L365.532 45.225C365.939 45.3689 368.017 46.1309 368.415 46.3171C370.493 47.2992 371.553 49.9659 370.569 52.0739C368.085 56.7387 364.218 60.6669 359.741 63.4183C354.289 66.8216 347.844 68.4555 341.451 68.3539L341.459 68.3455ZM341.459 67.9814C352.737 68.1169 363.981 61.869 368.899 51.5998C369.535 50.3215 368.873 48.6791 367.567 48.1457C367.423 48.1034 367.322 48.0526 367.11 47.9934L364.837 47.2992L360.284 45.9107C359.283 45.4874 358.062 45.589 357.392 46.5034C356.985 47.096 356.595 47.8325 356.163 48.4251C352.83 53.6317 346.903 56.7556 340.662 56.3154C333.548 56.2561 327.027 51.5914 324.178 45.1234C317.7 29.9271 326.688 10.4554 345.088 13.7402C349.82 14.663 353.932 17.6091 356.62 21.5543L357.239 22.5025C357.723 23.1797 358.588 23.5353 359.393 23.3406C361.115 22.8157 364.93 21.5119 366.626 20.9701C367.881 20.6992 368.78 19.3701 368.305 18.1256C367.5 16.4916 366.423 14.9593 365.286 13.5286C362.412 9.96442 358.757 7.086 354.56 5.25736C338.415 -1.84555 318.87 4.58855 311.968 21.2834C303.319 43.5403 316.038 68.3455 341.451 67.9814H341.459Z" fill="#0569E7"></path>
<path d="M275.184 68.4384C261.252 68.6247 249.593 60.726 248.109 46.2916C247.71 43.5317 247.872 39.4765 247.761 36.6658L247.617 27.0739L247.388 7.88168C247.405 7.53458 247.363 6.42554 247.38 6.07844C247.261 3.5048 249.644 1.29519 252.196 1.50684C252.544 1.51531 253.629 1.48991 254.002 1.48991C255.096 1.47298 259.09 1.43911 260.107 1.47298C262.202 1.65076 263.991 3.40321 264.195 5.49429C264.262 6.43401 264.22 8.27112 264.245 9.20237L264.279 14.0025C264.322 20.098 264.44 36.4626 264.483 42.7698C264.517 44.2513 264.746 45.699 265.263 47.0197C267.281 52.6918 274.446 54.2072 279.729 52.3447C283.892 50.9394 286.122 46.9265 285.961 42.5242C285.851 33.6435 285.758 17.6683 285.715 8.93992L285.707 6.54407C285.503 4.17361 286.911 1.78622 289.175 0.965023C290.091 0.558658 291.244 0.609454 292.219 0.609454L297.027 0.626386C297.273 0.643317 298.553 0.61792 298.833 0.626386C301.759 0.524794 304.379 3.11537 304.277 6.03611C304.277 6.19696 304.277 6.76418 304.277 6.9335C304.226 13.7316 304.124 20.5298 303.963 27.3194L303.7 36.9113C303.531 39.7559 303.675 43.7941 303.192 46.6133C301.292 61.09 289.167 68.7856 275.201 68.4215L275.184 68.4384ZM275.184 68.0744C288.743 68.176 300.156 60.5567 301.258 46.4016C301.572 43.7433 301.224 39.6543 301.207 36.9283C300.902 27.2009 300.716 16.627 300.639 6.94197C300.622 6.73878 300.656 6.07844 300.631 5.86679C300.58 4.95247 299.732 4.2244 298.816 4.29213H298.214C297.527 4.28367 293.016 4.31753 292.211 4.31753L291.057 4.326C290.184 4.33446 289.446 5.10486 289.446 5.96838V6.54407C289.438 8.03407 289.421 12.1908 289.412 13.7401C289.395 19.8356 289.251 36.2256 289.192 42.5242C289.336 50.4738 283.426 56.129 275.515 55.9427C267.722 56.1798 261.744 50.6769 261.88 42.8036C261.922 36.4203 262.032 20.1657 262.075 14.0025L262.109 9.20237L262.126 6.80651C262.126 6.05304 262.193 5.52816 261.897 4.91014C261.354 3.69952 260.09 3.36088 258.81 3.46247C258.038 3.4794 253.51 3.41167 252.807 3.42014H252.205C250.627 3.23389 249.16 4.47838 249.22 6.08691C249.203 6.43401 249.22 7.51765 249.203 7.88168C249.135 14.2481 248.94 30.5111 248.83 36.6658C248.872 39.4342 248.567 43.4894 248.872 46.2154C250.051 60.5397 261.371 68.3707 275.201 68.0829L275.184 68.0744Z" fill="#0569E7"></path>
<path d="M185.709 63.5284C185.937 44.3531 185.064 25.1608 184.937 5.98549C184.861 3.49651 187.159 1.30383 189.635 1.44776C190.126 1.45622 191.585 1.41389 192.102 1.42236C199.988 1.60014 211.062 0.39798 218.668 2.64992C232.354 6.13788 242.886 17.9309 243.683 32.1706C245.429 52.4211 230.285 67.6682 210.274 67.9053C206.373 68.0153 200.963 67.5412 197.037 67.4989L190.449 67.3296C188.015 67.5751 185.683 66.1698 185.692 63.5284H185.709ZM186.073 63.5284C186.124 65.8819 188.269 67.0925 190.466 66.7708L197.054 66.6015L203.643 66.3645C224.01 66.7624 241.393 53.8942 240.138 32.3907C239.807 19.3786 230.361 8.57606 217.981 5.15583C213.843 3.9452 209.629 3.58963 205.288 3.61503C204.516 3.5727 190.644 3.48804 190.466 3.46265C189.923 3.46265 189.312 3.42878 188.99 3.48804C187.803 3.6489 186.845 4.7664 186.845 5.96856L186.828 7.61095C186.675 26.2445 185.844 44.878 186.073 63.5115V63.5284Z" fill="#0569E7"></path>
<path d="M145.041 68.3453C131.364 68.5316 118.085 61.1831 112.777 48.2557C103.593 24.5511 118.67 0.109942 144.685 0.00835104C171.217 -0.533468 187.226 23.9246 177.814 48.2557C172.302 61.471 159.041 68.7517 145.032 68.3453H145.041ZM145.041 67.9813C158.583 68.1167 170.725 60.091 175.024 47.1805C182.181 25.0421 168.877 2.9291 144.702 2.88677C120.027 2.54813 106.264 25.2876 114.032 47.7562C118.704 60.6667 131.482 68.3792 145.041 67.9813Z" fill="#0569E7"></path>
<path d="M101.796 66.8808C104.246 66.9316 105.959 63.9685 104.611 61.9113C103.331 59.8202 101.982 57.7461 100.668 55.6634C98.4125 52.0654 94.9613 46.8927 92.638 43.2524C92.3412 42.8122 92.5362 42.1942 93.0195 41.9825C108.113 34.3801 107.24 12.2163 91.383 6.17164C87.3807 4.44459 82.717 4.18215 78.384 4.25834L71.4054 4.19061C69.1244 4.17368 63.1464 4.08902 60.9333 4.06362C60.5856 4.08902 59.5851 4.02976 59.2967 4.06362C58.3047 4.09749 57.4652 4.96948 57.4482 5.95999C57.2956 20.1573 57.1175 43.7942 56.9819 58.2117L56.9479 61.6996L56.931 63.4436C56.8462 65.0776 58.3216 66.2628 59.8988 66.085C61.4505 66.0935 64.4268 66.1273 66.004 66.1358H66.8774C67.9967 66.2374 69.1668 65.704 69.6502 64.6543C70.125 63.977 69.9045 60.7091 69.9809 59.8456C70.0148 57.5006 70.0996 51.6506 70.1335 49.3902C69.9893 46.3933 72.3297 44.4969 75.2381 44.8609L76.1115 44.8779C77.7057 44.7593 79.41 45.6059 80.1053 47.0705C83.4547 53.1491 86.8126 59.3377 90.2383 65.3569C91.2134 66.9739 93.0535 66.9739 94.7833 66.8977L101.762 66.8723L101.796 66.8808ZM101.796 67.2364L94.8172 67.211C91.6035 67.338 90.5859 66.9231 89.119 64.0193C86.2529 59.016 83.2258 53.9618 80.3173 48.9754L79.427 47.4769C78.7741 46.2663 77.4767 45.7244 76.137 45.8599C74.8735 45.9107 73.3387 45.699 72.3721 46.6896C71.592 47.3922 71.3545 48.3658 71.4393 49.3987L71.4902 52.8866C71.5241 55.147 71.6089 61.1409 71.6428 63.342C71.8379 65.8988 69.506 68.193 66.8943 67.9814H66.021C64.4438 67.9814 61.4675 68.0237 59.9158 68.0322C57.2956 68.32 54.7772 66.0765 54.8874 63.4352L54.8705 61.6912C54.8026 50.6347 54.5567 27.2603 54.4804 16.3815L54.4126 9.41409L54.3787 5.9092C54.3787 4.23294 55.286 2.59055 56.7105 1.69316C57.9316 0.82964 59.5511 0.838106 60.9418 0.863504C63.1295 0.838106 69.1414 0.761913 71.4139 0.736515C73.7457 0.711117 79.6644 0.651855 81.9115 0.651855C88.1354 0.651855 94.4017 2.53129 99.2689 6.56107C111.81 16.9572 108.851 37.3093 93.7997 43.5995L94.1812 42.3296L97.785 48.7806C99.8879 52.548 102.898 57.8561 105.094 61.6319C106.57 64.0109 104.594 67.3634 101.804 67.2364H101.796Z" fill="#0569E7"></path>
<path d="M0.805646 63.5283C1.03459 44.5223 0.12729 25.4486 0.0170566 6.43411C-0.220368 3.62342 2.05213 1.26989 4.88426 1.43074C9.11551 1.38841 19.8675 1.26989 23.9461 1.22756C28.3215 1.08364 32.7986 1.33762 36.9366 2.94614C53.3952 8.71991 57.4823 30.2657 44.9158 42.0418C39.8451 46.7234 32.7817 48.6875 26.0575 48.3489L19.7064 48.1627C18.1885 47.9764 17.0014 49.0854 17.1032 50.694L16.8318 57.0349L16.552 63.3759C16.6198 65.9072 14.1523 67.9052 11.6848 67.4988L5.33368 67.3295C2.94247 67.5412 0.814125 66.0342 0.814125 63.5283H0.805646ZM1.17026 63.5283C1.17026 65.3146 2.75592 66.8554 4.53661 66.7877L5.33368 66.7792L11.6848 66.6099C13.6096 66.7962 15.3818 65.3485 15.1868 63.3759L14.907 57.0349L14.6356 50.694C14.6017 50.2537 14.5763 49.3987 14.7967 48.7299C15.3818 46.5965 17.5017 45.098 19.7148 45.1742L26.0659 44.9879C32.01 45.0303 38.022 43.2863 42.3974 39.2734C49.7067 32.7631 51.0295 20.5553 45.255 12.6142C41.2018 6.84047 34.0366 3.91126 27.1089 3.75041L23.963 3.70808C19.9183 3.66575 9.0816 3.55569 4.90122 3.5049C3.14598 3.35251 1.83166 4.61393 1.97581 6.44257C1.86558 25.4655 0.958276 44.5308 1.18722 63.5452L1.17026 63.5283Z" fill="#0569E7"></path>
<path d="M35.4525 24.5173C35.7663 36.1494 22.6825 42.5412 14.2285 33.9568C9.34429 28.9111 9.5054 20.1996 14.6609 15.5011C22.8436 7.89018 35.1982 13.6639 35.4525 24.5088V24.5173ZM35.0964 24.5173C35.3847 18.371 29.5593 13.4608 23.683 13.8417C14.6439 14.0449 9.99721 25.3046 16.7469 31.4339C22.9029 37.3093 34.8759 33.6351 35.0879 24.5088L35.0964 24.5173Z" fill="#0569E7"></path>
<path d="M90.0094 23.8739C89.7466 34.7187 77.4005 40.4925 69.2178 32.8816C64.0623 28.183 63.9012 19.4716 68.7853 14.4259C77.2478 5.84144 90.3316 12.2417 90.0094 23.8654V23.8739ZM89.6533 23.8739C89.4413 14.7476 77.4683 11.0734 71.3122 16.9487C64.5541 23.0781 69.2008 34.3462 78.2484 34.5409C84.1247 34.9304 89.9501 30.0201 89.6618 23.8654L89.6533 23.8739Z" fill="#0569E7"></path>
<path d="M163.611 34.8036C163.916 48.7131 150.375 59.2109 137.028 53.6657C123.927 48.2983 120.68 30.5199 130.889 20.8602C143.498 8.90635 163.289 17.7194 163.611 34.8036ZM163.247 34.8036C163.425 18.8623 143.396 11.2599 132.542 22.5196C126.022 29.0214 126.157 40.4758 132.975 46.6644C143.6 56.9251 162.95 50.0846 163.247 34.8121V34.8036Z" fill="#0569E7"></path>
<path d="M227.012 34.8033C226.69 51.5827 207.263 60.2519 194.866 48.5011C184.827 39.0108 188.015 21.5287 200.895 16.246C214.022 10.8024 227.309 21.1223 227.012 34.7948V34.8033ZM226.656 34.8033C226.359 19.8271 207.374 13.1474 196.969 23.188C190.288 29.2412 190.143 40.467 196.537 46.8503C207.179 57.8983 226.842 50.4398 226.664 34.8033H226.656Z" fill="#0569E7"></path>
<path d="M42.1004 106.721C41.7782 123.501 22.3518 132.17 9.9548 120.419C-0.0848752 110.929 3.1034 93.4467 15.9837 88.1639C29.1099 82.7204 42.3972 93.0403 42.1004 106.713V106.721ZM41.7443 106.721C41.4475 91.745 22.462 85.0654 12.0577 95.106C5.3759 101.159 5.23174 112.385 11.6253 118.768C22.267 129.816 41.9308 122.358 41.7528 106.721H41.7443Z" fill="#0569E7"></path>
<path d="M360.08 97.4089C356.536 91.5081 345.631 94.0648 345.334 101.007L343.901 99.373C346.827 99.2629 349.761 98.8819 352.694 98.9497C355.662 98.9158 358.588 99.5507 361.488 100.177L360.852 100.897C360.945 99.6947 360.741 98.4417 360.08 97.4089ZM360.377 97.2057C361.174 98.2301 361.691 99.4576 362.124 100.728C362.225 101.024 362.039 101.346 361.734 101.405C357.324 102.471 352.83 102.996 348.302 102.531C346.793 102.421 345.283 102.319 343.774 102.251C342.943 102.218 342.316 101.439 342.477 100.626C342.782 98.628 343.774 96.6131 345.334 95.267C349.922 91.034 356.926 92.2701 360.377 97.2142V97.2057Z" fill="#0569E7"></path>
</g>
<defs>
<clipPath id="clip0_1094_3815">
<rect width="427" height="141" fill="white"></rect>
</clipPath>
</defs>
</svg>