<svg width="230" height="230" viewBox="0 0 230 230" fill="none" xmlns="http://www.w3.org/2000/svg">
<path d="M181.716 51.2102V179.734L51.7598 179.34V50.8159L181.716 51.2102Z" fill="#EED263"></path>
<path d="M123.691 92.505V136.363L79.8335 136.231V92.3735L123.691 92.505Z" fill="white"></path>
<path d="M54.8095 65.4176C55.0855 60.7125 55.5061 56.0599 54.5993 51.4074C54.1787 49.1994 51.2478 49.7251 50.5775 51.4074C48.961 55.4685 48.593 59.8188 48.1593 64.1296C47.7518 68.1908 47.3707 72.2519 47.0421 76.3262C46.3587 84.6588 46.0433 93.0439 45.7541 101.39C45.189 117.936 45.2153 134.47 45.8198 151.017C45.9907 155.762 46.201 160.493 46.4507 165.238C46.569 167.603 46.7135 169.969 46.8581 172.335C47.0027 174.753 46.8713 177.342 47.765 179.616C48.8164 182.271 52.9695 182.81 53.7975 179.616C54.3495 177.5 54.113 175.463 53.9947 173.307C53.8764 171.047 53.7713 168.786 53.6661 166.526C53.4821 162.438 53.3244 158.338 53.2061 154.25C52.9564 145.852 52.825 137.454 52.825 129.055C52.825 112.535 53.1404 96.0274 54.0867 79.5331C54.3495 74.8279 54.5467 70.1096 54.8095 65.4045V65.4176Z" fill="#DBB53E"></path>
<path d="M182.519 177.802C178.221 177.158 173.739 177.132 169.389 177.119C165.157 177.106 160.925 177.092 156.693 177.066C148.137 177.04 139.581 176.961 131.012 176.856C114.189 176.659 97.3792 176.448 80.5695 176.015C71.0146 175.765 61.1838 175.003 51.7078 176.488C48.9872 176.922 49.0398 181.482 51.7078 181.968C60.0009 183.454 68.6226 183.099 77.0209 183.046C85.5243 182.994 94.0409 182.902 102.544 182.98C119.407 183.125 136.256 183.217 153.118 183.506C157.784 183.585 162.449 183.664 167.115 183.743C171.939 183.822 176.972 184.071 181.756 183.454C183.163 183.27 184.372 182.494 184.556 180.956C184.7 179.682 183.938 178.012 182.505 177.802H182.519Z" fill="#DBB53E"></path>
<path d="M184.608 65.9169C184.451 61.6455 184.319 57.3872 184.254 53.1289C184.24 52.038 182.65 51.1575 181.862 52.1563C179.378 55.2712 178.773 58.9118 178.313 62.7626C177.814 66.8238 177.564 70.8849 177.314 74.9592C176.788 83.4626 176.552 91.966 176.342 100.483C175.921 117.397 175.803 134.312 175.947 151.227C176.026 160.703 176.184 170.192 176.42 179.668C176.539 184.807 184.661 184.833 184.543 179.668C184.135 163.082 183.964 146.496 184.017 129.896C184.07 113.31 184.543 96.7237 184.582 80.1375C184.582 75.406 184.792 70.6483 184.622 65.93L184.608 65.9169Z" fill="#DBB53E"></path>
<path d="M181.808 49.1332C179.692 48.3972 177.419 48.5155 175.211 48.4498C172.989 48.371 170.768 48.3447 168.547 48.2921C164.315 48.2001 160.096 48.095 155.864 48.003C147.308 47.8058 138.739 47.6087 130.183 47.4247C113.334 47.0435 96.4455 46.2944 79.5964 46.8858C74.7729 47.0567 69.9232 47.2407 65.1261 47.8321C62.8261 48.1212 60.5261 48.4367 58.2392 48.8047C55.9129 49.1727 53.0872 48.6207 51.1026 49.9744C50.2484 50.5527 50.8135 52.7081 51.7466 53.0104C53.6524 53.6412 55.7026 53.4967 57.7004 53.4178C59.7901 53.339 61.8798 53.247 63.9826 53.2075C68.1752 53.1287 72.3809 53.0367 76.5735 53.0498C85.1032 53.0761 93.6198 53.4967 102.136 53.7727C119.143 54.3247 136.163 54.8898 153.17 55.4418C157.823 55.5864 162.475 55.7441 167.128 55.8887C169.454 55.9675 171.78 56.0464 174.107 56.1121C176.735 56.191 179.403 56.4801 181.953 55.731C185.304 54.7584 184.752 50.1847 181.808 49.1464V49.1332Z" fill="#DBB53E"></path>
<path d="M82.8564 112.298C82.6987 108.355 82.4621 104.425 82.2124 100.496C82.1072 98.8395 81.8575 91.0327 78.8215 91.7161C77.3889 92.0447 76.8895 93.9898 76.6529 95.2252C76.2718 97.1967 76.0484 99.1418 75.9432 101.14C75.7329 105.082 75.6015 108.999 75.5489 112.942C75.4569 120.775 75.3912 128.74 76.1141 136.546C76.5478 141.107 83.1587 141.265 83.3295 136.546C83.6187 128.477 83.1587 120.341 82.8432 112.285L82.8564 112.298Z" fill="#212527"></path>
<path d="M125.912 134.627C122.114 133.142 117.58 133.037 113.545 132.932C109.589 132.827 105.607 132.879 101.651 132.932C97.7866 132.971 93.9358 133.247 90.0849 133.523C86.0895 133.813 81.7655 133.878 77.9278 135.087C75.6672 135.797 75.9169 139.346 78.1775 139.858C81.9232 140.713 86.0106 140.515 89.8221 140.647C93.8044 140.778 97.7735 141.028 101.756 141.107C105.62 141.186 109.484 141.317 113.361 141.488C117.225 141.659 121.693 141.948 125.452 140.897C128.002 140.187 128.567 135.666 125.912 134.627Z" fill="#212527"></path>
<path d="M127.45 132.63C127.344 130.685 127.213 128.726 127.108 126.781C126.911 122.996 126.766 119.198 126.661 115.4C126.556 111.72 126.451 108.026 126.424 104.346C126.411 102.375 126.28 100.456 126.03 98.4979C125.794 96.5791 125.728 94.7128 125.097 92.9122C124.874 92.2945 122.455 92.1105 122.127 92.8465C121.391 94.4762 121.286 96.0271 120.878 97.8013C120.431 99.7202 120.234 101.731 120.142 103.702C119.958 107.606 119.8 111.509 119.748 115.4C119.695 119.185 119.695 122.983 119.748 126.781C119.8 130.672 119.222 135.6 121.18 139.096C122.652 141.712 125.978 140.686 126.963 138.334C127.699 136.56 127.555 134.509 127.463 132.617L127.45 132.63Z" fill="#212527"></path>
<path d="M125.045 91.085C123.271 90.1518 121.05 90.4147 119.092 90.3621C117.186 90.3095 115.267 90.257 113.361 90.1912L101.585 89.8495C97.774 89.7444 93.9362 89.4684 90.1248 89.5735C88.2191 89.6261 86.3134 89.6787 84.4077 89.7312C82.2917 89.7838 80.0968 89.8232 78.2042 90.8615C76.1408 91.9918 76.706 95.0541 78.4934 96.0661C80.2414 97.0518 82.5545 96.9992 84.4997 97.0781C86.4054 97.157 88.3242 97.2358 90.23 97.3147C94.1334 97.4724 98.0762 97.2752 101.993 97.2227C105.804 97.1701 109.616 97.1175 113.427 97.065C115.333 97.0387 117.239 97.0124 119.144 96.9861C121.313 96.9598 123.35 97.1438 125.335 96.1581C127.359 95.1461 126.793 91.9918 125.045 91.0718V91.085Z" fill="#212527"></path>
<path d="M161.318 112.521C156.626 108.039 152.04 103.426 147.742 98.5765C145.928 96.5262 144.141 94.5153 142.025 92.7542C139.593 90.7302 136.978 89.3239 133.837 88.6536C130.958 88.049 129.408 91.6502 131.852 93.2668C133.916 94.6336 135.703 96.6445 137.32 98.4976C138.91 100.324 140.618 102.572 142.445 104.767C146.454 109.577 150.699 114.151 155.299 118.435C156.916 119.947 159.741 120.131 161.332 118.435C162.882 116.779 163.04 114.151 161.332 112.521H161.318Z" fill="#212527"></path>
<path d="M162.567 114.834C162.396 113.849 161.332 113.034 160.412 112.824C158.125 112.285 156.837 113.744 155.312 115.15C154.156 116.201 153.012 117.253 151.856 118.304C149.49 120.46 147.216 122.72 144.916 124.928C142.669 127.084 140.422 129.239 138.174 131.394C137.057 132.472 136.006 133.616 134.941 134.759C133.798 135.981 132.378 137.204 131.655 138.728C130.67 140.792 132.575 143.959 135.086 142.894C136.728 142.198 137.938 141.015 139.278 139.872C140.527 138.794 141.815 137.756 143.011 136.625L149.963 130.001C152.211 127.859 154.511 125.743 156.719 123.548C157.888 122.392 159.045 121.222 160.202 120.065C160.74 119.526 161.358 119.001 161.858 118.409C162.778 117.318 162.817 116.175 162.58 114.821L162.567 114.834Z" fill="#212527"></path>
<path d="M75.2617 26.9707C73.0329 27.3371 70.8042 27.7201 68.5921 28.1364C68.0391 26.6709 67.5029 25.1888 67.0002 23.7066C66.7488 22.9738 65.8941 22.9072 65.4082 23.3402C63.8162 24.7058 63.4308 27.0207 63.0453 29.169C59.6603 29.8351 56.2752 30.5179 52.9069 31.2673C51.7339 31.5171 51.5328 33.5155 52.6891 33.9319C55.4876 34.9478 58.4035 35.4973 61.269 36.2467C60.6993 37.6789 60.1127 39.1111 59.5933 40.5767C59.5933 40.5767 59.61 40.5767 59.6268 40.5767C59.5597 40.8265 59.5933 41.0763 59.6938 41.2761C59.124 41.9089 58.6045 42.5751 58.1688 43.3245C57.5321 44.407 58.5375 45.9058 59.6268 45.2563C61.3193 44.2571 62.6264 42.6917 64.0508 41.2428C65.0395 40.2269 66.045 39.2111 67.0337 38.1952C67.8716 38.5949 68.6927 39.0445 69.4803 39.5608C69.5138 39.6107 69.5473 39.6441 69.5808 39.694C69.6311 39.7939 69.6814 39.8939 69.7317 39.9938C69.916 40.3602 70.2847 40.56 70.6533 40.4268C71.6085 41.2261 72.4799 42.1421 73.167 43.2579C73.72 44.1239 75.0103 43.158 74.5746 42.2087C73.3178 39.5441 72.128 36.8463 70.9885 34.1151C71.3236 33.7653 71.6588 33.4323 71.9939 33.0826C73.1167 31.9335 74.3065 30.6178 75.7812 30.1016C77.5072 29.502 77.1218 26.6376 75.2785 26.954L75.2617 26.9707Z" fill="#DBB53E"></path>
<path d="M128.429 191.815C129.286 194.509 128.637 193.107 129.494 195.801C129.914 197.129 130.307 198.46 130.712 199.776C130.914 200.434 131.093 201.121 131.346 201.747C131.678 202.609 132.17 203.182 132.832 203.82C133.704 204.653 135.234 203.953 135.379 202.838C135.504 201.93 135.458 201.201 135.204 200.304C135.046 199.683 134.768 199.087 134.529 198.473C134.014 197.142 133.484 195.798 132.969 194.466C131.969 191.827 132.474 193.285 131.473 190.646C130.729 188.659 127.777 189.805 128.4 191.79L128.429 191.815Z" fill="#DBB53E"></path>
<path d="M116.131 205.602C116.407 198.307 116.524 199.403 115.946 191.932C115.826 190.427 113.588 190.035 113.359 191.402C112.223 198.306 112.706 197.219 112.392 204.348C112.357 205.337 112.931 206.403 113.996 206.753C114.931 207.06 116.082 206.602 116.131 205.602Z" fill="#DBB53E"></path>
<path d="M99.5489 189.331C100.487 190.542 99.9918 192.236 99.1398 194.447C97.9574 197.91 97.148 201.273 95.5447 204.568C94.9553 205.775 92.8227 205.653 92.7712 204.132C92.7372 203.063 92.7361 202.04 92.9714 200.99C93.1729 200.057 93.4804 199.142 93.7723 198.239C94.3453 196.415 95.859 192.928 95.859 192.928C95.859 192.928 96.8651 191.227 97.5595 189.932C97.8307 189.426 98.9821 188.6 99.5489 189.331Z" fill="#DBB53E"></path>
</svg>