<svg width="200" height="200" viewBox="0 0 200 200" fill="none" xmlns="http://www.w3.org/2000/svg">
<path d="M140.61 61.1714V139.403L61.5059 139.163V60.9314L140.61 61.1714Z" fill="#EED263"></path>
<path d="M105.29 86.3073V113.003L78.5942 112.923V86.2273L105.29 86.3073Z" fill="white"></path>
<path d="M63.3624 69.8194C63.5304 66.9554 63.7864 64.1234 63.2344 61.2914C62.9784 59.9474 61.1944 60.2674 60.7864 61.2914C59.8024 63.7634 59.5784 66.4114 59.3144 69.0354C59.0664 71.5074 58.8344 73.9794 58.6344 76.4594C58.2184 81.5314 58.0264 86.6354 57.8504 91.7154C57.5064 101.787 57.5224 111.851 57.8904 121.923C57.9944 124.811 58.1224 127.691 58.2744 130.579C58.3464 132.019 58.4344 133.459 58.5224 134.899C58.6104 136.371 58.5304 137.947 59.0744 139.331C59.7144 140.947 62.2424 141.275 62.7464 139.331C63.0824 138.043 62.9384 136.803 62.8664 135.491C62.7944 134.115 62.7304 132.739 62.6664 131.363C62.5544 128.875 62.4584 126.379 62.3864 123.891C62.2344 118.779 62.1544 113.667 62.1544 108.555C62.1544 98.4994 62.3464 88.4514 62.9224 78.4114C63.0824 75.5474 63.2024 72.6754 63.3624 69.8114V69.8194Z" fill="#DBB53E"></path>
<path d="M141.098 138.227C138.482 137.835 135.754 137.819 133.106 137.811C130.53 137.803 127.954 137.795 125.378 137.779C120.17 137.763 114.962 137.715 109.746 137.651C99.5062 137.531 89.2742 137.403 79.0422 137.139C73.2262 136.987 67.2422 136.523 61.4742 137.427C59.8182 137.691 59.8502 140.467 61.4742 140.763C66.5222 141.667 71.7702 141.451 76.8822 141.419C82.0582 141.387 87.2422 141.331 92.4182 141.379C102.682 141.467 112.938 141.523 123.202 141.699C126.042 141.747 128.882 141.795 131.722 141.843C134.658 141.891 137.722 142.043 140.634 141.667C141.49 141.555 142.226 141.083 142.338 140.147C142.426 139.371 141.962 138.355 141.09 138.227H141.098Z" fill="#DBB53E"></path>
<path d="M142.37 70.1234C142.274 67.5234 142.194 64.9314 142.154 62.3394C142.146 61.6754 141.178 61.1393 140.698 61.7473C139.186 63.6433 138.818 65.8594 138.538 68.2034C138.234 70.6754 138.082 73.1474 137.93 75.6274C137.61 80.8033 137.466 85.9794 137.338 91.1634C137.082 101.459 137.01 111.755 137.098 122.051C137.146 127.819 137.242 133.595 137.386 139.363C137.458 142.491 142.402 142.507 142.33 139.363C142.082 129.267 141.978 119.171 142.01 109.067C142.042 98.9713 142.33 88.8753 142.354 78.7793C142.354 75.8993 142.482 73.0034 142.378 70.1314L142.37 70.1234Z" fill="#DBB53E"></path>
<path d="M140.666 59.9072C139.378 59.4592 137.994 59.5312 136.65 59.4912C135.298 59.4432 133.946 59.4272 132.594 59.3952C130.018 59.3392 127.45 59.2752 124.874 59.2192C119.666 59.0992 114.45 58.9792 109.242 58.8672C98.9861 58.6352 88.7061 58.1792 78.4501 58.5392C75.5141 58.6432 72.5621 58.7552 69.6421 59.1152C68.2421 59.2912 66.8421 59.4832 65.4501 59.7072C64.0341 59.9312 62.3141 59.5952 61.1061 60.4192C60.5861 60.7712 60.9301 62.0832 61.4981 62.2672C62.6581 62.6512 63.9061 62.5632 65.1221 62.5152C66.3941 62.4672 67.6661 62.4112 68.9461 62.3872C71.4981 62.3392 74.0581 62.2832 76.6101 62.2912C81.8021 62.3072 86.9861 62.5632 92.1701 62.7312C102.522 63.0672 112.882 63.4112 123.234 63.7472C126.066 63.8352 128.898 63.9312 131.73 64.0192C133.146 64.0672 134.562 64.1152 135.978 64.1552C137.578 64.2032 139.202 64.3792 140.754 63.9232C142.794 63.3312 142.458 60.5472 140.666 59.9152V59.9072Z" fill="#DBB53E"></path>
<path d="M80.4343 98.3552C80.3383 95.9552 80.1943 93.5632 80.0423 91.1712C79.9783 90.1632 79.8263 85.4112 77.9783 85.8272C77.1063 86.0272 76.8023 87.2112 76.6583 87.9632C76.4263 89.1632 76.2903 90.3472 76.2263 91.5632C76.0983 93.9632 76.0183 96.3472 75.9863 98.7472C75.9303 103.515 75.8903 108.363 76.3303 113.115C76.5943 115.891 80.6183 115.987 80.7223 113.115C80.8983 108.203 80.6183 103.251 80.4263 98.3472L80.4343 98.3552Z" fill="#212527"></path>
<path d="M106.642 111.947C104.33 111.043 101.57 110.979 99.1142 110.915C96.7062 110.851 94.2822 110.883 91.8742 110.915C89.5222 110.939 87.1782 111.107 84.8342 111.275C82.4022 111.451 79.7702 111.491 77.4342 112.227C76.0582 112.659 76.2102 114.819 77.5862 115.131C79.8662 115.651 82.3542 115.531 84.6742 115.611C87.0982 115.691 89.5142 115.843 91.9382 115.891C94.2902 115.939 96.6422 116.019 99.0022 116.123C101.354 116.227 104.074 116.403 106.362 115.763C107.914 115.331 108.258 112.579 106.642 111.947Z" fill="#212527"></path>
<path d="M107.578 110.731C107.514 109.547 107.434 108.355 107.37 107.171C107.25 104.867 107.162 102.555 107.098 100.243C107.034 98.0032 106.97 95.7552 106.954 93.5152C106.946 92.3152 106.866 91.1472 106.714 89.9552C106.57 88.7872 106.53 87.6512 106.146 86.5552C106.01 86.1792 104.538 86.0672 104.338 86.5152C103.89 87.5072 103.826 88.4512 103.578 89.5312C103.306 90.6992 103.186 91.9232 103.13 93.1232C103.018 95.4992 102.922 97.8752 102.89 100.243C102.858 102.547 102.858 104.859 102.89 107.171C102.922 109.539 102.57 112.539 103.762 114.667C104.658 116.259 106.682 115.635 107.282 114.203C107.73 113.123 107.642 111.875 107.586 110.723L107.578 110.731Z" fill="#212527"></path>
<path d="M106.114 85.4431C105.034 84.8751 103.682 85.0351 102.49 85.0031C101.33 84.9711 100.162 84.9391 99.0025 84.8991L91.8345 84.6911C89.5145 84.6271 87.1785 84.4591 84.8585 84.5231C83.6985 84.5551 82.5385 84.5871 81.3785 84.6191C80.0905 84.6511 78.7545 84.6751 77.6025 85.3071C76.3465 85.9951 76.6905 87.8591 77.7785 88.4751C78.8425 89.0751 80.2505 89.0431 81.4345 89.0911C82.5945 89.1391 83.7625 89.1871 84.9225 89.2351C87.2985 89.3311 89.6985 89.2111 92.0825 89.1791C94.4025 89.1471 96.7225 89.1151 99.0425 89.0831C100.202 89.0671 101.362 89.0511 102.522 89.0351C103.842 89.0191 105.082 89.1311 106.29 88.5311C107.522 87.9151 107.178 85.9951 106.114 85.4351V85.4431Z" fill="#212527"></path>
<path d="M128.194 98.4911C125.338 95.7631 122.546 92.9551 119.93 90.0031C118.826 88.7551 117.738 87.5311 116.45 86.4591C114.97 85.2271 113.378 84.3711 111.466 83.9631C109.714 83.5951 108.77 85.7871 110.258 86.7711C111.514 87.6031 112.602 88.8271 113.586 89.9551C114.554 91.0671 115.594 92.4351 116.706 93.7711C119.146 96.6991 121.73 99.4831 124.53 102.091C125.514 103.011 127.234 103.123 128.202 102.091C129.146 101.083 129.242 99.4831 128.202 98.4911H128.194Z" fill="#212527"></path>
<path d="M128.954 99.8993C128.85 99.2993 128.202 98.8033 127.642 98.6753C126.25 98.3473 125.466 99.2353 124.538 100.091C123.834 100.731 123.138 101.371 122.434 102.011C120.994 103.323 119.61 104.699 118.21 106.043C116.842 107.355 115.474 108.667 114.106 109.979C113.426 110.635 112.786 111.331 112.138 112.027C111.442 112.771 110.578 113.515 110.138 114.443C109.538 115.699 110.698 117.627 112.226 116.979C113.226 116.555 113.962 115.835 114.778 115.139C115.538 114.483 116.322 113.851 117.05 113.163L121.282 109.131C122.65 107.827 124.05 106.539 125.394 105.203C126.106 104.499 126.81 103.787 127.514 103.083C127.842 102.755 128.218 102.435 128.522 102.075C129.082 101.411 129.106 100.715 128.962 99.8913L128.954 99.8993Z" fill="#212527"></path>
<path d="M75.8116 46.4169C74.4549 46.6399 73.0983 46.8731 71.7518 47.1265C71.4152 46.2345 71.0888 45.3323 70.7828 44.4301C70.6298 43.984 70.1096 43.9435 69.8138 44.2071C68.8447 45.0383 68.6101 46.4473 68.3755 47.755C66.3151 48.1605 64.2546 48.5761 62.2043 49.0322C61.4903 49.1843 61.3679 50.4007 62.0717 50.6542C63.7752 51.2725 65.55 51.607 67.2943 52.0632C66.9475 52.935 66.5905 53.8067 66.2743 54.6988C66.2743 54.6988 66.2845 54.6988 66.2947 54.6988C66.2539 54.8509 66.2743 55.0029 66.3355 55.1246C65.9886 55.5098 65.6724 55.9152 65.4072 56.3714C65.0196 57.0303 65.6316 57.9426 66.2947 57.5473C67.3249 56.9391 68.1205 55.9862 68.9875 55.1043C69.5894 54.4859 70.2014 53.8676 70.8032 53.2492C71.3132 53.4925 71.813 53.7662 72.2925 54.0804C72.3129 54.1109 72.3333 54.1311 72.3537 54.1615C72.3843 54.2224 72.4149 54.2832 72.4455 54.344C72.5577 54.567 72.7821 54.6887 73.0065 54.6076C73.5879 55.0941 74.1183 55.6517 74.5365 56.3308C74.8731 56.858 75.6586 56.27 75.3934 55.6922C74.6283 54.0703 73.9041 52.4281 73.2105 50.7657C73.4145 50.5528 73.6185 50.3501 73.8225 50.1372C74.5059 49.4377 75.2302 48.6369 76.1278 48.3227C77.1784 47.9577 76.9438 46.2142 75.8218 46.4068L75.8116 46.4169Z" fill="#DBB53E"></path>
<path d="M108.174 146.757C108.696 148.397 108.301 147.543 108.823 149.183C109.078 149.992 109.317 150.802 109.564 151.603C109.687 152.003 109.795 152.422 109.95 152.802C110.152 153.327 110.451 153.676 110.854 154.064C111.385 154.572 112.317 154.145 112.405 153.467C112.481 152.914 112.452 152.47 112.298 151.924C112.202 151.546 112.033 151.183 111.887 150.81C111.574 149.999 111.251 149.181 110.938 148.371C110.329 146.764 110.636 147.652 110.027 146.045C109.574 144.836 107.777 145.533 108.156 146.742L108.174 146.757Z" fill="#DBB53E"></path>
<path d="M100.688 155.149C100.856 150.708 100.928 151.376 100.576 146.828C100.503 145.912 99.1405 145.674 99.0013 146.506C98.3094 150.708 98.6038 150.046 98.4125 154.386C98.3914 154.988 98.7405 155.637 99.3889 155.85C99.9582 156.037 100.659 155.758 100.688 155.149Z" fill="#DBB53E"></path>
<path d="M90.5949 145.245C91.166 145.982 90.8645 147.013 90.3459 148.359C89.6262 150.467 89.1335 152.514 88.1576 154.519C87.7988 155.254 86.5007 155.18 86.4694 154.254C86.4487 153.603 86.448 152.981 86.5912 152.342C86.7139 151.774 86.9011 151.217 87.0788 150.667C87.4275 149.557 88.3489 147.434 88.3489 147.434C88.3489 147.434 88.9613 146.399 89.384 145.611C89.5491 145.303 90.2499 144.8 90.5949 145.245Z" fill="#DBB53E"></path>
</svg>