<svg width="41" height="37" viewBox="0 0 41 37" fill="none" xmlns="http://www.w3.org/2000/svg">
<path d="M38.3283 6.45787C34.669 7.06459 31.0096 7.6989 27.3777 8.38836C26.4698 5.96146 25.5893 3.50697 24.7639 1.05249C24.3512 -0.160961 22.948 -0.271275 22.1501 0.445765C19.5362 2.7072 18.9034 6.5406 18.2706 10.0982C12.7127 11.2014 7.15488 12.3321 1.62455 13.5731C-0.301431 13.9868 -0.6316 17.2962 1.26687 17.9857C5.86172 19.6679 10.6492 20.578 15.3541 21.8191C14.4186 24.1908 13.4556 26.5626 12.6027 28.9895C12.6027 28.9895 12.6302 28.9895 12.6577 28.9895C12.5476 29.4031 11.8937 30.2343 12.0588 30.5652C11.1233 31.6132 10.9793 32.2989 10.264 33.5399C9.21844 35.3325 10.8693 37.8146 12.6577 36.739C15.4366 35.0843 17.5827 32.4919 19.9214 30.0926C21.5447 28.4103 23.1956 26.728 24.8189 25.0457C26.1946 25.7076 27.5428 26.4522 28.836 27.3072C28.891 27.3899 28.8861 27.2651 28.9412 27.3478C29.0237 27.5133 29.2606 27.5845 29.3431 27.75C29.7451 28.1522 30.1471 28.5543 30.762 28.7413C32.3303 30.065 33.761 31.5818 34.8891 33.4296C35.797 34.8637 37.9156 33.2641 37.2003 31.6922C35.1367 27.2796 33.1832 22.8119 31.3122 18.289C31.8625 17.7099 32.4128 17.1583 32.9631 16.5792C34.8065 14.6762 36.76 12.4975 39.1813 11.6426C42.0152 10.6498 41.3824 5.9063 38.3558 6.43029L38.3283 6.45787Z" fill="#7242D3"></path>
</svg>