<svg width="41" height="37" viewBox="0 0 41 37" fill="none" xmlns="http://www.w3.org/2000/svg">
<path d="M2.67167 6.45787C6.33104 7.06459 9.99042 7.6989 13.6223 8.38836C14.5302 5.96146 15.4107 3.50697 16.2361 1.05249C16.6488 -0.160961 18.052 -0.271275 18.8499 0.445765C21.4638 2.7072 22.0966 6.5406 22.7294 10.0982C28.2873 11.2014 33.8451 12.3321 39.3754 13.5731C41.3014 13.9868 41.6316 17.2962 39.7331 17.9857C35.1383 19.6679 30.3508 20.578 25.6459 21.8191C26.5814 24.1908 27.5444 26.5626 28.3973 28.9895C28.3973 28.9895 28.3698 28.9895 28.3423 28.9895C28.4524 29.4031 29.1063 30.2343 28.9412 30.5652C29.8767 31.6132 30.0207 32.2989 30.736 33.5399C31.7816 35.3325 30.1307 37.8146 28.3423 36.739C25.5634 35.0843 23.4173 32.4919 21.0786 30.0926C19.4553 28.4103 17.8044 26.728 16.1811 25.0457C14.8054 25.7076 13.4572 26.4522 12.164 27.3072C12.109 27.3899 12.1139 27.2651 12.0588 27.3478C11.9763 27.5133 11.7394 27.5845 11.6569 27.75C11.2549 28.1522 10.8529 28.5543 10.238 28.7413C8.66974 30.065 7.23901 31.5818 6.11093 33.4296C5.20296 34.8637 3.08438 33.2641 3.79975 31.6922C5.8633 27.2796 7.81681 22.8119 9.68776 18.289C9.13748 17.7099 8.5872 17.1583 8.03692 16.5792C6.19347 14.6762 4.23997 12.4975 1.81874 11.6426C-1.01521 10.6498 -0.382385 5.9063 2.64416 6.43029L2.67167 6.45787Z" fill="#7242D3"></path>
</svg>