<svg width="140" height="140" viewBox="0 0 140 140" fill="none" xmlns="http://www.w3.org/2000/svg">
<path d="M4 51L37 13H103L136 51L70.5789 127L4 51Z" fill="#4FA2F7"></path>
<path d="M76 50V71H65V68.6667H73.6596V52.3333H65V50H76Z" fill="#212527"></path>
<path d="M84.5151 38L70 46.3761L55.4849 38L41 54.6496L70 86L99 54.6496L84.5151 38Z" fill="white"></path>
<path d="M38 53.7305L70 89L102 53.7305L86.0166 35L70 44.4229L53.9834 35L38 53.7305ZM70 50.2246L84.9365 41.4365L95.3408 53.6289L70 81.5586L44.6602 53.6289L55.0645 41.4365L70 50.2246Z" fill="#212527"></path>
</svg>