<svg width="230" height="230" viewBox="0 0 230 230" fill="none" xmlns="http://www.w3.org/2000/svg">
<path d="M115.126 186C154.339 186 186.126 154.212 186.126 115C186.126 75.7878 154.339 44 115.126 44C75.9142 44 44.1265 75.7878 44.1265 115C44.1265 154.212 75.9142 186 115.126 186Z" fill="#A391FF"></path>
<path d="M101.626 139C115.71 139 127.126 127.583 127.126 113.5C127.126 99.4167 115.71 88 101.626 88C87.5432 88 76.1265 99.4167 76.1265 113.5C76.1265 127.583 87.5432 139 101.626 139Z" fill="white"></path>
<path d="M189.364 104.207C188.753 96.3767 185.997 88.4213 182.879 81.2514C179.948 74.493 176.02 68.2084 170.97 62.8342C168.613 60.3278 166.019 58.021 163.138 56.1256C160.357 54.3051 157.664 52.3225 154.808 50.6142C142.774 43.4568 128.732 40.2771 114.777 41.1375C100.062 42.0478 84.9726 47.1103 72.8637 55.5645C69.7959 57.7093 66.591 59.642 63.5606 61.8241C61.2162 63.5075 63.5357 67.4478 65.8303 65.7146C68.6611 63.5823 71.5543 61.4127 74.7343 59.829C77.8768 58.2704 81.0319 56.7242 84.2742 55.39C90.7465 52.7215 97.4681 50.6017 104.364 49.3548C110.999 48.1577 117.77 47.7961 124.504 48.245C130.727 48.669 136.875 50.1653 142.774 52.1604C145.617 53.1205 148.36 54.2677 151.029 55.6269C153.66 56.9611 156.454 58.3951 158.649 60.3777C163.3 64.5923 167.765 69.0065 171.157 74.3184C174.948 80.2538 177.529 86.7878 179.362 93.5711C180.298 97.0376 180.796 100.616 181.757 104.07C182.767 107.686 183.328 111.352 183.577 115.106C184.089 122.65 183.328 130.256 180.821 137.413C178.502 144.022 174.736 150.082 170.546 155.668C162.901 165.868 153.448 174.31 141.489 179.073C134.78 181.742 125.826 182.141 118.606 182.128C110.774 182.116 103.529 180.994 96.009 178.812C88.9008 176.754 83.3888 173.599 77.0787 169.709C71.6166 166.342 66.99 161.903 63.3486 156.504C59.7072 151.105 57.0635 147.027 54.4072 140.967C51.4018 134.134 49.1447 124.582 48.0472 117.151C47.511 113.485 47.4237 109.619 47.935 105.941C48.4588 102.162 49.631 98.4715 50.8032 94.8554C52.8359 88.6083 54.8562 82.2489 58.2232 76.5754C59.8943 73.7698 61.3409 70.9392 63.4983 68.4329C63.7851 68.0962 63.4234 67.5226 62.9994 67.7845C60.3183 69.4928 57.5997 71.65 55.7541 74.281C53.7837 77.0991 52.2124 80.204 50.8032 83.3462C47.7604 90.142 44.7675 97.3368 43.1089 104.606C41.2508 112.749 42.2609 121.827 44.2063 129.857C46.1517 137.887 48.2343 143.86 51.6637 150.731C54.9185 157.24 59.5077 162.664 64.5707 167.589C70.407 173.263 76.555 177.365 83.8502 180.607C91.1455 183.849 96.5577 185.52 104.626 186.942C112.695 188.363 126.774 188.363 134.905 186.879C148.972 184.323 158.187 178.176 168.176 168.15C178.851 157.452 187.319 143.723 189.488 128.597C190.673 120.393 189.962 112.412 189.326 104.207H189.364Z" fill="#7960F4"></path>
<path d="M126.019 99.7195C122.678 94.0563 117.642 89.399 111.942 86.5673C108.356 84.779 104.868 84.8907 100.826 85.1391C97.117 85.3751 92.99 86.6046 90.4597 89.548C90.4474 89.5604 90.4352 89.5853 90.4229 89.5977C90.3369 89.6349 90.2632 89.6598 90.1772 89.697C87.7084 90.8024 85.3623 92.1809 83.2865 93.9942C79.1226 97.6206 75.8799 102.688 74.7008 108.314C73.4356 114.337 74.3446 120.609 76.6046 126.235C78.8647 131.849 82.439 136.108 87.6592 138.94C90.7791 140.629 94.6113 141.834 98.0628 141.921C101.514 142.008 104.843 142.157 108.233 141.511C111.488 140.89 114.289 139.685 117.15 137.959C119.791 136.357 122.395 134.481 124.397 132.022C131.669 123.068 131.804 109.543 126.019 99.7195ZM122.039 125.651C119.46 129.886 114.829 132.668 110.444 134.357C107.815 135.363 105.15 135.711 102.362 135.711C99.6596 135.711 96.6134 135.55 94.0218 134.742C89.6859 133.401 85.9028 130.023 83.5322 126.049C81.0756 121.925 79.7122 117.218 79.9087 112.325C80.1175 107.171 82.3407 102.439 85.7677 98.8129C87.561 96.9127 89.5385 95.1988 91.7126 93.7955C91.774 93.7582 91.8477 93.7085 91.9091 93.6713C91.9705 93.6713 92.0319 93.6961 92.0933 93.6961C93.641 93.6464 94.8693 93.3111 96.3309 92.8019C97.7558 92.3051 99.1683 91.7338 100.642 91.3488C103.173 90.6906 105.555 90.8769 108 91.8083C112.299 93.4477 116.192 96.4905 119.226 100.08C125.147 107.097 127.038 117.467 122.064 125.651H122.039Z" fill="#212527"></path>
<path d="M156.36 107.91C154.773 101.869 150.868 96.7668 145.909 93.0235C143.479 91.1951 140.814 89.7744 138 88.6131C135.099 87.4271 132.185 86.6241 129.061 87.18C127.512 87.4518 127.636 89.4532 128.664 90.1944C130.859 91.7634 133.425 92.517 135.867 93.6412C138.161 94.6913 140.417 95.9761 142.376 97.5698C146.281 100.757 149.132 105.18 149.864 110.196C150.645 115.57 149.628 119.609 147.719 124.452C146.802 126.775 143.739 129.369 141.744 130.913C139.934 132.297 137.814 133.162 135.78 134.175C134.801 134.669 133.797 135.077 132.768 135.447C131.466 135.904 130.276 136.695 129.247 137.251C128.516 137.646 127.363 137.77 127.152 138.968C126.966 140.031 127.821 140.809 128.85 140.908C129.458 140.97 130.09 140.846 130.71 140.908C131.255 140.957 131.789 141.019 132.334 140.994C133.747 140.957 135.198 140.525 136.574 140.228C139.103 139.685 141.446 138.808 143.665 137.498C148.5 134.657 152.244 130.642 154.463 125.589C155.765 122.612 156.633 119.091 157.004 115.841C157.302 113.198 157.042 110.48 156.372 107.91H156.36Z" fill="#212527"></path>
<path d="M192.35 181.205C191.581 179.273 190.811 177.341 190.011 175.408C191.166 174.598 194.541 172.868 195.726 172.089C196.318 171.699 196.199 170.92 195.726 170.562C194.216 169.424 189.952 170.484 187.998 170.593C186.755 167.663 186.429 165.513 185.111 162.63C184.652 161.632 182.891 161.866 182.758 163.004C182.447 165.762 182.18 167.694 181.514 170.499C180.152 170.281 178.805 170.063 177.443 169.907C177.443 169.907 177.443 169.923 177.443 169.938C177.206 169.938 177.014 170.016 176.851 170.141C176.185 169.767 175.504 169.44 174.764 169.206C173.698 168.863 172.617 170.094 173.387 170.936C174.601 172.26 176.2 173.117 177.739 174.084C178.82 174.769 179.9 175.455 180.981 176.141C180.803 176.982 180.581 177.824 180.285 178.634C180.256 178.665 180.226 178.712 180.196 178.743C180.122 178.805 180.048 178.883 179.96 178.946C179.678 179.195 179.59 179.569 179.767 179.881C179.279 180.925 178.642 181.891 177.828 182.764C177.191 183.449 178.287 184.415 179.012 183.808C181.07 182.109 183.157 180.457 185.304 178.837C185.674 179.07 186.029 179.288 186.399 179.522C187.628 180.301 188.99 181.096 189.745 182.327C190.618 183.776 193.002 182.81 192.38 181.205H192.35Z" fill="#7960F4"></path>
<path d="M49.6861 64.1658C47.2907 62.9725 48.6708 63.4559 46.2754 62.2626C45.0966 61.6729 43.9337 61.063 42.7729 60.4711C42.1925 60.1752 41.6079 59.8433 41.0159 59.6034C40.2118 59.2609 39.4974 59.2175 38.628 59.247C37.4874 59.2902 36.9549 60.7917 37.6167 61.6245C38.1518 62.3082 38.6774 62.7563 39.4541 63.1749C39.9807 63.4772 40.5685 63.6812 41.1425 63.9232C42.3867 64.4507 43.6487 64.976 44.8929 65.5034C47.3453 66.5625 46.0221 65.9449 48.4745 67.004C50.3149 67.8073 51.4812 65.0473 49.722 64.1616L49.6861 64.1658Z" fill="#7960F4"></path>
<path d="M45.7631 44.3896C50.5381 49.3837 49.7158 48.7406 55.1725 53.2706C56.2744 54.1811 58.0153 52.9186 57.2372 51.8623C53.2954 46.5411 53.7155 47.5863 49.0788 42.6753C48.4296 42.0001 47.3272 41.6871 46.3873 42.1801C45.5626 42.6135 45.1155 43.6969 45.7631 44.3896Z" fill="#7960F4"></path>
<path d="M70.4288 47.9389C68.9881 47.7787 68.163 46.3256 67.2222 44.29C65.6485 41.2049 63.8972 38.4396 62.7148 35.1791C62.2831 33.9833 63.7708 32.6144 64.8386 33.5821C65.5873 34.2633 66.2827 34.9362 66.841 35.7878C67.3422 36.5395 67.7611 37.3512 68.1829 38.1451C69.0441 39.7356 70.4164 43.0622 70.4164 43.0622C70.4164 43.0622 70.9092 44.8664 71.3315 46.1915C71.4964 46.709 71.2992 48.0357 70.4288 47.9389Z" fill="#7960F4"></path>
</svg>