<svg width="200" height="200" viewBox="0 0 200 200" fill="none" xmlns="http://www.w3.org/2000/svg">
<path d="M99.88 145.688C125.064 145.688 145.48 125.272 145.48 100.088C145.48 74.9036 125.064 54.4878 99.88 54.4878C74.6958 54.4878 54.28 74.9036 54.28 100.088C54.28 125.272 74.6958 145.688 99.88 145.688Z" fill="#A391FF"></path>
<path d="M91.5279 115.896C100.585 115.896 107.928 108.553 107.928 99.496C107.928 90.4385 100.585 83.0959 91.5279 83.0959C82.4705 83.0959 75.1279 90.4385 75.1279 99.496C75.1279 108.553 82.4705 115.896 91.5279 115.896Z" fill="white"></path>
<path d="M147.512 93.3437C147.12 88.3197 145.352 83.2157 143.352 78.6157C141.472 74.2797 138.952 70.2477 135.712 66.7997C134.2 65.1917 132.536 63.7117 130.688 62.4957C128.904 61.3277 127.176 60.0557 125.344 58.9597C117.624 54.3677 108.616 52.3277 99.6641 52.8797C90.2241 53.4637 80.5441 56.7117 72.7761 62.1357C70.8081 63.5117 68.7521 64.7517 66.8081 66.1517C65.3041 67.2317 66.7921 69.7597 68.2641 68.6477C70.0801 67.2797 71.9361 65.8877 73.9761 64.8717C75.9921 63.8717 78.0161 62.8797 80.0961 62.0237C84.2481 60.3117 88.5601 58.9517 92.9841 58.1517C97.2401 57.3837 101.584 57.1517 105.904 57.4397C109.896 57.7117 113.84 58.6717 117.624 59.9517C119.448 60.5677 121.208 61.3037 122.92 62.1757C124.608 63.0317 126.4 63.9517 127.808 65.2237C130.792 67.9277 133.656 70.7597 135.832 74.1677C138.264 77.9757 139.92 82.1677 141.096 86.5197C141.696 88.7437 142.016 91.0397 142.632 93.2557C143.28 95.5757 143.64 97.9277 143.8 100.336C144.128 105.176 143.64 110.056 142.032 114.648C140.544 118.888 138.128 122.776 135.44 126.36C130.536 132.904 124.472 138.32 116.8 141.376C112.496 143.088 106.752 143.344 102.12 143.336C97.0961 143.328 92.4481 142.608 87.6241 141.208C83.0641 139.888 79.5281 137.864 75.4801 135.368C71.9761 133.208 69.0081 130.36 66.6721 126.896C64.3361 123.432 62.6401 120.816 60.9361 116.928C59.0081 112.544 57.5601 106.416 56.8561 101.648C56.5121 99.2957 56.4561 96.8157 56.7841 94.4557C57.1201 92.0317 57.8721 89.6637 58.6241 87.3437C59.9281 83.3357 61.2241 79.2557 63.3841 75.6157C64.4561 73.8157 65.3841 71.9997 66.7681 70.3917C66.9521 70.1757 66.7201 69.8077 66.4481 69.9757C64.7281 71.0717 62.9841 72.4557 61.8001 74.1437C60.5361 75.9517 59.5281 77.9437 58.6241 79.9597C56.6721 84.3197 54.7521 88.9357 53.6881 93.5997C52.4961 98.8237 53.1441 104.648 54.3921 109.8C55.6401 114.952 56.9761 118.784 59.1761 123.192C61.2641 127.368 64.2081 130.848 67.4561 134.008C71.2001 137.648 75.1441 140.28 79.8241 142.36C84.5041 144.44 87.9761 145.512 93.1521 146.424C98.3281 147.336 107.36 147.336 112.576 146.384C121.6 144.744 127.512 140.8 133.92 134.368C140.768 127.504 146.2 118.696 147.592 108.992C148.352 103.728 147.896 98.6077 147.488 93.3437H147.512Z" fill="#7960F4"></path>
<path d="M107.096 90.3998C104.92 86.7518 101.64 83.7518 97.9279 81.9278C95.5919 80.7758 93.3199 80.8478 90.6879 81.0078C88.2719 81.1598 85.5839 81.9518 83.9359 83.8478C83.9279 83.8558 83.9199 83.8718 83.9119 83.8798C83.8559 83.9038 83.8079 83.9198 83.7519 83.9438C82.1439 84.6558 80.6159 85.5438 79.2639 86.7118C76.5519 89.0478 74.4399 92.3118 73.6719 95.9358C72.8479 99.8158 73.4399 103.856 74.9119 107.48C76.3839 111.096 78.7119 113.84 82.1119 115.664C84.1439 116.752 86.6399 117.528 88.8879 117.584C91.1359 117.64 93.3039 117.736 95.5119 117.32C97.6319 116.92 99.4559 116.144 101.32 115.032C103.04 114 104.736 112.792 106.04 111.208C110.776 105.44 110.864 96.7278 107.096 90.3998ZM104.504 107.104C102.824 109.832 99.8079 111.624 96.9519 112.712C95.2399 113.36 93.5039 113.584 91.6879 113.584C89.9279 113.584 87.9439 113.48 86.2559 112.96C83.4319 112.096 80.9679 109.92 79.4239 107.36C77.8239 104.704 76.9359 101.672 77.0639 98.5198C77.1999 95.1998 78.6479 92.1518 80.8799 89.8158C82.0479 88.5918 83.3359 87.4878 84.7519 86.5838C84.7919 86.5598 84.8399 86.5278 84.8799 86.5038C84.9199 86.5038 84.9599 86.5198 84.9999 86.5198C86.0079 86.4878 86.8079 86.2718 87.7599 85.9438C88.6879 85.6238 89.6079 85.2558 90.5679 85.0078C92.2159 84.5838 93.7679 84.7038 95.3599 85.3038C98.1599 86.3598 100.696 88.3198 102.672 90.6318C106.528 95.1518 107.76 101.832 104.52 107.104H104.504Z" fill="#212527"></path>
<path d="M126.728 95.712C125.704 91.8 123.184 88.496 119.984 86.072C118.416 84.888 116.696 83.968 114.88 83.216C113.008 82.448 111.128 81.928 109.112 82.288C108.112 82.464 108.192 83.76 108.856 84.24C110.272 85.256 111.928 85.744 113.504 86.472C114.984 87.152 116.44 87.984 117.704 89.016C120.224 91.08 122.064 93.9439 122.536 97.1919C123.04 100.672 122.384 103.288 121.152 106.424C120.56 107.928 118.584 109.608 117.296 110.608C116.128 111.504 114.76 112.064 113.448 112.72C112.816 113.04 112.168 113.304 111.504 113.544C110.664 113.84 109.896 114.352 109.232 114.712C108.76 114.968 108.016 115.048 107.88 115.824C107.76 116.512 108.312 117.016 108.976 117.08C109.368 117.12 109.776 117.04 110.176 117.08C110.528 117.112 110.872 117.152 111.224 117.136C112.136 117.112 113.072 116.832 113.96 116.64C115.592 116.288 117.104 115.72 118.536 114.872C121.656 113.032 124.072 110.432 125.504 107.16C126.344 105.232 126.904 102.952 127.144 100.848C127.336 99.1359 127.168 97.376 126.736 95.712H126.728Z" fill="#212527"></path>
<path d="M149.704 142.528C149.196 141.334 148.687 140.139 148.159 138.944C148.922 138.444 151.152 137.374 151.935 136.893C152.326 136.652 152.248 136.17 151.935 135.948C150.937 135.245 148.12 135.9 146.828 135.968C146.006 134.157 145.791 132.827 144.92 131.045C144.617 130.428 143.453 130.573 143.365 131.276C143.159 132.981 142.983 134.176 142.543 135.91C141.643 135.775 140.753 135.64 139.853 135.544C139.853 135.544 139.853 135.553 139.853 135.563C139.696 135.563 139.569 135.611 139.461 135.688C139.021 135.457 138.571 135.255 138.082 135.11C137.378 134.898 136.663 135.659 137.172 136.18C137.974 136.998 139.031 137.528 140.048 138.126C140.763 138.549 141.477 138.973 142.191 139.397C142.073 139.917 141.927 140.438 141.731 140.939C141.712 140.958 141.692 140.987 141.672 141.006C141.623 141.045 141.575 141.093 141.516 141.131C141.33 141.285 141.271 141.517 141.389 141.709C141.066 142.355 140.645 142.952 140.107 143.491C139.686 143.915 140.41 144.513 140.89 144.137C142.25 143.087 143.629 142.066 145.048 141.064C145.292 141.208 145.527 141.343 145.772 141.488C146.584 141.969 147.484 142.461 147.983 143.222C148.56 144.118 150.135 143.52 149.724 142.528H149.704Z" fill="#7960F4"></path>
<path d="M57.8566 67.4607C56.316 66.6932 57.2036 67.0041 55.663 66.2367C54.9049 65.8574 54.157 65.4652 53.4104 65.0845C53.0372 64.8942 52.6612 64.6807 52.2804 64.5264C51.7633 64.3062 51.3039 64.2782 50.7447 64.2972C50.0111 64.325 49.6687 65.2907 50.0943 65.8263C50.4385 66.266 50.7765 66.5542 51.276 66.8234C51.6147 67.0178 51.9927 67.149 52.3619 67.3047C53.162 67.6439 53.9737 67.9817 54.7739 68.321C56.3511 69.0021 55.5001 68.6049 57.0773 69.286C58.2609 69.8027 59.011 68.0276 57.8796 67.458L57.8566 67.4607Z" fill="#7960F4"></path>
<path d="M55.3335 54.742C58.4045 57.9539 57.8756 57.5403 61.385 60.4537C62.0936 61.0393 63.2133 60.2273 62.7129 59.548C60.1778 56.1257 60.4479 56.798 57.4659 53.6395C57.0484 53.2053 56.3394 53.004 55.735 53.321C55.2045 53.5997 54.917 54.2966 55.3335 54.742Z" fill="#7960F4"></path>
<path d="M71.197 57.0246C70.2704 56.9215 69.7397 55.987 69.1347 54.6779C68.1226 52.6937 66.9963 50.9152 66.2358 48.8183C65.9582 48.0492 66.915 47.1689 67.6017 47.7912C68.0832 48.2293 68.5305 48.6621 68.8895 49.2098C69.2118 49.6933 69.4813 50.2153 69.7525 50.7259C70.3064 51.7488 71.189 53.8882 71.189 53.8882C71.189 53.8882 71.5059 55.0486 71.7775 55.9008C71.8836 56.2336 71.7567 57.0868 71.197 57.0246Z" fill="#7960F4"></path>
</svg>