<svg width="140" height="140" viewBox="0 0 140 140" fill="none" xmlns="http://www.w3.org/2000/svg">
<path d="M69.6001 127.79C101.08 127.79 126.6 102.27 126.6 70.79C126.6 39.3098 101.08 13.79 69.6001 13.79C38.1199 13.79 12.6001 39.3098 12.6001 70.79C12.6001 102.27 38.1199 127.79 69.6001 127.79Z" fill="#A391FF"></path>
<path d="M59.1602 90.5501C70.482 90.5501 79.6602 81.3719 79.6602 70.0501C79.6602 58.7282 70.482 49.55 59.1602 49.55C47.8383 49.55 38.6602 58.7282 38.6602 70.0501C38.6602 81.3719 47.8383 90.5501 59.1602 90.5501Z" fill="white"></path>
<path d="M129.14 62.3599C128.65 56.0799 126.44 49.6999 123.94 43.9499C121.59 38.5299 118.44 33.4899 114.39 29.1799C112.5 27.1699 110.42 25.3199 108.11 23.7999C105.88 22.3399 103.72 20.7499 101.43 19.3799C91.7801 13.6399 80.5201 11.0899 69.3301 11.7799C57.5301 12.5099 45.4301 16.5699 35.7201 23.3499C33.2601 25.0699 30.6901 26.6199 28.2601 28.3699C26.3801 29.7199 28.2401 32.8799 30.0801 31.4899C32.3501 29.7799 34.6701 28.0399 37.2201 26.7699C39.7401 25.5199 42.2701 24.2799 44.8701 23.2099C50.0601 21.0699 55.4501 19.3699 60.9801 18.3699C66.3001 17.4099 71.7301 17.1199 77.1301 17.4799C82.1201 17.8199 87.0501 19.0199 91.7801 20.6199C94.0601 21.3899 96.2601 22.3099 98.4001 23.3999C100.51 24.4699 102.75 25.6199 104.51 27.2099C108.24 30.5899 111.82 34.1299 114.54 38.3899C117.58 43.1499 119.65 48.3899 121.12 53.8299C121.87 56.6099 122.27 59.4799 123.04 62.2499C123.85 65.1499 124.3 68.0899 124.5 71.0999C124.91 77.1499 124.3 83.2499 122.29 88.9899C120.43 94.2899 117.41 99.1499 114.05 103.63C107.92 111.81 100.34 118.58 90.7501 122.4C85.3701 124.54 78.1901 124.86 72.4001 124.85C66.1201 124.84 60.3101 123.94 54.2801 122.19C48.5801 120.54 44.1601 118.01 39.1001 114.89C34.7201 112.19 31.0101 108.63 28.0901 104.3C25.1701 99.9699 23.0501 96.6999 20.9201 91.8399C18.5101 86.3599 16.7001 78.6999 15.8201 72.7399C15.3901 69.7999 15.3201 66.6999 15.7301 63.7499C16.1501 60.7199 17.0901 57.7599 18.0301 54.8599C19.6601 49.8499 21.2801 44.7499 23.9801 40.1999C25.3201 37.9499 26.4801 35.6799 28.2101 33.6699C28.4401 33.3999 28.1501 32.9399 27.8101 33.1499C25.6601 34.5199 23.4801 36.2499 22.0001 38.3599C20.4201 40.6199 19.1601 43.1099 18.0301 45.6299C15.5901 51.0799 13.1901 56.8499 11.8601 62.6799C10.3701 69.2099 11.1801 76.4899 12.7401 82.9299C14.3001 89.3699 15.9701 94.1599 18.7201 99.6699C21.3301 104.89 25.0101 109.24 29.0701 113.19C33.7501 117.74 38.6801 121.03 44.5301 123.63C50.3801 126.23 54.7201 127.57 61.1901 128.71C67.6601 129.85 78.9501 129.85 85.4701 128.66C96.7501 126.61 104.14 121.68 112.15 113.64C120.71 105.06 127.5 94.0499 129.24 81.9199C130.19 75.3399 129.62 68.9399 129.11 62.3599H129.14Z" fill="#7960F4"></path>
<path d="M78.6201 58.6799C75.9001 54.1199 71.8001 50.3699 67.1601 48.0899C64.2401 46.6499 61.4001 46.7399 58.1101 46.9399C55.0901 47.1299 51.7301 48.1199 49.6701 50.4899C49.6601 50.4999 49.6501 50.5199 49.6401 50.5299C49.5701 50.5599 49.5101 50.5799 49.4401 50.6099C47.4301 51.4999 45.5201 52.6099 43.8301 54.0699C40.4401 56.9899 37.8001 61.0699 36.8401 65.5999C35.8101 70.4499 36.5501 75.4999 38.3901 80.0299C40.2301 84.5499 43.1401 87.9799 47.3901 90.2599C49.9301 91.6199 53.0501 92.5899 55.8601 92.6599C58.6701 92.7299 61.3801 92.8499 64.1401 92.3299C66.7901 91.8299 69.0701 90.8599 71.4001 89.4699C73.5501 88.1799 75.6701 86.6699 77.3001 84.6899C83.2201 77.4799 83.3301 66.5899 78.6201 58.6799ZM75.3801 79.5599C73.2801 82.9699 69.5101 85.2099 65.9401 86.5699C63.8001 87.3799 61.6301 87.6599 59.3601 87.6599C57.1601 87.6599 54.6801 87.5299 52.5701 86.8799C49.0401 85.7999 45.9601 83.0799 44.0301 79.8799C42.0301 76.5599 40.9201 72.7699 41.0801 68.8299C41.2501 64.6799 43.0601 60.8699 45.8501 57.9499C47.3101 56.4199 48.9201 55.0399 50.6901 53.9099C50.7401 53.8799 50.8001 53.8399 50.8501 53.8099C50.9001 53.8099 50.9501 53.8299 51.0001 53.8299C52.2601 53.7899 53.2601 53.5199 54.4501 53.1099C55.6101 52.7099 56.7601 52.2499 57.9601 51.9399C60.0201 51.4099 61.9601 51.5599 63.9501 52.3099C67.4501 53.6299 70.6201 56.0799 73.0901 58.9699C77.9101 64.6199 79.4501 72.9699 75.4001 79.5599H75.3801Z" fill="#212527"></path>
<path d="M103.16 65.32C101.88 60.43 98.7302 56.3 94.7302 53.27C92.7702 51.79 90.6202 50.64 88.3502 49.7C86.0102 48.74 83.6602 48.09 81.1402 48.54C79.8902 48.76 79.9902 50.38 80.8202 50.98C82.5902 52.25 84.6602 52.86 86.6302 53.77C88.4802 54.62 90.3002 55.66 91.8802 56.95C95.0302 59.53 97.3302 63.11 97.9202 67.17C98.5502 71.52 97.7302 74.79 96.1902 78.71C95.4502 80.59 92.9802 82.69 91.3702 83.94C89.9102 85.06 88.2002 85.76 86.5602 86.58C85.7702 86.98 84.9602 87.31 84.1302 87.61C83.0802 87.98 82.1202 88.62 81.2902 89.07C80.7002 89.39 79.7702 89.49 79.6002 90.46C79.4502 91.32 80.1402 91.95 80.9702 92.03C81.4602 92.08 81.9702 91.98 82.4702 92.03C82.9102 92.07 83.3402 92.12 83.7802 92.1C84.9202 92.07 86.0902 91.72 87.2002 91.48C89.2402 91.04 91.1302 90.33 92.9202 89.27C96.8202 86.97 99.8402 83.72 101.63 79.63C102.68 77.22 103.38 74.37 103.68 71.74C103.92 69.6 103.71 67.4 103.17 65.32H103.16Z" fill="#212527"></path>
<path d="M131.881 123.84C131.245 122.347 130.609 120.854 129.948 119.361C130.902 118.735 133.69 117.398 134.669 116.796C135.158 116.495 135.06 115.893 134.669 115.616C133.421 114.737 129.899 115.556 128.285 115.64C127.258 113.376 126.989 111.714 125.901 109.487C125.521 108.716 124.066 108.897 123.956 109.776C123.699 111.907 123.479 113.4 122.929 115.568C121.804 115.399 120.691 115.231 119.566 115.11C119.566 115.11 119.566 115.122 119.566 115.134C119.37 115.134 119.211 115.194 119.077 115.291C118.526 115.002 117.964 114.749 117.352 114.568C116.472 114.303 115.579 115.255 116.215 115.905C117.218 116.928 118.539 117.591 119.81 118.337C120.703 118.867 121.596 119.397 122.489 119.927C122.342 120.577 122.158 121.227 121.914 121.853C121.889 121.878 121.865 121.914 121.84 121.938C121.779 121.986 121.718 122.046 121.645 122.094C121.412 122.287 121.339 122.576 121.486 122.817C121.082 123.624 120.556 124.37 119.884 125.045C119.358 125.574 120.263 126.321 120.862 125.851C122.562 124.539 124.286 123.262 126.06 122.01C126.365 122.191 126.659 122.359 126.964 122.54C127.979 123.142 129.105 123.756 129.728 124.707C130.45 125.827 132.419 125.081 131.905 123.84H131.881Z" fill="#7960F4"></path>
<path d="M17.0707 30.0061C15.1449 29.0468 16.2544 29.4355 14.3287 28.4761C13.3811 28.002 12.4462 27.5117 11.513 27.0359C11.0464 26.798 10.5764 26.5312 10.1005 26.3383C9.45404 26.063 8.87977 26.0281 8.18082 26.0518C7.26388 26.0865 6.83581 27.2936 7.36782 27.9631C7.79802 28.5128 8.22054 28.873 8.84493 29.2095C9.26827 29.4525 9.74078 29.6165 10.2023 29.8111C11.2025 30.2351 12.2171 30.6575 13.2173 31.0815C15.1888 31.9329 14.125 31.4364 16.0966 32.2878C17.5761 32.9336 18.5137 30.7148 17.0995 30.0028L17.0707 30.0061Z" fill="#7960F4"></path>
<path d="M13.917 14.1078C17.7557 18.1227 17.0946 17.6057 21.4814 21.2474C22.3672 21.9794 23.7668 20.9644 23.1412 20.1153C19.9723 15.8375 20.31 16.6777 16.5825 12.7297C16.0606 12.1869 15.1743 11.9353 14.4188 12.3316C13.7557 12.68 13.3964 13.551 13.917 14.1078Z" fill="#7960F4"></path>
<path d="M33.7461 16.961C32.5879 16.8322 31.9246 15.664 31.1683 14.0276C29.9031 11.5474 28.4953 9.32428 27.5447 6.70313C27.1976 5.74179 28.3937 4.64133 29.2521 5.41928C29.854 5.96692 30.413 6.50787 30.8619 7.19252C31.2647 7.79683 31.6015 8.44933 31.9406 9.08755C32.633 10.3662 33.7362 13.0405 33.7362 13.0405C33.7362 13.0405 34.1323 14.491 34.4718 15.5562C34.6044 15.9722 34.4458 17.0388 33.7461 16.961Z" fill="#7960F4"></path>
</svg>