<svg width="140" height="140" viewBox="0 0 140 140" fill="none" xmlns="http://www.w3.org/2000/svg">
<path d="M17.6538 55.1104L44.0538 24.7104H96.8538L123.254 55.1104L70.9178 115.91L17.6538 55.1104Z" fill="#4FA2F7"></path>
<path d="M48.8378 57.8625L71.0378 82.4065L93.2458 57.8625L83.3338 44.8145L72.0538 51.4545L71.0378 52.0545L70.0218 51.4545L58.7418 44.8145L48.8298 57.8625H48.8378Z" fill="white"></path>
<path d="M122.286 52.9584C121.766 52.3904 121.894 52.4064 121.398 51.9024C120.79 51.2784 120.254 50.4864 119.718 49.9264C118.806 48.9744 117.894 47.5904 116.91 46.4784C114.87 44.1664 113.262 42.4544 111.318 39.7344C109.374 37.0144 107.726 34.2144 105.726 31.5184C103.654 28.7264 101.446 24.8464 98.2458 23.3904C97.0378 22.8384 95.6698 22.9264 94.8138 24.0944C94.0538 25.1344 94.0298 26.7344 95.0218 27.6704C95.5818 28.1984 96.1338 28.6944 96.7338 29.1744C96.5178 29.0064 97.0538 29.4464 97.1258 29.5024C97.4058 29.7424 97.6698 29.9824 97.9418 30.2304C98.9338 31.1584 99.8458 32.1664 100.71 33.2224C101.454 34.1344 102.03 34.9904 102.822 36.0944C103.718 37.3584 104.454 38.3104 105.222 39.3984C108.414 43.9344 111.238 47.4864 114.894 51.5584C115.95 52.7264 116.526 53.3744 117.862 54.8704C118.086 55.1184 118.382 55.3984 118.606 55.6704C115.862 58.4944 113.846 61.5344 111.294 64.5344C107.894 68.5184 104.878 72.8224 101.47 76.8064C98.0778 80.7664 94.8538 84.6544 91.3498 88.5104C87.7738 92.4464 83.8538 97.1424 80.6698 101.414C77.1898 106.094 73.6618 109.974 71.2378 115.326C70.9258 116.022 71.6938 116.678 72.2778 116.15C76.1178 112.718 79.7738 108.734 83.0058 104.718C86.2618 100.678 89.8058 96.7344 93.2378 92.8624C96.6938 88.9584 99.7818 85.1904 103.27 81.3184C106.798 77.4064 109.71 72.9984 112.99 68.8704C116.558 64.3744 119.566 60.7504 123.446 56.5584C124.398 55.5264 123.318 54.0944 122.278 52.9584H122.286Z" fill="#2E88D8"></path>
<path d="M41.4299 25.8863C41.8539 25.2303 42.3019 24.9263 43.1739 24.6623C43.9419 24.4303 44.6939 24.1823 45.4459 23.9263C47.1739 23.3423 49.0379 23.1743 50.8859 22.9423C54.8299 22.4383 58.4219 22.4783 61.9819 22.4303C69.2699 22.3343 76.4699 22.2783 83.7499 22.4783L89.9259 22.6463C92.1339 22.7103 94.5019 22.6543 96.6619 23.0623C99.2859 23.5503 99.4619 27.0063 96.6619 27.4063C94.7259 27.6783 92.6939 27.6063 90.7259 27.5663C88.9339 27.5343 87.1419 27.5023 85.3499 27.4783C81.6859 27.4143 78.0139 27.3663 74.3499 27.3663C67.2459 27.3663 60.1419 27.5183 53.0379 27.5903C51.0539 27.6063 49.0619 27.6703 47.0779 27.5823C46.0539 27.5343 45.0459 27.3823 44.0219 27.3583C42.9819 27.3343 42.3499 27.1903 41.5579 26.6383C41.2859 26.4463 41.2779 26.1183 41.4379 25.8863H41.4299Z" fill="#2E88D8"></path>
<path d="M43.118 24.7983C42.342 24.9423 41.742 25.6063 41.126 26.1103C40.454 26.6543 39.814 27.2223 39.182 27.8223C37.99 28.9503 36.894 30.1983 35.782 31.4143C33.63 33.7663 31.518 36.1423 29.502 38.6223C27.486 41.1023 25.502 43.6063 23.558 46.1503C22.55 47.4703 21.55 48.7983 20.566 50.1263C19.574 51.4703 18.126 52.9503 17.662 54.5983C17.166 56.3583 19.174 57.7503 20.574 56.8543C21.91 55.9983 22.862 54.2063 23.838 52.9343C24.774 51.7103 25.718 50.4943 26.67 49.2863C28.686 46.7343 30.742 44.2143 32.83 41.7263C34.886 39.2863 36.91 36.8143 38.974 34.3823C40.006 33.1663 41.086 31.9903 42.07 30.7343C42.606 30.0463 43.118 29.3503 43.622 28.6303C44.086 27.9663 44.686 27.3423 44.814 26.5103C44.99 25.3663 44.166 24.6143 43.126 24.8063L43.118 24.7983Z" fill="#2E88D8"></path>
<path d="M72.2139 114.03C70.4139 112.062 68.6139 110.086 66.8139 108.118C65.9579 107.182 65.0779 106.27 64.2459 105.31C63.3339 104.262 62.5499 103.11 61.6699 102.038C58.4379 98.1262 55.1899 94.2702 52.1419 90.2142C45.8699 81.8782 38.7499 74.1502 31.8939 66.2702C29.9659 64.0542 28.0299 61.8382 26.1019 59.6142C25.0939 58.4542 24.0059 57.3743 22.9259 56.2783C21.8379 55.1663 20.7819 54.1502 19.3259 53.5262C18.3499 53.1102 17.3979 54.2062 17.6219 55.0942C17.9499 56.4222 18.7259 57.4782 19.5499 58.5662C20.3579 59.6382 21.1419 60.7342 21.9819 61.7742C23.6539 63.8542 25.4619 65.8382 27.1979 67.8622C30.5899 71.8222 33.9819 75.7823 37.3739 79.7423C40.7899 83.7343 44.3019 87.6543 47.5419 91.7903C49.1099 93.7983 50.6219 95.8462 52.2299 97.8302C53.8139 99.7822 55.5739 101.598 57.3179 103.406C59.3339 105.494 61.5339 107.39 63.5259 109.51C65.6299 111.742 67.7339 113.982 69.8379 116.214C71.2699 117.734 73.6299 115.558 72.2219 114.022L72.2139 114.03Z" fill="#2E88D8"></path>
<path d="M84.3738 44.6462C84.2058 43.6942 83.3018 43.0222 82.2938 43.0222C81.3818 43.0222 80.4939 43.6142 79.7099 44.0062C78.2699 44.7262 76.9098 45.5742 75.5258 46.3822C74.1418 47.1902 72.7578 48.0062 71.3738 48.8142C71.3498 48.8302 71.3339 48.8382 71.3099 48.8462C71.2219 48.8142 71.1258 48.7742 71.0458 48.7182C70.3818 48.3182 69.7338 47.9102 69.0618 47.5342C67.7098 46.7902 66.3018 46.1262 64.8938 45.4942C63.5098 44.8702 62.0058 44.0462 60.5178 43.7102C58.3978 43.2302 57.1818 44.8222 55.9898 46.2062C54.9018 47.4622 53.7178 48.5982 52.6778 49.8942C51.5418 51.3102 50.2698 52.4702 49.4618 53.8462C49.0778 54.5022 48.7258 55.1582 48.4218 55.8542C48.1178 56.5582 47.6938 57.2942 47.6938 58.0702C47.6938 58.4542 48.8938 58.8622 49.2298 58.7102C49.7818 58.4542 50.1578 57.9902 50.5818 57.5742C51.1338 57.0302 51.6618 56.4942 52.1818 55.9262C53.1418 54.8622 54.1658 53.8622 55.1418 52.8142C56.1258 51.7582 57.1418 50.7342 58.1898 49.7422C58.6778 49.2862 59.1658 48.8302 59.6698 48.3822C59.7258 48.3342 59.8058 48.2702 59.8858 48.2142C59.9498 48.2462 60.0138 48.2702 60.0778 48.3022C62.8698 49.6222 65.5178 50.7582 68.1658 52.3342C69.1738 52.9342 70.3418 53.7662 71.4058 53.7422C72.3098 53.7262 72.4218 53.5102 73.0858 53.1422C74.4218 52.3902 75.5178 51.6462 76.7578 50.8862C78.1178 50.0462 79.5898 49.3582 81.1178 48.4782C82.4858 47.6862 84.7018 46.4622 84.3738 44.6462Z" fill="#212527"></path>
<path d="M94.59 56.6464C93.886 55.4704 93.038 54.3584 92.238 53.2464C91.462 52.1584 90.686 51.0704 89.854 50.0304C89.022 48.9824 88.174 47.9424 87.318 46.9184C86.406 45.8304 85.414 44.4464 84.126 43.7984C82.87 43.1664 81.558 44.4144 81.942 45.7184C82.334 47.0384 83.43 48.2304 84.254 49.3104C85.038 50.3424 85.806 51.3744 86.558 52.4224C87.318 53.4704 88.102 54.4944 88.87 55.5344C89.686 56.6464 90.43 57.8144 91.286 58.8944C91.958 59.7424 93.11 60.0864 94.054 59.4464C94.99 58.8144 95.158 57.5904 94.598 56.6544L94.59 56.6464Z" fill="#212527"></path>
<path d="M92.3578 57.5985C90.1338 59.2945 88.3098 61.3985 86.3818 63.3825C84.4538 65.3745 82.4298 67.2865 80.5578 69.3265C78.7258 71.3265 76.8778 73.3185 75.0538 75.3265C74.1418 76.3345 73.2298 77.3345 72.3098 78.3345C71.3258 79.4145 69.9258 80.5425 69.2778 81.8305C68.3658 83.6385 70.3018 85.9425 72.3338 84.7425C73.5898 83.9985 74.5578 82.7105 75.5498 81.6705C76.5258 80.6465 77.5018 79.6145 78.4778 78.5825C80.3818 76.5585 82.2458 74.5025 84.0938 72.4305C85.9498 70.3585 87.6298 68.1265 89.3818 65.9745C91.1738 63.7665 93.1018 61.6145 94.4778 59.1425C95.2218 57.7985 93.5338 56.7105 92.3738 57.5905L92.3578 57.5985Z" fill="#212527"></path>
<path d="M72.6298 81.0864C71.1578 78.6224 68.9258 76.5584 67.0298 74.4464L61.3338 68.1184C59.4858 66.0624 57.6378 64.0144 55.7498 62.0064C54.7498 60.9504 53.7738 59.8704 52.7578 58.8304C51.7258 57.7744 50.6458 57.0864 49.3018 56.5504C48.3658 56.1744 47.5098 57.3024 47.7498 58.1904C48.5178 61.0064 50.6218 63.0384 52.4138 65.2064C54.2298 67.3984 56.0858 69.5504 57.9498 71.7024C59.7578 73.7904 61.5738 75.8784 63.3818 77.9744C65.3098 80.1984 67.1338 82.6544 69.4538 84.4544C71.3978 85.9744 73.7978 83.0304 72.6378 81.0944L72.6298 81.0864Z" fill="#212527"></path>
<path d="M32.4908 106.01C33.5474 105.129 34.6041 104.238 35.6505 103.337C36.3821 103.959 37.1136 104.591 37.8349 105.233C38.1905 105.554 38.6579 105.326 38.79 104.943C39.2065 103.71 38.7189 102.353 38.2617 101.068C39.8466 99.6699 41.4113 98.261 42.9556 96.8211C43.4941 96.3238 42.9962 95.1843 42.2545 95.319C40.4765 95.6401 38.7697 96.2202 37.0425 96.7071C36.9104 95.754 36.7885 94.8113 36.6056 93.8583C36.6056 93.8583 36.5954 93.8583 36.5853 93.8583C36.5446 93.7029 36.4532 93.5786 36.3414 93.5061C36.443 92.9881 36.5141 92.4701 36.5243 91.9314C36.5243 91.1545 35.5489 90.6573 35.173 91.3306C34.5837 92.3976 34.3704 93.6304 34.0656 94.8528C33.8522 95.7126 33.6389 96.5621 33.4153 97.4219C32.8565 97.4737 32.2876 97.4737 31.7186 97.4323C31.6881 97.4219 31.6577 97.4115 31.6272 97.3908C31.5662 97.3494 31.5053 97.3183 31.4545 97.2769C31.2411 97.1318 30.9871 97.1422 30.8347 97.3287C30.093 97.194 29.3513 96.9557 28.6503 96.5724C28.1016 96.272 27.7054 97.194 28.2236 97.5669C29.6866 98.6132 31.1293 99.7113 32.5619 100.83C32.4908 101.12 32.4196 101.41 32.3485 101.69C32.1047 102.664 31.8812 103.731 31.2614 104.466C30.5299 105.326 31.6069 106.745 32.4806 106.01H32.4908Z" fill="#2E88D8"></path>
<path d="M117.775 38.9633C119.424 38.4691 118.496 38.6245 120.145 38.1302C120.957 37.8853 121.76 37.626 122.561 37.3779C122.961 37.2538 123.368 37.1074 123.769 37.0201C124.316 36.891 124.774 36.9416 125.321 37.0554C126.04 37.2075 126.213 38.2174 125.702 38.6728C125.288 39.0476 124.906 39.2741 124.368 39.4544C124.002 39.5884 123.607 39.6534 123.216 39.744C122.37 39.9422 121.513 40.1371 120.667 40.3353C118.997 40.7383 119.903 40.4916 118.233 40.8946C116.978 41.2024 116.541 39.3257 117.753 38.9567L117.775 38.9633Z" fill="#2E88D8"></path>
<path d="M122.553 26.6262C119.076 29.394 119.656 29.0556 115.786 31.4685C115.004 31.953 114.005 30.9974 114.592 30.3918C117.566 27.3432 117.208 27.9728 120.589 25.2458C121.061 24.8719 121.791 24.7682 122.347 25.164C122.835 25.5117 123.026 26.241 122.553 26.6262Z" fill="#2E88D8"></path>
<path d="M106.798 26.6124C107.73 26.5758 108.326 25.6816 109.023 24.4189C110.174 22.5122 111.424 20.8186 112.333 18.7814C112.664 18.0341 111.773 17.0876 111.044 17.6594C110.532 18.062 110.055 18.4617 109.658 18.9824C109.302 19.4416 108.996 19.943 108.689 20.4329C108.063 21.4137 107.03 23.4846 107.03 23.4846C107.03 23.4846 106.631 24.6194 106.299 25.45C106.17 25.7744 106.235 26.6345 106.798 26.6124Z" fill="#2E88D8"></path>
</svg>