<svg width="200" height="200" viewBox="0 0 200 200" fill="none" xmlns="http://www.w3.org/2000/svg">
<path d="M47.6538 85.1104L74.0538 54.7104H126.854L153.254 85.1104L100.918 145.91L47.6538 85.1104Z" fill="#4FA2F7"></path>
<path d="M78.8378 87.8625L101.038 112.406L123.246 87.8625L113.334 74.8145L102.054 81.4545L101.038 82.0545L100.022 81.4545L88.7418 74.8145L78.8298 87.8625H78.8378Z" fill="white"></path>
<path d="M152.286 82.9584C151.766 82.3904 151.894 82.4064 151.398 81.9024C150.79 81.2784 150.254 80.4864 149.718 79.9264C148.806 78.9744 147.894 77.5904 146.91 76.4784C144.87 74.1664 143.262 72.4544 141.318 69.7344C139.374 67.0144 137.726 64.2144 135.726 61.5184C133.654 58.7264 131.446 54.8464 128.246 53.3904C127.038 52.8384 125.67 52.9264 124.814 54.0944C124.054 55.1344 124.03 56.7344 125.022 57.6704C125.582 58.1984 126.134 58.6944 126.734 59.1744C126.518 59.0064 127.054 59.4464 127.126 59.5024C127.406 59.7424 127.67 59.9824 127.942 60.2304C128.934 61.1584 129.846 62.1664 130.71 63.2224C131.454 64.1344 132.03 64.9904 132.822 66.0944C133.718 67.3584 134.454 68.3104 135.222 69.3984C138.414 73.9344 141.238 77.4864 144.894 81.5584C145.95 82.7264 146.526 83.3744 147.862 84.8704C148.086 85.1184 148.382 85.3984 148.606 85.6704C145.862 88.4944 143.846 91.5344 141.294 94.5344C137.894 98.5184 134.878 102.822 131.47 106.806C128.078 110.766 124.854 114.654 121.35 118.51C117.774 122.446 113.854 127.142 110.67 131.414C107.19 136.094 103.662 139.974 101.238 145.326C100.926 146.022 101.694 146.678 102.278 146.15C106.118 142.718 109.774 138.734 113.006 134.718C116.262 130.678 119.806 126.734 123.238 122.862C126.694 118.958 129.782 115.19 133.27 111.318C136.798 107.406 139.71 102.998 142.99 98.8704C146.558 94.3744 149.566 90.7504 153.446 86.5584C154.398 85.5264 153.318 84.0944 152.278 82.9584H152.286Z" fill="#2E88D8"></path>
<path d="M71.4299 55.8863C71.8539 55.2303 72.3019 54.9263 73.1739 54.6623C73.9419 54.4303 74.6939 54.1823 75.4459 53.9263C77.1739 53.3423 79.0379 53.1743 80.8859 52.9423C84.8299 52.4383 88.4219 52.4783 91.9819 52.4303C99.2699 52.3343 106.47 52.2783 113.75 52.4783L119.926 52.6463C122.134 52.7103 124.502 52.6543 126.662 53.0623C129.286 53.5503 129.462 57.0063 126.662 57.4063C124.726 57.6783 122.694 57.6063 120.726 57.5663C118.934 57.5343 117.142 57.5023 115.35 57.4783C111.686 57.4143 108.014 57.3663 104.35 57.3663C97.2459 57.3663 90.1419 57.5183 83.0379 57.5903C81.0539 57.6063 79.0619 57.6703 77.0779 57.5823C76.0539 57.5343 75.0459 57.3823 74.0219 57.3583C72.9819 57.3343 72.3499 57.1903 71.5579 56.6383C71.2859 56.4463 71.2779 56.1183 71.4379 55.8863H71.4299Z" fill="#2E88D8"></path>
<path d="M73.118 54.7983C72.342 54.9423 71.742 55.6063 71.126 56.1103C70.454 56.6543 69.814 57.2223 69.182 57.8223C67.99 58.9503 66.894 60.1983 65.782 61.4143C63.63 63.7663 61.518 66.1423 59.502 68.6223C57.486 71.1023 55.502 73.6063 53.558 76.1503C52.55 77.4703 51.55 78.7983 50.566 80.1263C49.574 81.4703 48.126 82.9503 47.662 84.5983C47.166 86.3583 49.174 87.7503 50.574 86.8543C51.91 85.9983 52.862 84.2063 53.838 82.9343C54.774 81.7103 55.718 80.4943 56.67 79.2863C58.686 76.7343 60.742 74.2143 62.83 71.7263C64.886 69.2863 66.91 66.8143 68.974 64.3823C70.006 63.1663 71.086 61.9903 72.07 60.7343C72.606 60.0463 73.118 59.3503 73.622 58.6303C74.086 57.9663 74.686 57.3423 74.814 56.5103C74.99 55.3663 74.166 54.6143 73.126 54.8063L73.118 54.7983Z" fill="#2E88D8"></path>
<path d="M102.214 144.03C100.414 142.062 98.6139 140.086 96.8139 138.118C95.9579 137.182 95.0779 136.27 94.2459 135.31C93.3339 134.262 92.5499 133.11 91.6699 132.038C88.4379 128.126 85.1899 124.27 82.1419 120.214C75.8699 111.878 68.7499 104.15 61.8939 96.2702C59.9659 94.0542 58.0299 91.8382 56.1019 89.6142C55.0939 88.4542 54.0059 87.3743 52.9259 86.2783C51.8379 85.1663 50.7819 84.1502 49.3259 83.5262C48.3499 83.1102 47.3979 84.2062 47.6219 85.0942C47.9499 86.4222 48.7259 87.4782 49.5499 88.5662C50.3579 89.6382 51.1419 90.7342 51.9819 91.7742C53.6539 93.8542 55.4619 95.8382 57.1979 97.8622C60.5899 101.822 63.9819 105.782 67.3739 109.742C70.7899 113.734 74.3019 117.654 77.5419 121.79C79.1099 123.798 80.6219 125.846 82.2299 127.83C83.8139 129.782 85.5739 131.598 87.3179 133.406C89.3339 135.494 91.5339 137.39 93.5259 139.51C95.6299 141.742 97.7339 143.982 99.8379 146.214C101.27 147.734 103.63 145.558 102.222 144.022L102.214 144.03Z" fill="#2E88D8"></path>
<path d="M114.374 74.6462C114.206 73.6942 113.302 73.0222 112.294 73.0222C111.382 73.0222 110.494 73.6142 109.71 74.0062C108.27 74.7262 106.91 75.5742 105.526 76.3822C104.142 77.1902 102.758 78.0062 101.374 78.8142C101.35 78.8302 101.334 78.8382 101.31 78.8462C101.222 78.8142 101.126 78.7742 101.046 78.7182C100.382 78.3182 99.7338 77.9102 99.0618 77.5342C97.7098 76.7902 96.3018 76.1262 94.8938 75.4942C93.5098 74.8702 92.0058 74.0462 90.5178 73.7102C88.3978 73.2302 87.1818 74.8222 85.9898 76.2062C84.9018 77.4622 83.7178 78.5982 82.6778 79.8942C81.5418 81.3102 80.2698 82.4702 79.4618 83.8462C79.0778 84.5022 78.7258 85.1582 78.4218 85.8542C78.1178 86.5582 77.6938 87.2942 77.6938 88.0702C77.6938 88.4542 78.8938 88.8622 79.2298 88.7102C79.7818 88.4542 80.1578 87.9902 80.5818 87.5742C81.1338 87.0302 81.6618 86.4942 82.1818 85.9262C83.1418 84.8622 84.1658 83.8622 85.1418 82.8142C86.1258 81.7582 87.1418 80.7342 88.1898 79.7422C88.6778 79.2862 89.1658 78.8302 89.6698 78.3822C89.7258 78.3342 89.8058 78.2702 89.8858 78.2142C89.9498 78.2462 90.0138 78.2702 90.0778 78.3022C92.8698 79.6222 95.5178 80.7582 98.1658 82.3342C99.1738 82.9342 100.342 83.7662 101.406 83.7422C102.31 83.7262 102.422 83.5102 103.086 83.1422C104.422 82.3902 105.518 81.6462 106.758 80.8862C108.118 80.0462 109.59 79.3582 111.118 78.4782C112.486 77.6862 114.702 76.4622 114.374 74.6462Z" fill="#212527"></path>
<path d="M124.59 86.6464C123.886 85.4704 123.038 84.3584 122.238 83.2464C121.462 82.1584 120.686 81.0704 119.854 80.0304C119.022 78.9824 118.174 77.9424 117.318 76.9184C116.406 75.8304 115.414 74.4464 114.126 73.7984C112.87 73.1664 111.558 74.4144 111.942 75.7184C112.334 77.0384 113.43 78.2304 114.254 79.3104C115.038 80.3424 115.806 81.3744 116.558 82.4224C117.318 83.4704 118.102 84.4944 118.87 85.5344C119.686 86.6464 120.43 87.8144 121.286 88.8944C121.958 89.7424 123.11 90.0864 124.054 89.4464C124.99 88.8144 125.158 87.5904 124.598 86.6544L124.59 86.6464Z" fill="#212527"></path>
<path d="M122.358 87.5985C120.134 89.2945 118.31 91.3985 116.382 93.3825C114.454 95.3745 112.43 97.2865 110.558 99.3265C108.726 101.326 106.878 103.318 105.054 105.326C104.142 106.334 103.23 107.334 102.31 108.334C101.326 109.414 99.9258 110.542 99.2778 111.83C98.3658 113.638 100.302 115.942 102.334 114.742C103.59 113.998 104.558 112.71 105.55 111.67C106.526 110.646 107.502 109.614 108.478 108.582C110.382 106.558 112.246 104.502 114.094 102.43C115.95 100.358 117.63 98.1265 119.382 95.9745C121.174 93.7665 123.102 91.6145 124.478 89.1425C125.222 87.7985 123.534 86.7105 122.374 87.5905L122.358 87.5985Z" fill="#212527"></path>
<path d="M102.63 111.086C101.158 108.622 98.9258 106.558 97.0298 104.446L91.3338 98.1184C89.4858 96.0624 87.6378 94.0144 85.7498 92.0064C84.7498 90.9504 83.7738 89.8704 82.7578 88.8304C81.7258 87.7744 80.6458 87.0864 79.3018 86.5504C78.3658 86.1744 77.5098 87.3024 77.7498 88.1904C78.5178 91.0064 80.6218 93.0384 82.4138 95.2064C84.2298 97.3984 86.0858 99.5504 87.9498 101.702C89.7578 103.79 91.5738 105.878 93.3818 107.974C95.3098 110.198 97.1338 112.654 99.4538 114.454C101.398 115.974 103.798 113.03 102.638 111.094L102.63 111.086Z" fill="#212527"></path>
<path d="M62.4908 136.01C63.5474 135.129 64.6041 134.238 65.6505 133.337C66.3821 133.959 67.1136 134.591 67.8349 135.233C68.1905 135.554 68.6579 135.326 68.79 134.943C69.2065 133.71 68.7189 132.353 68.2617 131.068C69.8466 129.67 71.4113 128.261 72.9556 126.821C73.4941 126.324 72.9962 125.184 72.2545 125.319C70.4765 125.64 68.7697 126.22 67.0425 126.707C66.9104 125.754 66.7885 124.811 66.6056 123.858C66.6056 123.858 66.5954 123.858 66.5853 123.858C66.5446 123.703 66.4532 123.579 66.3414 123.506C66.443 122.988 66.5141 122.47 66.5243 121.931C66.5243 121.154 65.5489 120.657 65.173 121.331C64.5837 122.398 64.3704 123.63 64.0656 124.853C63.8522 125.713 63.6389 126.562 63.4153 127.422C62.8565 127.474 62.2876 127.474 61.7186 127.432C61.6881 127.422 61.6577 127.412 61.6272 127.391C61.5662 127.349 61.5053 127.318 61.4545 127.277C61.2411 127.132 60.9871 127.142 60.8347 127.329C60.093 127.194 59.3513 126.956 58.6503 126.572C58.1016 126.272 57.7054 127.194 58.2236 127.567C59.6866 128.613 61.1293 129.711 62.5619 130.83C62.4908 131.12 62.4196 131.41 62.3485 131.69C62.1047 132.664 61.8812 133.731 61.2614 134.466C60.5299 135.326 61.6069 136.745 62.4806 136.01H62.4908Z" fill="#2E88D8"></path>
<path d="M147.775 68.9633C149.424 68.4691 148.496 68.6245 150.145 68.1302C150.957 67.8853 151.76 67.626 152.561 67.3779C152.961 67.2538 153.368 67.1074 153.769 67.0201C154.316 66.891 154.774 66.9416 155.321 67.0554C156.04 67.2075 156.213 68.2174 155.702 68.6728C155.288 69.0476 154.906 69.2741 154.368 69.4544C154.002 69.5884 153.607 69.6534 153.216 69.744C152.37 69.9422 151.513 70.1371 150.667 70.3353C148.997 70.7383 149.903 70.4916 148.233 70.8946C146.978 71.2024 146.541 69.3257 147.753 68.9567L147.775 68.9633Z" fill="#2E88D8"></path>
<path d="M152.553 56.6262C149.076 59.394 149.656 59.0556 145.786 61.4685C145.004 61.953 144.005 60.9974 144.592 60.3918C147.566 57.3432 147.208 57.9728 150.589 55.2458C151.061 54.8719 151.791 54.7682 152.347 55.164C152.835 55.5117 153.026 56.241 152.553 56.6262Z" fill="#2E88D8"></path>
<path d="M136.798 56.6124C137.73 56.5758 138.326 55.6816 139.023 54.4189C140.174 52.5122 141.424 50.8186 142.333 48.7814C142.664 48.0341 141.773 47.0876 141.044 47.6594C140.532 48.062 140.055 48.4617 139.658 48.9824C139.302 49.4416 138.996 49.943 138.689 50.4329C138.063 51.4137 137.03 53.4846 137.03 53.4846C137.03 53.4846 136.631 54.6194 136.299 55.45C136.17 55.7744 136.235 56.6345 136.798 56.6124Z" fill="#2E88D8"></path>
</svg>