<svg width="230" height="230" viewBox="0 0 230 230" fill="none" xmlns="http://www.w3.org/2000/svg">
<path d="M29.0027 90.5386L72.3741 40.5957H159.117L202.488 90.5386L116.508 190.424L29.0027 90.5386Z" fill="#4FA2F7"></path>
<path d="M80.2336 95.0598L116.705 135.382L153.19 95.0598L136.906 73.6238L118.374 84.5323L116.705 85.5181L115.036 84.5323L96.5045 73.6238L80.2205 95.0598H80.2336Z" fill="white"></path>
<path d="M200.898 87.0031C200.044 86.07 200.254 86.0962 199.439 85.2682C198.44 84.2431 197.56 82.942 196.679 82.022C195.181 80.458 193.683 78.1843 192.066 76.3574C188.715 72.5591 186.073 69.7465 182.879 65.278C179.686 60.8094 176.978 56.2094 173.692 51.7802C170.288 47.1934 166.661 40.8191 161.404 38.4271C159.419 37.5203 157.172 37.6648 155.766 39.5837C154.517 41.2923 154.478 43.9208 156.107 45.4585C157.027 46.326 157.934 47.1408 158.92 47.9294C158.565 47.6534 159.446 48.3762 159.564 48.4682C160.024 48.8625 160.458 49.2568 160.904 49.6643C162.534 51.1888 164.032 52.8448 165.452 54.5797C166.674 56.078 167.62 57.4842 168.922 59.298C170.394 61.3745 171.603 62.9385 172.864 64.726C178.108 72.178 182.748 78.0134 188.754 84.7031C190.489 86.622 191.435 87.6865 193.63 90.1442C193.998 90.5517 194.484 91.0117 194.852 91.4585C190.344 96.098 187.032 101.092 182.84 106.021C177.254 112.566 172.299 119.637 166.7 126.182C161.128 132.688 155.831 139.075 150.075 145.41C144.2 151.876 137.76 159.591 132.529 166.609C126.812 174.298 121.016 180.672 117.034 189.465C116.521 190.608 117.783 191.686 118.742 190.819C125.051 185.18 131.057 178.635 136.367 172.037C141.716 165.4 147.538 158.921 153.176 152.56C158.854 146.146 163.927 139.956 169.658 133.595C175.454 127.168 180.238 119.926 185.626 113.144C191.488 105.758 196.43 99.8042 202.804 92.9174C204.368 91.222 202.594 88.8694 200.885 87.0031H200.898Z" fill="#2E88D8"></path>
<path d="M68.0634 42.5275C68.76 41.4497 69.496 40.9503 70.9286 40.5166C72.1903 40.1355 73.4257 39.728 74.6611 39.3075C77.5 38.348 80.5623 38.072 83.5983 37.6909C90.0777 36.8629 95.9788 36.9286 101.827 36.8497C113.801 36.692 125.629 36.6 137.589 36.9286L147.735 37.2046C151.363 37.3097 155.253 37.2177 158.802 37.888C163.113 38.6897 163.402 44.3675 158.802 45.0246C155.621 45.4715 152.283 45.3532 149.05 45.2875C146.106 45.2349 143.162 45.1823 140.218 45.1429C134.198 45.0377 128.166 44.9589 122.146 44.9589C110.475 44.9589 98.8046 45.2086 87.1337 45.3269C83.8743 45.3532 80.6017 45.4583 77.3423 45.3137C75.66 45.2349 74.004 44.9852 72.3217 44.9457C70.6131 44.9063 69.5748 44.6697 68.2737 43.7629C67.8268 43.4475 67.8137 42.9086 68.0766 42.5275H68.0634Z" fill="#2E88D8"></path>
<path d="M70.8368 40.7401C69.5619 40.9766 68.5762 42.0675 67.5642 42.8955C66.4602 43.7892 65.4088 44.7224 64.3705 45.7081C62.4122 47.5612 60.6116 49.6115 58.7848 51.6092C55.2493 55.4732 51.7796 59.3766 48.4676 63.4509C45.1556 67.5252 41.8962 71.6389 38.7025 75.8184C37.0465 77.9869 35.4036 80.1686 33.7871 82.3504C32.1573 84.5584 29.7785 86.9898 29.0162 89.6972C28.2013 92.5886 31.5002 94.8755 33.8002 93.4035C35.9951 91.9972 37.5591 89.0532 39.1625 86.9635C40.7002 84.9526 42.2511 82.9549 43.8151 80.9704C47.1271 76.7778 50.5048 72.6378 53.9351 68.5504C57.3128 64.5418 60.6379 60.4806 64.0288 56.4852C65.7242 54.4875 67.4985 52.5555 69.1151 50.4921C69.9956 49.3618 70.8368 48.2184 71.6648 47.0355C72.4271 45.9446 73.4128 44.9195 73.6231 43.5526C73.9122 41.6732 72.5585 40.4378 70.8499 40.7532L70.8368 40.7401Z" fill="#2E88D8"></path>
<path d="M118.637 187.335C115.68 184.102 112.723 180.856 109.766 177.623C108.359 176.085 106.914 174.587 105.547 173.01C104.049 171.288 102.761 169.395 101.315 167.634C96.0052 161.207 90.6692 154.873 85.6618 148.209C75.3578 134.514 63.6606 121.818 52.3972 108.873C49.2298 105.232 46.0492 101.591 42.8818 97.9377C41.2258 96.032 39.4383 94.2577 37.664 92.4572C35.8766 90.6303 34.1418 88.9612 31.7498 87.936C30.1463 87.2526 28.5823 89.0532 28.9503 90.512C29.4892 92.6937 30.764 94.4286 32.1178 96.216C33.4452 97.9772 34.7332 99.7777 36.1132 101.486C38.86 104.903 41.8303 108.163 44.6823 111.488C50.2549 117.994 55.8275 124.499 61.4 131.005C67.012 137.563 72.7818 144.003 78.1046 150.798C80.6806 154.097 83.1646 157.462 85.8063 160.721C88.4086 163.928 91.3 166.911 94.1652 169.882C97.4772 173.312 101.091 176.427 104.364 179.91C107.821 183.577 111.277 187.257 114.734 190.923C117.086 193.421 120.963 189.846 118.65 187.322L118.637 187.335Z" fill="#2E88D8"></path>
<path d="M138.614 73.3474C138.338 71.7834 136.853 70.6794 135.197 70.6794C133.699 70.6794 132.24 71.652 130.952 72.296C128.586 73.4789 126.352 74.872 124.078 76.1994C121.805 77.5269 119.531 78.8674 117.257 80.1949C117.218 80.2212 117.191 80.2343 117.152 80.2474C117.007 80.1949 116.85 80.1292 116.718 80.0372C115.627 79.38 114.563 78.7097 113.459 78.092C111.238 76.8697 108.925 75.7789 106.611 74.7406C104.338 73.7154 101.867 72.3617 99.4222 71.8097C95.9394 71.0212 93.9417 73.6366 91.9834 75.9103C90.196 77.9737 88.2508 79.84 86.5422 81.9692C84.676 84.2954 82.5862 86.2012 81.2588 88.4617C80.628 89.5394 80.0497 90.6172 79.5502 91.7606C79.0508 92.9172 78.3542 94.1263 78.3542 95.4012C78.3542 96.032 80.3257 96.7023 80.8777 96.4526C81.7845 96.032 82.4022 95.2697 83.0988 94.5863C84.0057 93.6926 84.8731 92.812 85.7274 91.8789C87.3045 90.1309 88.9868 88.488 90.5902 86.7663C92.2068 85.0314 93.876 83.3492 95.5977 81.7194C96.3994 80.9703 97.2011 80.2212 98.0291 79.4852C98.1211 79.4063 98.2525 79.3012 98.384 79.2092C98.4891 79.2617 98.5942 79.3012 98.6994 79.3537C103.286 81.5223 107.637 83.3886 111.987 85.9777C113.643 86.9634 115.562 88.3303 117.31 88.2909C118.795 88.2646 118.979 87.9097 120.07 87.3052C122.265 86.0697 124.065 84.8474 126.102 83.5989C128.337 82.2189 130.755 81.0886 133.265 79.6429C135.513 78.3417 139.153 76.3309 138.614 73.3474Z" fill="#212527"></path>
<path d="M155.398 93.0621C154.241 91.1301 152.848 89.3032 151.534 87.4763C150.259 85.6889 148.984 83.9015 147.617 82.1929C146.25 80.4712 144.857 78.7626 143.451 77.0803C141.953 75.2929 140.323 73.0192 138.207 71.9546C136.144 70.9163 133.988 72.9666 134.619 75.1089C135.263 77.2775 137.064 79.2358 138.417 81.01C139.705 82.7055 140.967 84.4009 142.202 86.1226C143.451 87.8443 144.739 89.5266 146.001 91.2352C147.341 93.0621 148.564 94.9809 149.97 96.7552C151.074 98.1483 152.966 98.7135 154.517 97.6621C156.055 96.6238 156.331 94.6129 155.411 93.0752L155.398 93.0621Z" fill="#212527"></path>
<path d="M151.731 94.626C148.077 97.4123 145.08 100.869 141.913 104.128C138.746 107.401 135.42 110.542 132.345 113.893C129.335 117.179 126.299 120.452 123.303 123.751C121.804 125.407 120.306 127.049 118.795 128.692C117.178 130.467 114.878 132.32 113.814 134.436C112.315 137.406 115.496 141.191 118.834 139.22C120.898 137.997 122.488 135.881 124.118 134.173C125.721 132.491 127.324 130.795 128.928 129.1C132.056 125.775 135.118 122.397 138.154 118.993C141.203 115.589 143.963 111.922 146.842 108.387C149.786 104.759 152.953 101.224 155.214 97.1626C156.436 94.9546 153.663 93.1671 151.757 94.6128L151.731 94.626Z" fill="#212527"></path>
<path d="M119.321 133.213C116.902 129.165 113.235 125.775 110.121 122.305L100.763 111.909C97.7269 108.531 94.6909 105.167 91.5891 101.868C89.9463 100.133 88.3429 98.3586 86.6737 96.6501C84.9783 94.9152 83.204 93.7849 80.996 92.9044C79.4583 92.2866 78.052 94.1398 78.4463 95.5986C79.708 100.225 83.1646 103.563 86.1086 107.125C89.092 110.726 92.1411 114.262 95.2034 117.797C98.1737 121.227 101.157 124.657 104.127 128.101C107.295 131.755 110.291 135.79 114.103 138.747C117.297 141.244 121.239 136.407 119.334 133.227L119.321 133.213Z" fill="#212527"></path>
<path d="M53.3776 174.159C55.1135 172.712 56.8494 171.249 58.5686 169.768C59.7704 170.789 60.9722 171.827 62.1573 172.883C62.7415 173.41 63.5093 173.036 63.7263 172.406C64.4106 170.381 63.6094 168.151 62.8583 166.041C65.4622 163.743 68.0327 161.429 70.5698 159.063C71.4544 158.246 70.6365 156.374 69.4181 156.595C66.4971 157.123 63.6929 158.076 60.8554 158.876C60.6384 157.31 60.4381 155.762 60.1376 154.196C60.1376 154.196 60.1209 154.196 60.1042 154.196C60.0375 153.94 59.8873 153.736 59.7036 153.617C59.8706 152.766 59.9874 151.915 60.0041 151.03C60.0041 149.754 58.4017 148.937 57.7841 150.043C56.816 151.796 56.4655 153.821 55.9648 155.83C55.6142 157.242 55.2637 158.638 54.8965 160.05C53.9785 160.135 53.0438 160.135 52.109 160.067C52.059 160.05 52.0089 160.033 51.9588 159.999C51.8587 159.931 51.7585 159.88 51.6751 159.812C51.3245 159.574 50.9073 159.591 50.6569 159.897C49.4384 159.676 48.2199 159.284 47.0682 158.655C46.1669 158.161 45.5159 159.676 46.3672 160.289C48.7708 162.007 51.1409 163.811 53.4944 165.65C53.3776 166.126 53.2607 166.603 53.1439 167.062C52.7433 168.662 52.3761 170.415 51.3579 171.623C50.1561 173.036 51.9254 175.367 53.3609 174.159H53.3776Z" fill="#2E88D8"></path>
<path d="M193.488 64.0113C196.196 63.1992 194.673 63.4546 197.381 62.6425C198.714 62.2403 200.035 61.8142 201.35 61.4065C202.007 61.2027 202.676 60.9622 203.335 60.8187C204.234 60.6067 204.985 60.6898 205.885 60.8767C207.065 61.1267 207.35 62.7857 206.511 63.5339C205.831 64.1496 205.203 64.5218 204.319 64.818C203.717 65.0381 203.068 65.1449 202.427 65.2938C201.037 65.6194 199.628 65.9396 198.238 66.2652C195.494 66.9273 196.983 66.522 194.239 67.1841C192.179 67.6898 191.461 64.6065 193.451 64.0004L193.488 64.0113Z" fill="#2E88D8"></path>
<path d="M201.337 43.743C195.625 48.2902 196.578 47.7343 190.219 51.6983C188.936 52.4943 187.293 50.9243 188.258 49.9295C193.144 44.921 192.555 45.9553 198.11 41.4754C198.886 40.8611 200.085 40.6907 200.998 41.3409C201.8 41.9122 202.113 43.1102 201.337 43.743Z" fill="#2E88D8"></path>
<path d="M175.454 43.7204C176.984 43.6602 177.964 42.1911 179.109 40.1168C181 36.9843 183.054 34.202 184.546 30.8551C185.092 29.6274 183.627 28.0725 182.429 29.0118C181.588 29.6733 180.805 30.3299 180.152 31.1853C179.567 31.9397 179.064 32.7635 178.56 33.5683C177.532 35.1796 175.835 38.5819 175.835 38.5819C175.835 38.5819 175.18 40.4462 174.634 41.8107C174.422 42.3436 174.529 43.7567 175.454 43.7204Z" fill="#2E88D8"></path>
</svg>