<svg width="200" height="200" viewBox="0 0 200 200" fill="none" xmlns="http://www.w3.org/2000/svg">
<path d="M25.2197 78.7291L62.934 35.3005H138.363L176.077 78.7291L101.311 165.586L25.2197 78.7291Z" fill="#4FA2F7"></path>
<path d="M69.7683 82.6608L101.483 117.724L133.208 82.6608L119.048 64.0208L102.934 73.5065L101.483 74.3636L100.031 73.5065L83.9168 64.0208L69.7568 82.6608H69.7683Z" fill="white"></path>
<path d="M174.694 75.655C173.951 74.8435 174.134 74.8664 173.425 74.1464C172.557 73.255 171.791 72.1235 171.025 71.3235C169.722 69.9635 168.42 67.9864 167.014 66.3978C164.1 63.095 161.802 60.6492 159.025 56.7635C156.248 52.8778 153.894 48.8778 151.037 45.0264C148.077 41.0378 144.922 35.495 140.351 33.415C138.625 32.6264 136.671 32.7521 135.448 34.4207C134.362 35.9064 134.328 38.1921 135.745 39.5292C136.545 40.2835 137.334 40.9921 138.191 41.6778C137.882 41.4378 138.648 42.0664 138.751 42.1464C139.151 42.4892 139.528 42.8321 139.917 43.1864C141.334 44.5121 142.637 45.9521 143.871 47.4607C144.934 48.7635 145.757 49.9864 146.888 51.5635C148.168 53.3692 149.22 54.7292 150.317 56.2835C154.877 62.7635 158.911 67.8378 164.134 73.655C165.642 75.3235 166.465 76.2492 168.374 78.3864C168.694 78.7407 169.117 79.1407 169.437 79.5292C165.517 83.5635 162.637 87.9064 158.991 92.1921C154.134 97.8835 149.825 104.032 144.957 109.724C140.111 115.381 135.505 120.935 130.5 126.444C125.391 132.066 119.791 138.775 115.242 144.878C110.271 151.564 105.231 157.106 101.768 164.752C101.322 165.746 102.42 166.684 103.254 165.929C108.74 161.026 113.962 155.335 118.58 149.598C123.231 143.826 128.294 138.192 133.197 132.661C138.134 127.084 142.545 121.701 147.528 116.169C152.568 110.581 156.728 104.284 161.414 98.3864C166.511 91.9635 170.808 86.7864 176.351 80.7978C177.711 79.3235 176.168 77.2778 174.682 75.655H174.694Z" fill="#2E88D8"></path>
<path d="M59.1856 36.9804C59.7913 36.0433 60.4313 35.609 61.677 35.2318C62.7741 34.9004 63.8484 34.5461 64.9227 34.1804C67.3913 33.3461 70.0541 33.1061 72.6941 32.7747C78.3284 32.0547 83.4598 32.1118 88.5456 32.0433C98.957 31.9061 109.243 31.8261 119.643 32.1118L128.466 32.3518C131.62 32.4433 135.003 32.3633 138.088 32.9461C141.837 33.6433 142.088 38.5804 138.088 39.1518C135.323 39.5404 132.42 39.4375 129.608 39.3804C127.048 39.3347 124.488 39.289 121.928 39.2547C116.694 39.1633 111.448 39.0947 106.214 39.0947C96.0656 39.0947 85.917 39.3118 75.7684 39.4147C72.9341 39.4375 70.0884 39.529 67.2541 39.4033C65.7913 39.3347 64.3513 39.1175 62.8884 39.0833C61.4027 39.049 60.4999 38.8433 59.3684 38.0547C58.9799 37.7804 58.9684 37.3118 59.197 36.9804H59.1856Z" fill="#2E88D8"></path>
<path d="M61.5971 35.4261C60.4885 35.6318 59.6314 36.5803 58.7514 37.3003C57.7914 38.0775 56.8771 38.8889 55.9742 39.7461C54.2714 41.3575 52.7057 43.1403 51.1171 44.8775C48.0428 48.2375 45.0257 51.6318 42.1457 55.1746C39.2657 58.7175 36.4314 62.2946 33.6542 65.9289C32.2142 67.8146 30.7857 69.7118 29.38 71.6089C27.9628 73.5289 25.8942 75.6432 25.2314 77.9975C24.5228 80.5118 27.3914 82.5003 29.3914 81.2203C31.3 79.9975 32.66 77.4375 34.0542 75.6203C35.3914 73.8718 36.74 72.1346 38.1 70.4089C40.98 66.7632 43.9171 63.1632 46.9 59.6089C49.8371 56.1232 52.7285 52.5918 55.6771 49.1175C57.1514 47.3803 58.6942 45.7003 60.1 43.9061C60.8657 42.9232 61.5971 41.9289 62.3171 40.9003C62.98 39.9518 63.8371 39.0603 64.02 37.8718C64.2714 36.2375 63.0942 35.1632 61.6085 35.4375L61.5971 35.4261Z" fill="#2E88D8"></path>
<path d="M103.163 162.9C100.591 160.089 98.0199 157.266 95.4485 154.455C94.2256 153.118 92.9685 151.815 91.7799 150.443C90.4771 148.946 89.3571 147.3 88.0999 145.769C83.4828 140.18 78.8428 134.672 74.4885 128.878C65.5285 116.969 55.3571 105.929 45.5628 94.6718C42.8085 91.5061 40.0428 88.3404 37.2885 85.1632C35.8485 83.5061 34.2942 81.9633 32.7513 80.3975C31.1971 78.809 29.6885 77.3575 27.6085 76.4661C26.2142 75.8718 24.8542 77.4375 25.1742 78.7061C25.6428 80.6032 26.7513 82.1118 27.9285 83.6661C29.0828 85.1975 30.2028 86.7632 31.4028 88.249C33.7913 91.2204 36.3742 94.0547 38.8542 96.9461C43.6999 102.603 48.5456 108.26 53.3913 113.918C58.2713 119.62 63.2885 125.22 67.9171 131.129C70.1571 133.998 72.3171 136.923 74.6142 139.758C76.8771 142.546 79.3913 145.14 81.8828 147.723C84.7628 150.706 87.9056 153.415 90.7513 156.443C93.7571 159.632 96.7628 162.832 99.7685 166.02C101.814 168.192 105.186 165.083 103.174 162.889L103.163 162.9Z" fill="#2E88D8"></path>
<path d="M120.534 63.7802C120.294 62.4202 119.003 61.4602 117.563 61.4602C116.26 61.4602 114.991 62.3059 113.871 62.8659C111.814 63.8945 109.871 65.1059 107.894 66.2602C105.917 67.4145 103.94 68.5802 101.963 69.7345C101.928 69.7573 101.905 69.7688 101.871 69.7802C101.745 69.7345 101.608 69.6773 101.494 69.5973C100.545 69.0259 99.6197 68.4431 98.6597 67.9059C96.7283 66.8431 94.7169 65.8945 92.7055 64.9916C90.7283 64.1002 88.5797 62.9231 86.454 62.4431C83.4255 61.7573 81.6883 64.0316 79.9855 66.0088C78.4312 67.8031 76.7397 69.4259 75.254 71.2773C73.6312 73.3002 71.814 74.9573 70.6597 76.9231C70.1112 77.8602 69.6083 78.7973 69.174 79.7916C68.7397 80.7973 68.134 81.8488 68.134 82.9573C68.134 83.5059 69.8483 84.0888 70.3283 83.8716C71.1169 83.5059 71.654 82.8431 72.2597 82.2488C73.0483 81.4716 73.8026 80.7059 74.5455 79.8945C75.9169 78.3745 77.3797 76.9459 78.774 75.4488C80.1797 73.9402 81.6312 72.4773 83.1283 71.0602C83.8255 70.4088 84.5226 69.7573 85.2426 69.1173C85.3226 69.0488 85.4369 68.9573 85.5512 68.8773C85.6426 68.9231 85.734 68.9573 85.8255 69.0031C89.814 70.8888 93.5969 72.5116 97.3797 74.7631C98.8197 75.6202 100.488 76.8088 102.008 76.7745C103.3 76.7516 103.46 76.4431 104.408 75.9173C106.317 74.8431 107.883 73.7802 109.654 72.6945C111.597 71.4945 113.7 70.5116 115.883 69.2545C117.837 68.1231 121.003 66.3745 120.534 63.7802Z" fill="#212527"></path>
<path d="M135.129 80.9235C134.123 79.2435 132.911 77.6549 131.769 76.0664C130.66 74.5121 129.551 72.9578 128.363 71.4721C127.174 69.9749 125.963 68.4892 124.74 67.0264C123.437 65.4721 122.02 63.4949 120.18 62.5692C118.386 61.6664 116.511 63.4492 117.06 65.3121C117.62 67.1978 119.186 68.9007 120.363 70.4435C121.483 71.9178 122.58 73.3921 123.654 74.8892C124.74 76.3864 125.86 77.8492 126.957 79.3349C128.123 80.9235 129.186 82.5921 130.409 84.1349C131.369 85.3464 133.014 85.8378 134.363 84.9235C135.7 84.0207 135.94 82.2721 135.14 80.9349L135.129 80.9235Z" fill="#212527"></path>
<path d="M131.94 82.2835C128.763 84.7063 126.157 87.712 123.403 90.5463C120.648 93.392 117.757 96.1235 115.083 99.0378C112.465 101.895 109.825 104.741 107.22 107.609C105.917 109.049 104.614 110.478 103.3 111.906C101.894 113.449 99.8939 115.061 98.9682 116.901C97.6654 119.483 100.431 122.775 103.334 121.061C105.128 119.998 106.511 118.158 107.928 116.672C109.323 115.209 110.717 113.735 112.111 112.261C114.831 109.369 117.494 106.432 120.134 103.472C122.785 100.512 125.185 97.3235 127.688 94.2492C130.248 91.0949 133.003 88.0206 134.968 84.4892C136.031 82.5692 133.62 81.0149 131.963 82.2721L131.94 82.2835Z" fill="#212527"></path>
<path d="M103.757 115.838C101.654 112.318 98.4656 109.369 95.757 106.352L87.6199 97.3121C84.9799 94.375 82.3399 91.4492 79.6427 88.5807C78.2141 87.0721 76.8199 85.5292 75.3684 84.0435C73.8941 82.535 72.3513 81.5521 70.4313 80.7864C69.0941 80.2492 67.8713 81.8607 68.2141 83.1292C69.3113 87.1521 72.317 90.055 74.877 93.1521C77.4713 96.2835 80.1227 99.3578 82.7856 102.432C85.3684 105.415 87.9627 108.398 90.5456 111.392C93.2999 114.569 95.9056 118.078 99.2198 120.649C101.997 122.821 105.426 118.615 103.768 115.849L103.757 115.838Z" fill="#212527"></path>
<path d="M46.4153 151.443C47.9248 150.185 49.4343 148.912 50.9293 147.624C51.9743 148.512 53.0193 149.415 54.0498 150.333C54.5578 150.791 55.2255 150.466 55.4142 149.918C56.0093 148.157 55.3126 146.218 54.6594 144.383C56.9237 142.385 59.1589 140.373 61.365 138.316C62.1343 137.605 61.4231 135.977 60.3636 136.17C57.8236 136.629 55.3852 137.457 52.9177 138.153C52.729 136.791 52.5549 135.445 52.2936 134.083C52.2936 134.083 52.2791 134.083 52.2646 134.083C52.2065 133.861 52.0759 133.684 51.9162 133.58C52.0614 132.84 52.163 132.1 52.1775 131.331C52.1775 130.221 50.7841 129.51 50.2471 130.472C49.4053 131.997 49.1005 133.758 48.665 135.504C48.3602 136.732 48.0554 137.946 47.7361 139.174C46.9378 139.248 46.125 139.248 45.3122 139.189C45.2687 139.174 45.2251 139.159 45.1816 139.13C45.0945 139.07 45.0074 139.026 44.9349 138.967C44.6301 138.76 44.2672 138.775 44.0495 139.041C42.9899 138.848 41.9304 138.508 40.9289 137.961C40.1451 137.531 39.5791 138.849 40.3193 139.381C42.4094 140.876 44.4704 142.445 46.5169 144.043C46.4153 144.457 46.3137 144.872 46.2121 145.271C45.8638 146.662 45.5445 148.187 44.6591 149.237C43.6141 150.466 45.1526 152.493 46.4008 151.443H46.4153Z" fill="#2E88D8"></path>
<path d="M168.25 55.6619C170.606 54.9558 169.281 55.1779 171.636 54.4718C172.795 54.1219 173.943 53.7515 175.087 53.397C175.658 53.2197 176.24 53.0106 176.813 52.8859C177.595 52.7014 178.248 52.7737 179.031 52.9363C180.057 53.1536 180.304 54.5963 179.575 55.2468C178.984 55.7823 178.438 56.1059 177.669 56.3635C177.145 56.5549 176.581 56.6477 176.024 56.7772C174.815 57.0603 173.59 57.3388 172.381 57.6219C169.995 58.1976 171.29 57.8452 168.904 58.4209C167.112 58.8607 166.487 56.1796 168.219 55.6525L168.25 55.6619Z" fill="#2E88D8"></path>
<path d="M175.076 38.0373C170.109 41.9914 170.938 41.508 165.408 44.955C164.292 45.6472 162.864 44.2819 163.703 43.4169C167.952 39.0616 167.44 39.961 172.27 36.0655C172.945 35.5313 173.987 35.3831 174.781 35.9485C175.478 36.4453 175.751 37.4871 175.076 38.0373Z" fill="#2E88D8"></path>
<path d="M152.569 38.0177C153.9 37.9654 154.751 36.6879 155.747 34.8842C157.391 32.1602 159.178 29.7409 160.475 26.8305C160.949 25.763 159.676 24.4109 158.634 25.2277C157.903 25.8028 157.221 26.3739 156.654 27.1177C156.145 27.7737 155.708 28.49 155.27 29.1899C154.376 30.591 152.9 33.5494 152.9 33.5494C152.9 33.5494 152.33 35.1706 151.856 36.3572C151.671 36.8206 151.765 38.0493 152.569 38.0177Z" fill="#2E88D8"></path>
</svg>