<svg width="57" height="28" viewBox="0 0 57 28" fill="none" xmlns="http://www.w3.org/2000/svg">
<path d="M21.7048 27.3312C19.7826 27.0122 19.3021 25.3311 19.3021 23.0246C19 17.3315 19 16.8311 18.341 12.7825C13.0549 17.089 7.76889 21.2364 2.16248 24.9048C0.720833 25.8618 -0.720825 23.7882 0.400455 22.6718C6.96796 15.0159 14.4966 8.15664 21.7048 1.13876C24.2678 -1.2537 27 0.246597 27.4714 4.48835C27.4714 10.831 27.5 12.2467 27.4714 19.994C32 17.7464 33.0778 17.0891 36.1213 15.4941C41.4073 12.7826 46.6934 9.75184 51.6591 6.5619C55.6636 4.16944 59.1877 10.3901 55.3433 12.7825C48.135 17.2484 45.2518 18.7182 37.7232 22.3866C32.5973 24.7791 27.4714 28.2882 21.7048 27.3312Z" fill="#FF160D"></path>
</svg>