<svg width="61" height="28" viewBox="0 0 61 28" fill="none" xmlns="http://www.w3.org/2000/svg">
<path d="M38.9216 27.8338C40.7837 27.3266 42.1379 25.129 41.4608 23.2695C40.1066 19.3814 38.9216 15.4933 37.906 11.6052C44.6771 15.8314 51.279 20.0576 57.8809 24.2838C59.7429 25.4671 62.1128 22.5933 60.42 21.0719C52.1254 13.6338 43.1536 6.87191 34.0126 0.617165C31.1348 -1.4114 28.0878 1.96954 28.5956 4.84335C29.6113 10.0838 30.9655 15.1552 32.489 20.0576C27.9185 18.5362 21.9937 14.8171 19.2853 13.6338C14.3762 11.6052 9.6364 9.40762 4.72732 7.37906C0.833905 5.68859 -2.04383 12.4505 1.84958 14.1409C9.46713 17.5219 17.0847 20.7338 24.7022 23.9457C29.2728 25.9743 33.674 29.0171 38.9216 27.6647L38.9216 27.8338Z" fill="#FF160D"></path>
</svg>