<svg width="61" height="37" viewBox="0 0 61 37" fill="none" xmlns="http://www.w3.org/2000/svg">
<path d="M55.04 1.88981C52.4872 7.52267 49.9559 13.2896 47.2685 18.944C43.1752 14.9215 39.1738 10.6094 35.4203 6.12015C33.8877 4.30195 31.2165 4.86564 30.1697 6.95786C27.7088 12.301 25.2692 17.7783 22.6737 23.143C19.4096 19.1257 16.0323 15.2641 12.6551 11.4024C11.1438 9.7183 8.29517 10.0353 7.53904 12.2186C4.79633 19.257 1.91898 26.3168 0.0482397 33.6285C-0.368176 35.3451 2.01501 37.3026 3.21783 35.323C6.23868 30.028 8.67822 24.5508 11.0964 18.9394C14.339 22.8225 17.603 26.8398 20.9803 30.7014C22.5129 32.5196 25.1842 31.9559 26.0963 29.8852C28.5573 24.542 31.1314 19.0433 33.5924 13.7001C37.6152 18.1463 41.7726 22.5711 46.2911 26.6632C47.7595 28.0791 50.1891 26.8664 50.8962 25.2409C54.0428 18.1382 57.2108 11.1695 60.4921 4.0453C62.1327 0.483185 56.39 -1.76345 54.7494 1.79867L55.04 1.88981Z" fill="#478EE6"></path>
</svg>