<svg width="140" height="140" viewBox="0 0 140 140" fill="none" xmlns="http://www.w3.org/2000/svg">
<path d="M69.2802 3.70996L135.6 69.67L69.2802 135.62L2.97021 69.67L69.2802 3.70996Z" fill="#F7679B"></path>
<path d="M54.3299 46.6001L77.7899 69.9901L54.3299 93.3801L30.8599 69.9901L54.3299 46.6001Z" fill="white"></path>
<path d="M80.8799 69.37C80.0999 68.4 78.7799 67.86 77.5399 68.23C75.8699 68.73 74.6899 70.12 73.4499 71.29C72.4499 72.24 71.4499 73.2 70.4599 74.16C68.4299 76.15 66.4499 78.17 64.5199 80.25C62.6399 82.28 60.7999 84.35 58.9899 86.45C58.0399 87.55 57.0799 88.65 56.1699 89.79C55.2599 90.93 54.2299 92.18 53.6299 93.51C52.8799 95.18 54.5199 97.41 56.3599 96.24C58.6799 94.77 60.5399 92.47 62.4599 90.53C64.4599 88.52 66.4899 86.54 68.5599 84.6C70.5799 82.71 72.6099 80.83 74.6599 78.98C75.6899 78.05 76.7199 77.14 77.7699 76.23C78.8899 75.26 80.5099 74.27 81.1199 72.9C81.6499 71.71 81.7299 70.45 80.8699 69.37H80.8799Z" fill="#212527"></path>
<path d="M56.3598 93.41C52.4298 88.99 48.0998 84.96 43.8898 80.82C41.8398 78.81 39.7898 76.79 37.7398 74.78C36.6498 73.71 35.5598 72.67 34.4198 71.66C33.2898 70.66 32.3098 69.61 30.8798 69.11C29.9298 68.78 28.7198 69.78 29.0898 70.83C29.5798 72.23 30.4398 73.13 31.3998 74.24C32.3998 75.39 33.4198 76.5 34.4698 77.59C36.5198 79.72 38.5698 81.84 40.6098 83.97C44.7098 88.22 48.7098 92.6 53.0798 96.56C55.2098 98.5 58.3398 95.64 56.3698 93.42L56.3598 93.41Z" fill="#212527"></path>
<path d="M55.6999 44.8101C54.0199 45.2001 52.7399 46.3801 51.4899 47.5401C50.4099 48.5301 49.3599 49.5601 48.2999 50.5701C46.1199 52.6401 43.9399 54.7101 41.7599 56.7801C39.6299 58.8001 37.5199 60.8301 35.4399 62.9001C34.3399 64.0001 33.1999 65.0501 32.2099 66.2601C31.2699 67.4001 30.0299 68.4101 29.2699 69.6801C28.5799 70.8301 29.7599 72.0501 30.9099 71.5401C32.2399 70.9501 33.4199 69.8301 34.6499 69.0301C35.8799 68.2301 37.0099 67.2601 38.1699 66.3501C40.5299 64.4801 42.8499 62.5801 45.1699 60.6501C47.4199 58.7801 49.6799 56.9101 51.9299 55.0301C54.2499 53.1001 57.5499 51.1201 58.6599 48.1701C59.3599 46.3001 57.5299 44.4001 55.7099 44.8201L55.6999 44.8101Z" fill="#212527"></path>
<path d="M54.0802 50.4502C57.4102 54.5702 61.1502 58.4802 65.1402 61.9602C69.1502 65.4602 73.2902 69.2302 78.1502 71.4902C79.8602 72.2902 81.2702 70.4302 80.1302 68.9502C76.9302 64.8002 72.9102 61.3402 69.3702 57.4802C65.8202 53.6002 62.3302 49.6802 58.8702 45.7102C57.6702 44.3402 55.3602 44.4502 54.1202 45.6702C52.7202 47.0502 52.9402 49.0202 54.0802 50.4402V50.4502Z" fill="#212527"></path>
<path d="M98.4999 52.3502C97.8499 50.3102 96.4199 48.7202 94.3599 48.0402C92.4899 47.4202 90.2799 47.4502 88.3299 47.3302C85.9199 47.1902 83.4899 47.2602 81.0899 47.4702C78.6699 47.6802 74.7299 48.1102 72.6399 49.3902C71.4199 50.1402 71.7599 51.8402 73.0199 52.2902C75.4199 53.1502 79.5199 53.0502 82.0599 53.1102C84.4699 53.1702 86.6799 53.2202 89.0899 53.2502C90.0899 53.2602 91.5099 53.2902 92.4199 53.2902C92.4199 53.2902 92.4199 53.7502 92.4399 53.7602C92.4499 53.8102 92.4599 53.8702 92.4699 53.9002C92.5799 54.9402 92.3799 56.0302 92.3499 57.0702C92.3099 58.3002 92.3399 59.5402 92.3299 60.7702C92.2999 65.7902 92.2699 70.8102 92.2999 75.8302C92.3199 79.6202 92.2999 83.3902 92.7199 87.1302C85.7799 86.3502 78.7899 86.3402 72.0099 87.1802C70.5299 87.3602 69.6399 89.1902 69.8399 90.5102C70.0499 91.8802 71.2999 93.2902 72.8199 93.1402C76.6699 92.7602 80.4899 92.7002 84.3499 92.6402C88.1999 92.5802 92.0199 92.9502 95.8599 93.1002C97.2699 93.1502 98.4599 91.8702 98.4599 90.5002C98.4699 81.9002 98.7399 73.3102 98.8899 64.7202C98.9299 62.5802 98.9599 60.4402 98.9999 58.3002C99.0299 56.3702 99.0999 54.2102 98.5099 52.3502H98.4999Z" fill="#212527"></path>
<path d="M134.76 66.7901C130.11 70.9301 125.39 75.0001 120.8 79.2001C116.22 83.3901 111.91 87.9101 107.51 92.2901C98.6998 101.07 90.0398 109.98 81.4898 119.02C79.0798 121.57 76.7598 124.21 74.4298 126.84C72.0798 129.49 69.5498 132.04 67.9398 135.22C67.1298 136.83 68.7998 138.74 70.4698 137.77C73.2698 136.13 75.4498 133.81 77.7398 131.53C79.8898 129.4 82.0798 127.3 84.2098 125.15C88.5798 120.73 92.8698 116.23 97.2298 111.8C105.95 102.94 114.59 93.9901 123.38 85.2001C128.33 80.2401 132.94 74.9101 137.76 69.8201C139.66 67.8201 136.8 65.0001 134.76 66.8101V66.7901Z" fill="#D7487F"></path>
<path d="M137.26 66.4598C136.59 65.0398 135.38 63.8398 134.27 62.7298C133.08 61.5498 131.87 60.3798 130.67 59.1998C128.39 56.9698 126.13 54.7098 123.84 52.4998C119.36 48.1698 114.72 44.0498 110.62 39.3498C108.71 37.1598 106.77 35.0498 104.55 33.1698C102.33 31.2998 99.98 29.5898 97.7 27.7998C93.23 24.2698 89.32 20.1398 85.52 15.9298C81.22 11.1698 76.95 6.18978 71.65 2.45978C69.4 0.879776 67.13 4.21978 68.82 6.06978C72.65 10.2498 76.45 14.4298 80.21 18.6798C83.96 22.9098 87.74 27.1398 92.08 30.7998C96.54 34.5598 101.35 37.7098 105.28 42.0598C109.42 46.6498 113.81 50.8798 118.35 55.0898C121 57.5498 123.72 59.9298 126.42 62.3398C129.06 64.6998 131.79 67.8498 135.14 69.1898C136.83 69.8598 137.87 67.7498 137.27 66.4598H137.26Z" fill="#D7487F"></path>
<path d="M68.9301 2.37989C66.3201 4.12989 64.0301 6.57989 61.7601 8.74989C59.5001 10.9099 57.2501 13.0899 55.0001 15.2699C50.6201 19.4999 46.2401 23.7499 41.8801 27.9999C32.9801 36.6799 24.1101 45.3999 15.2901 54.1599C12.8401 56.5999 10.4901 59.1499 8.11007 61.6599C5.70007 64.1999 3.00007 66.7399 1.25007 69.7999C0.310067 71.4399 2.19007 73.3299 3.83007 72.3799C6.53007 70.8199 8.81007 68.4899 11.0701 66.3599C13.3501 64.2099 15.6401 62.0799 17.9101 59.9299C22.3301 55.7399 26.5801 51.3599 30.9201 47.0799C39.7801 38.3499 48.6801 29.6699 57.6201 21.0199C60.1101 18.6199 62.6001 16.2099 65.0901 13.8099C67.6501 11.3499 70.5001 8.89989 72.6001 6.03989C74.1901 3.86989 71.0901 0.929888 68.9301 2.36989V2.37989Z" fill="#D7487F"></path>
<path d="M71.2599 134.17C69.1999 131.93 66.9099 129.88 64.7399 127.75C62.6199 125.67 60.5099 123.58 58.3999 121.49C54.1299 117.24 49.7499 113.1 45.4599 108.89C36.8599 100.45 28.1999 92.06 19.4699 83.76C14.5999 79.13 9.87986 74.25 4.53986 70.15C3.24986 69.16 1.28986 71.12 2.26986 72.41C5.96986 77.25 10.3299 81.55 14.5299 85.96C18.6299 90.26 22.7599 94.53 26.9599 98.75C35.5099 107.34 44.1199 115.91 53.0899 124.06C55.5899 126.33 58.1299 128.56 60.6599 130.8C63.2699 133.1 65.8299 135.5 68.5999 137.61C69.4599 138.27 70.8499 137.83 71.4399 137.05C72.1099 136.16 72.0299 135 71.2699 134.17H71.2599Z" fill="#D7487F"></path>
<path d="M20.3974 34.6632C18.597 33.4853 19.6535 34.001 17.8531 32.8231C16.9675 32.2414 16.0963 31.6452 15.2251 31.0636C14.7896 30.7727 14.354 30.4528 13.9039 30.2056C13.2941 29.8566 12.7278 29.7548 12.0309 29.6966C11.1162 29.6239 10.5499 30.7727 11 31.4998C11.363 32.096 11.7405 32.5032 12.3213 32.9104C12.7133 33.2012 13.1634 33.4193 13.599 33.6665C14.5427 34.2046 15.501 34.7426 16.4448 35.2806C18.3032 36.3567 17.3048 35.7393 19.1633 36.8153C20.5572 37.6297 21.7477 35.5357 20.4265 34.6632H20.3974Z" fill="#D7487F"></path>
<path d="M30.3408 12.081C33.1975 16.8448 32.667 16.1946 36.1407 20.7155C36.8428 21.6251 38.4321 20.9445 38.0096 19.9781C35.8643 15.1059 36.008 16 33.245 11.3259C32.8559 10.6812 32.0471 10.24 31.2227 10.4596C30.4991 10.6528 29.9561 11.4229 30.3408 12.081Z" fill="#D7487F"></path>
<path d="M25.6686 25.8134C24.5326 26.0736 23.5213 25.1894 22.2679 23.8936C20.2559 21.9691 18.194 20.3343 16.4325 18.173C15.788 17.3797 16.5545 15.9465 17.6214 16.3981C18.3701 16.7167 19.0762 17.0432 19.7256 17.5416C20.3052 17.9793 20.8383 18.4844 21.3687 18.9752C22.4439 19.9542 24.3669 22.1154 24.3669 22.1154C24.3669 22.1154 25.219 23.3542 25.8907 24.248C26.153 24.597 26.3548 25.6563 25.6686 25.8134Z" fill="#D7487F"></path>
<path d="M129.827 99.7926C128.221 100.055 126.614 100.329 125.019 100.627C124.621 99.5779 124.234 98.5165 123.872 97.4551C123.691 96.9304 123.075 96.8827 122.724 97.1928C121.577 98.1707 121.299 99.8284 121.021 101.367C118.581 101.844 116.141 102.333 113.713 102.869C112.868 103.048 112.723 104.479 113.556 104.778C115.573 105.505 117.675 105.899 119.741 106.435C119.33 107.461 118.907 108.487 118.533 109.536C118.533 109.536 118.545 109.536 118.557 109.536C118.509 109.715 118.533 109.894 118.605 110.037C118.195 110.49 117.82 110.967 117.506 111.504C117.047 112.279 117.772 113.352 118.557 112.887C119.777 112.172 120.719 111.051 121.746 110.013C122.459 109.286 123.183 108.558 123.896 107.831C124.5 108.117 125.092 108.439 125.66 108.809C125.684 108.844 125.708 108.868 125.732 108.904C125.768 108.975 125.805 109.047 125.841 109.119C125.974 109.381 126.24 109.524 126.505 109.429C127.194 110.001 127.822 110.657 128.317 111.456C128.716 112.076 129.646 111.384 129.332 110.705C128.426 108.797 127.568 106.865 126.747 104.909C126.988 104.658 127.23 104.42 127.472 104.169C128.281 103.346 129.139 102.404 130.202 102.035C131.446 101.605 131.168 99.5541 129.839 99.7807L129.827 99.7926Z" fill="#D7487F"></path>
</svg>