<svg width="140" height="140" viewBox="0 0 140 140" fill="none" xmlns="http://www.w3.org/2000/svg">
<path d="M120.76 21.4101V119.2L21.8799 118.9V21.1101L120.76 21.4101Z" fill="#EED263"></path>
<path d="M76.6102 52.83V86.2L43.2402 86.1V52.73L76.6102 52.83Z" fill="white"></path>
<path d="M24.2002 32.2201C24.4102 28.6401 24.7302 25.1001 24.0402 21.5601C23.7202 19.8801 21.4902 20.2801 20.9802 21.5601C19.7502 24.6501 19.4702 27.9601 19.1402 31.2401C18.8302 34.3301 18.5402 37.4201 18.2902 40.5201C17.7702 46.8601 17.5302 53.2401 17.3102 59.5901C16.8802 72.1801 16.9002 84.7601 17.3602 97.3501C17.4902 100.96 17.6502 104.56 17.8402 108.17C17.9302 109.97 18.0402 111.77 18.1502 113.57C18.2602 115.41 18.1602 117.38 18.8402 119.11C19.6402 121.13 22.8002 121.54 23.4302 119.11C23.8502 117.5 23.6702 115.95 23.5802 114.31C23.4902 112.59 23.4102 110.87 23.3302 109.15C23.1902 106.04 23.0702 102.92 22.9802 99.8101C22.7902 93.4201 22.6902 87.0301 22.6902 80.6401C22.6902 68.0701 22.9302 55.5101 23.6502 42.9601C23.8502 39.3801 24.0002 35.7901 24.2002 32.2101V32.2201Z" fill="#DBB53E"></path>
<path d="M121.37 117.73C118.1 117.24 114.69 117.22 111.38 117.21C108.16 117.2 104.94 117.19 101.72 117.17C95.2098 117.15 88.6998 117.09 82.1798 117.01C69.3798 116.86 56.5898 116.7 43.7998 116.37C36.5298 116.18 29.0498 115.6 21.8398 116.73C19.7698 117.06 19.8098 120.53 21.8398 120.9C28.1498 122.03 34.7098 121.76 41.0998 121.72C47.5698 121.68 54.0498 121.61 60.5198 121.67C73.3498 121.78 86.1698 121.85 98.9998 122.07C102.55 122.13 106.1 122.19 109.65 122.25C113.32 122.31 117.15 122.5 120.79 122.03C121.86 121.89 122.78 121.3 122.92 120.13C123.03 119.16 122.45 117.89 121.36 117.73H121.37Z" fill="#DBB53E"></path>
<path d="M122.96 32.6C122.84 29.35 122.74 26.11 122.69 22.87C122.68 22.04 121.47 21.37 120.87 22.13C118.98 24.5 118.52 27.27 118.17 30.2C117.79 33.29 117.6 36.38 117.41 39.48C117.01 45.95 116.83 52.42 116.67 58.9C116.35 71.77 116.26 84.64 116.37 97.51C116.43 104.72 116.55 111.94 116.73 119.15C116.82 123.06 123 123.08 122.91 119.15C122.6 106.53 122.47 93.91 122.51 81.28C122.55 68.66 122.91 56.04 122.94 43.42C122.94 39.82 123.1 36.2 122.97 32.61L122.96 32.6Z" fill="#DBB53E"></path>
<path d="M120.83 19.8299C119.22 19.2699 117.49 19.3599 115.81 19.3099C114.12 19.2499 112.43 19.2299 110.74 19.1899C107.52 19.1199 104.31 19.0399 101.09 18.9699C94.58 18.8199 88.06 18.6699 81.55 18.5299C68.73 18.2399 55.88 17.6699 43.06 18.1199C39.39 18.2499 35.7 18.3899 32.05 18.8399C30.3 19.0599 28.55 19.2999 26.81 19.5799C25.04 19.8599 22.89 19.4399 21.38 20.4699C20.73 20.9099 21.16 22.5499 21.87 22.7799C23.32 23.2599 24.88 23.1499 26.4 23.0899C27.99 23.0299 29.58 22.9599 31.18 22.9299C34.37 22.8699 37.57 22.7999 40.76 22.8099C47.25 22.8299 53.73 23.1499 60.21 23.3599C73.15 23.7799 86.1 24.2099 99.04 24.6299C102.58 24.7399 106.12 24.8599 109.66 24.9699C111.43 25.0299 113.2 25.0899 114.97 25.1399C116.97 25.1999 119 25.4199 120.94 24.8499C123.49 24.1099 123.07 20.6299 120.83 19.8399V19.8299Z" fill="#DBB53E"></path>
<path d="M45.5401 67.8899C45.4201 64.8899 45.2401 61.8999 45.0501 58.9099C44.9701 57.6499 44.7801 51.7099 42.4701 52.2299C41.3801 52.4799 41.0001 53.9599 40.8201 54.8999C40.5301 56.3999 40.3601 57.8799 40.2801 59.3999C40.1201 62.3999 40.0201 65.3799 39.9801 68.3799C39.9101 74.3399 39.8601 80.3999 40.4101 86.3399C40.7401 89.8099 45.7701 89.9299 45.9001 86.3399C46.1201 80.1999 45.7701 74.0099 45.5301 67.8799L45.5401 67.8899Z" fill="#212527"></path>
<path d="M78.3002 84.8799C75.4102 83.7499 71.9602 83.6699 68.8902 83.5899C65.8802 83.5099 62.8502 83.5499 59.8402 83.5899C56.9002 83.6199 53.9702 83.8299 51.0402 84.0399C48.0002 84.2599 44.7102 84.3099 41.7902 85.2299C40.0702 85.7699 40.2602 88.4699 41.9802 88.8599C44.8302 89.5099 47.9402 89.3599 50.8402 89.4599C53.8702 89.5599 56.8902 89.7499 59.9202 89.8099C62.8602 89.8699 65.8002 89.9699 68.7502 90.0999C71.6902 90.2299 75.0902 90.4499 77.9502 89.6499C79.8902 89.1099 80.3202 85.6699 78.3002 84.8799Z" fill="#212527"></path>
<path d="M79.4702 83.3601C79.3902 81.8801 79.2902 80.3901 79.2102 78.9101C79.0602 76.0301 78.9502 73.1401 78.8702 70.2501C78.7902 67.4501 78.7102 64.6401 78.6902 61.8401C78.6802 60.3401 78.5802 58.8801 78.3902 57.3901C78.2102 55.9301 78.1602 54.5101 77.6802 53.1401C77.5102 52.6701 75.6702 52.5301 75.4202 53.0901C74.8602 54.3301 74.7802 55.5101 74.4702 56.8601C74.1302 58.3201 73.9802 59.8501 73.9102 61.3501C73.7702 64.3201 73.6502 67.2901 73.6102 70.2501C73.5702 73.1301 73.5702 76.0201 73.6102 78.9101C73.6502 81.8701 73.2102 85.6201 74.7002 88.2801C75.8202 90.2701 78.3502 89.4901 79.1002 87.7001C79.6602 86.3501 79.5502 84.7901 79.4802 83.3501L79.4702 83.3601Z" fill="#212527"></path>
<path d="M77.6401 51.7499C76.2901 51.0399 74.6001 51.2399 73.1101 51.1999C71.6601 51.1599 70.2001 51.1199 68.7501 51.0699L59.7901 50.8099C56.8901 50.7299 53.9701 50.5199 51.0701 50.5999C49.6201 50.6399 48.1701 50.6799 46.7201 50.7199C45.1101 50.7599 43.4401 50.7899 42.0001 51.5799C40.4301 52.4399 40.8601 54.7699 42.2201 55.5399C43.5501 56.2899 45.3101 56.2499 46.7901 56.3099C48.2401 56.3699 49.7001 56.4299 51.1501 56.4899C54.1201 56.6099 57.1201 56.4599 60.1001 56.4199C63.0001 56.3799 65.9001 56.3399 68.8001 56.2999C70.2501 56.2799 71.7001 56.2599 73.1501 56.2399C74.8001 56.2199 76.3501 56.3599 77.8601 55.6099C79.4001 54.8399 78.9701 52.4399 77.6401 51.7399V51.7499Z" fill="#212527"></path>
<path d="M105.24 68.0599C101.67 64.6499 98.1799 61.1399 94.9099 57.4499C93.5299 55.8899 92.1699 54.3599 90.5599 53.0199C88.7099 51.4799 86.7199 50.4099 84.3299 49.8999C82.1399 49.4399 80.9599 52.1799 82.8199 53.4099C84.3899 54.4499 85.7499 55.9799 86.9799 57.3899C88.1899 58.7799 89.4899 60.4899 90.8799 62.1599C93.9299 65.8199 97.1599 69.2999 100.66 72.5599C101.89 73.7099 104.04 73.8499 105.25 72.5599C106.43 71.2999 106.55 69.2999 105.25 68.0599H105.24Z" fill="#212527"></path>
<path d="M106.19 69.8201C106.06 69.0701 105.25 68.4501 104.55 68.2901C102.81 67.8801 101.83 68.9901 100.67 70.0601C99.7901 70.8601 98.9201 71.6601 98.0401 72.4601C96.2401 74.1001 94.5101 75.8201 92.7601 77.5001C91.0501 79.1401 89.3401 80.7801 87.6301 82.4201C86.7801 83.2401 85.9801 84.1101 85.1701 84.9801C84.3001 85.9101 83.2201 86.8401 82.6701 88.0001C81.9201 89.5701 83.3701 91.9801 85.2801 91.1701C86.5301 90.6401 87.4501 89.7401 88.4701 88.8701C89.4201 88.0501 90.4001 87.2601 91.3101 86.4001L96.6001 81.3601C98.3101 79.7301 100.06 78.1201 101.74 76.4501C102.63 75.5701 103.51 74.6801 104.39 73.8001C104.8 73.3901 105.27 72.9901 105.65 72.5401C106.35 71.7101 106.38 70.8401 106.2 69.8101L106.19 69.8201Z" fill="#212527"></path>
<path d="M39.7619 2.96713C38.0661 3.24589 36.3703 3.53733 34.6872 3.85411C34.2665 2.73905 33.8585 1.61131 33.4759 0.483577C33.2847 -0.073955 32.6344 -0.12464 32.2647 0.204811C31.0534 1.24385 30.7601 3.00514 30.4668 4.63972C27.8913 5.14657 25.3157 5.66609 22.7528 6.23629C21.8603 6.42636 21.7073 7.9469 22.5871 8.26368C24.7164 9.03662 26.935 9.45477 29.1153 10.025C28.6818 11.1147 28.2355 12.2044 27.8403 13.3195C27.8403 13.3195 27.853 13.3195 27.8658 13.3195C27.8148 13.5096 27.8403 13.6996 27.9168 13.8517C27.4832 14.3332 27.088 14.84 26.7565 15.4102C26.272 16.2339 27.037 17.3743 27.8658 16.8801C29.1536 16.1198 30.1481 14.9287 31.2319 13.8263C31.9841 13.0534 32.7492 12.2804 33.5014 11.5075C34.139 11.8116 34.7637 12.1537 35.363 12.5465C35.3885 12.5846 35.414 12.6099 35.4395 12.6479C35.4778 12.7239 35.516 12.8 35.5543 12.876C35.6945 13.1548 35.975 13.3068 36.2555 13.2054C36.9823 13.8137 37.6453 14.5106 38.1681 15.3595C38.5889 16.0184 39.5707 15.2835 39.2391 14.5613C38.2829 12.5339 37.3776 10.4811 36.5105 8.40307C36.7656 8.13697 37.0206 7.88355 37.2756 7.61745C38.1299 6.74314 39.0351 5.74212 40.1572 5.34931C41.4705 4.89315 41.1772 2.71371 39.7747 2.95446L39.7619 2.96713Z" fill="#DBB53E"></path>
<path d="M80.2148 128.392C80.8668 130.442 80.3734 129.375 81.0253 131.425C81.3447 132.436 81.6436 133.448 81.9516 134.449C82.1057 134.95 82.2413 135.473 82.4342 135.949C82.6866 136.605 83.0613 137.041 83.5649 137.526C84.2282 138.16 85.3928 137.627 85.503 136.779C85.5981 136.088 85.5626 135.534 85.3694 134.851C85.2492 134.378 85.038 133.925 84.8564 133.458C84.4645 132.445 84.0613 131.422 83.6694 130.409C82.9081 128.401 83.2922 129.511 82.5309 127.502C81.9645 125.991 79.7189 126.862 80.1923 128.373L80.2148 128.392Z" fill="#DBB53E"></path>
<path d="M70.8581 138.882C71.0679 133.331 71.157 134.166 70.7174 128.481C70.6262 127.336 68.9232 127.038 68.7491 128.078C67.8843 133.331 68.2524 132.504 68.0132 137.928C67.9868 138.681 68.4232 139.492 69.2337 139.758C69.9454 139.992 70.8208 139.643 70.8581 138.882Z" fill="#DBB53E"></path>
<path d="M58.2412 126.502C58.955 127.423 58.5782 128.713 57.93 130.395C57.0303 133.03 56.4145 135.588 55.1946 138.095C54.7461 139.014 53.1234 138.921 53.0843 137.763C53.0584 136.95 53.0576 136.172 53.2366 135.373C53.39 134.663 53.6239 133.967 53.846 133.28C54.2819 131.892 55.4337 129.239 55.4337 129.239C55.4337 129.239 56.1992 127.945 56.7275 126.959C56.9339 126.575 57.8099 125.946 58.2412 126.502Z" fill="#DBB53E"></path>
</svg>