<svg width="140" height="140" viewBox="0 0 140 140" fill="none" xmlns="http://www.w3.org/2000/svg">
<circle cx="70" cy="70" r="56" fill="#A391FF"></circle>
<path d="M80 70C80 81.598 70.598 91 59 91C47.402 91 38 81.598 38 70C38 58.402 47.402 49 59 49C70.598 49 80 58.402 80 70Z" fill="white"></path>
<path d="M77 70C77 60.0589 68.9411 52 59 52C49.0589 52 41 60.0589 41 70C41 79.9411 49.0589 88 59 88V93C46.2975 93 36 82.7025 36 70C36 57.2975 46.2975 47 59 47C71.7025 47 82 57.2975 82 70C82 82.7025 71.7025 93 59 93V88C68.9411 88 77 79.9411 77 70Z" fill="#212527"></path>
<path d="M97.5 70C97.5 60.335 89.665 52.5 80 52.5V47.5C92.4264 47.5 102.5 57.5736 102.5 70C102.5 82.4264 92.4264 92.5 80 92.5V87.5C89.665 87.5 97.5 79.665 97.5 70Z" fill="#212527"></path>
</svg>