<svg width="178" height="57" viewBox="0 0 178 57" fill="none" xmlns="http://www.w3.org/2000/svg">
<g clip-path="url(#clip0_132_1164)">
<path d="M22.7476 44.0259L17.4893 45.1457C14.1768 45.8223 11.3275 46.5455 8.96476 47.1054C4.33186 48.2953 1.64478 49.1352 1.64478 49.1352C1.64478 49.1352 4.33186 48.5053 9.08058 47.5487C11.397 47.1055 14.3158 46.5222 17.6515 45.9856C20.9871 45.449 24.6008 44.8424 28.7936 44.2592C31.3417 43.8392 35.6039 43.3026 38.4068 42.976L38.708 41.3662C35.7198 41.8095 31.2953 42.4394 28.6083 42.9527L22.7476 44.0259Z" fill="black"></path>
<path d="M89.1834 37.2604C83.6471 37.4004 78.1108 37.517 72.6671 37.9137C69.9337 38.077 67.2466 38.1936 64.5827 38.4036L56.7068 39.1035C53.788 39.3135 49.3868 39.8501 46.607 40.2L46.3059 42.1364C49.2478 41.8331 53.8112 41.3665 56.8921 41.1332L64.7217 40.5266C67.3856 40.34 70.0727 40.2467 72.7829 40.1067C78.2034 39.7567 83.6934 39.7101 89.2066 39.6168C93.631 39.4301 99.3758 39.5234 103.8 39.5234L102.387 37.1904C98.4029 37.1438 93.1214 37.1204 89.1602 37.2604H89.1834Z" fill="black"></path>
<path d="M169.634 44.749L161.063 43.0225C157.773 42.3459 154.113 41.856 149.897 41.2494L148.137 41.0161V42.3926L149.643 42.5559C153.743 43.0925 157.542 43.3725 160.877 43.8857L169.471 45.1922L177 46.3121L169.634 44.749Z" fill="black"></path>
<path d="M53.3711 17.266C55.6875 18.4792 55.1316 23.0986 55.1316 23.0986C54.9694 25.5949 54.3903 28.0679 53.4174 30.3776C52.3982 30.6809 51.5179 30.9375 50.8462 31.1942C47.9969 32.2207 47.302 34.2038 48.2749 35.4403C49.2478 36.6768 52.0044 36.3735 52.0044 36.3735C52.0044 36.3735 55.6181 36.0002 58.1893 30.2843C59.3475 29.911 60.5058 29.4677 61.9188 28.9778V29.7943C61.9188 30.0743 62.6369 34.7637 66.9918 34.7637C69.123 34.6704 71.1614 33.8538 72.7598 32.4307C73.779 31.5908 74.7056 30.6342 75.5395 29.6077L75.9333 29.1178C75.6553 30.5642 75.887 32.0807 76.6051 33.3639C77.2074 34.1104 78.1803 34.4604 79.13 34.2504C79.13 34.2504 79.6396 34.2504 80.4041 33.2706C80.4041 33.2706 79.7091 32.8039 79.964 31.2408C80.2651 29.3744 80.682 27.508 81.1917 25.6882C81.9561 23.3552 82.5352 20.9755 82.9522 18.5492C85.6393 14.7697 86.8901 14.3031 87.3071 14.8163C87.6314 15.1896 88.0947 15.4229 88.5812 15.4463C88.5812 15.4463 89.7162 15.5862 90.4575 13.9065C90.9208 12.9966 90.9208 11.9234 90.4575 11.0135C88.4422 10.9902 86.5195 11.8301 85.176 13.3465C84.342 14.1864 83.5776 15.0496 82.8595 15.9829C82.8132 15.6796 82.6974 15.3763 82.5352 15.1196C82.1414 14.4431 81.4928 13.9531 80.7515 13.7898C79.5702 13.5332 78.3424 13.9998 77.6243 14.9797C77.6243 14.9797 78.2961 14.9797 78.0876 17.0794C78.0876 17.0794 76.7441 23.0519 76.2576 26.2482C75.0762 27.9046 73.7559 29.4677 72.3197 30.9142C72.3197 30.9142 68.706 34.6004 67.3856 30.9142C67.0382 29.4911 66.9918 28.0213 67.2698 26.5981C68.0806 26.2015 68.845 25.7349 69.5863 25.1983C71.8795 23.5185 73.6632 21.2322 74.7519 18.5958C74.7519 18.5958 76.2576 14.863 73.8022 13.2766C71.3467 11.6901 66.6675 15.7729 66.6675 15.7729C63.7256 18.9458 62.0809 23.0986 62.0346 27.438L60.8764 27.9279C60.2278 28.2079 59.5792 28.4412 58.9074 28.6978C59.0927 28.2079 59.2549 27.718 59.3939 27.2047C61.8956 18.6425 58.004 15.7962 58.004 15.7962C58.004 15.7962 54.0429 11.9701 48.9698 18.4092C48.9003 18.1526 48.8077 17.9193 48.6687 17.686C48.2981 17.0094 47.6495 16.5195 46.9082 16.3328C45.7268 16.0762 44.4759 16.5428 43.7578 17.5227C43.7578 17.5227 44.4296 17.5227 44.2211 19.6457L42.0668 30.7742C38.2678 36.9101 37.1559 33.9938 37.1559 33.9938C37.2023 32.3607 37.5497 30.7276 38.152 29.2111C38.8006 27.298 39.3566 25.3383 39.7735 23.3552C40.8159 18.9925 39.7735 17.8259 39.7735 17.8259C39.3102 16.6828 38.1752 15.9829 36.9475 16.0762C34.8395 16.2162 34.631 17.2194 34.631 17.2194C36.2294 20.3223 32.4767 29.4911 32.4767 29.4911C32.4767 29.4911 30.3919 35.0903 28.9557 36.0935C27.5195 37.0967 27.5195 35.4869 27.5195 35.4869C27.7743 33.5972 28.2144 31.7308 28.8862 29.9343C29.6043 27.8579 30.1834 25.7349 30.6004 23.5885C31.3185 19.599 29.1642 18.2926 29.1642 18.2926C28.4692 17.9659 27.7048 17.8726 26.9636 17.9893C26.1991 17.9893 25.481 18.4559 25.1104 19.1324C24.3923 20.5089 23.5352 21.7688 22.516 22.9353C22.1222 23.4252 21.682 23.8918 21.2188 24.3117C21.1724 24.3117 21.1493 24.3117 21.1029 24.3117C20.547 24.8483 19.9679 25.3149 19.3424 25.7582C18.4622 24.825 17.4429 24.0784 16.2847 23.5418C13.0185 22.1887 8.22347 21.7221 6.5093 20.2523C5.18892 19.1558 4.93411 17.2194 5.90702 15.7962C9.82182 7.81728 20.5702 4.57438 20.5702 4.57438C20.5702 4.57438 30.4846 1.26149 30.4846 4.38774C30.4846 7.51399 24.7861 9.89367 24.7861 9.89367C24.7861 9.89367 25.1567 12.2267 30.6235 8.51719C36.0904 4.80768 33.1021 3.24456 33.1021 3.24456C33.1021 3.24456 27.0099 -1.42149 14.0146 4.06111C1.01931 9.54372 0.115895 16.1695 0.115895 16.1695C-0.347395 18.3625 0.486527 20.6256 2.27019 21.9787C3.66006 22.9819 5.23525 23.7052 6.90309 24.0784C9.21955 24.6617 13.8524 24.8717 16.1689 27.4613C15.2655 27.8113 14.3157 28.0912 13.3428 28.2312H13.1343L11.7908 28.4645C5.14259 29.8877 3.28943 33.1306 3.28943 33.1306C7.21635e-05 40.3396 7.78335 41.2962 7.78335 41.2962C7.78335 41.2962 15.5203 43.1859 20.0837 37.2134C22.0295 35.137 22.7013 32.1507 21.821 29.4211C21.4041 28.4179 20.825 27.4847 20.13 26.6448C20.8018 26.1782 21.4272 25.6649 22.0295 25.105C22.2843 24.8717 22.5391 24.615 22.7476 24.3817L22.9329 24.1951L23.4426 23.5652V23.4485C23.4426 23.2852 23.6974 23.1219 23.79 22.9586C24.2765 22.142 24.8324 21.3721 25.4115 20.6256C25.3652 21.4188 25.2494 22.1887 25.0641 22.9586C24.3923 25.6416 23.8595 28.3712 23.512 31.1242C23.3499 32.3373 23.3499 33.5972 23.512 34.8103C23.512 34.8103 24.1375 39.4764 27.6585 38.3332C31.1795 37.19 32.9168 31.3341 32.9168 31.3341C32.9168 31.3341 32.9168 35.5802 35.4649 36.4668C38.013 37.3533 39.6345 35.6502 41.1634 33.8771V34.3204C41.1634 34.3204 39.565 41.9027 39.4724 43.9791C39.4724 43.9791 38.6616 48.3185 39.9588 49.6484C40.5611 50.4183 41.534 50.7682 42.4838 50.5582C42.4838 50.5582 42.9934 50.5582 43.7578 49.5784C43.7578 49.5784 43.0629 49.1118 43.3177 47.5253C43.5725 45.9389 44.3369 41.2728 45.0319 38.8231C45.7268 36.3735 47.4873 28.5112 47.4873 28.5112C47.4873 28.5112 48.3907 24.3817 48.7845 21.7221C50.7767 19.0158 52.4445 16.7294 53.3711 17.266ZM51.9349 33.5972C51.9349 33.5972 50.7303 35.3936 49.8964 34.2738C49.0625 33.1539 51.4484 32.524 52.6993 31.9407C52.5603 32.524 52.3055 33.0373 52.0275 33.5972H51.9349ZM68.3585 20.9755C68.984 19.1091 69.8642 17.3127 70.9993 15.7029C72.366 14.2098 72.9914 15.073 72.9914 15.073C73.4084 15.9362 73.4779 16.9394 73.1767 17.8726C72.9683 18.7592 72.6208 19.599 72.1112 20.3689C71.4162 21.5821 70.5128 22.632 69.4241 23.4719C68.7755 23.9851 68.0806 24.4517 67.3625 24.895C67.6404 23.5652 67.9879 22.2354 68.4512 20.9522H68.3585V20.9755ZM13.3892 38.2632C13.3892 38.2632 8.03816 42.0894 7.13474 38.0532C6.23132 34.0171 11.2117 31.8941 11.2117 31.8941C11.2117 31.8941 11.8603 31.6374 12.8795 31.1708L14.3157 30.4709L14.5474 30.3543L15.1033 30.0743L15.6593 29.771L16.0531 29.561L16.8407 29.1178H16.9797C17.1418 29.4911 17.2808 29.8877 17.3735 30.3076C18.3695 35.067 13.3892 38.2632 13.3892 38.2632Z" fill="black"></path>
<path d="M136.601 39.523C131.968 39.0798 126.872 38.3565 121.683 38.1699C120.919 38.1465 120.131 38.0766 119.367 38.0532C119.483 38.3565 119.552 39.0331 118.788 40.1296L121.567 40.2463C124.162 40.2463 126.687 40.5496 129.165 40.7362L136.439 41.2728C137.806 41.2961 140.307 41.5528 141.628 41.6694V40.0596L136.601 39.523Z" fill="black"></path>
<path d="M108.418 24.2654C107.862 27.275 107.931 28.3949 108.163 29.9347C108.371 31.2178 109.298 32.3843 110.572 32.501C110.572 32.501 111.383 32.7576 112.541 31.6378C112.541 31.6378 111.753 30.8445 112.332 28.3949C112.912 25.9452 113.884 19.716 116.711 15.4933C116.711 15.4933 118.193 13.3235 119.583 14.8633C120.973 16.4031 121.899 15.5632 121.899 15.5632C121.899 15.5632 124.216 13.6502 122.733 11.6904C120.556 11.1772 118.239 11.6904 116.502 13.1136C115.784 13.9301 115.182 14.84 114.765 15.8432C114.765 15.8432 114.626 12.9269 111.962 13.0203C111.962 13.0203 110.132 13.0203 109.645 14.1868C109.645 14.1868 110.363 14.1868 109.854 17.0797C109.344 19.9727 108.394 24.2654 108.394 24.2654H108.418Z" fill="black"></path>
<path d="M148.345 9.12395C151.612 8.84399 152.029 7.46751 152.029 7.46751C152.029 7.46751 151.334 3.26807 148.345 3.26807C146.678 3.26807 145.241 4.38792 144.778 5.9977V6.83759C144.778 6.83759 144.963 9.42725 148.345 9.12395Z" fill="black"></path>
<path d="M153.789 21.5824C153.21 22.9822 152.816 24.452 152.608 25.9451C151.658 33.3641 154.391 35.7205 154.391 35.7205C155.735 37.237 157.889 37.7736 159.766 37.027C161.85 35.9771 163.495 34.2274 164.399 32.0576C165.163 37.6336 167.781 37.5169 167.781 37.5169C170.583 37.6102 173.132 35.8838 174.081 33.2242C169.726 36.2338 169.124 34.6473 169.124 34.6473C169.124 34.6473 168.221 34.6473 169.657 26.3417C171.093 18.0362 169.495 16.3097 169.495 16.3097C168.985 15.3299 167.966 14.7466 166.877 14.7699C165.742 14.7933 164.677 15.3532 164.005 16.2864C165.209 17.033 164.7 20.3459 164.63 21.3024C164.561 22.259 164.236 27.8349 164.236 27.8349C163.773 29.6546 163.032 31.4044 162.082 33.0142C160.831 35.5105 159.279 34.554 159.279 34.554C159.279 34.554 156.036 32.0343 158.492 23.8687C160.947 15.7032 164.931 13.9534 164.931 13.9534C164.514 13.8134 164.097 13.7434 163.657 13.7434C163.148 13.4635 161.596 12.9735 159.024 15.0032L158.77 15.1899C158.468 15.4232 158.167 15.6798 157.889 15.9365C155.086 18.1528 152.469 20.6492 150.129 23.3555L148.369 25.4319C148.369 25.0119 148.369 24.592 148.531 24.172L148.878 21.839C149.156 20.0426 149.388 18.6194 149.55 17.5696C150.06 13.7667 151.125 13.7434 151.125 13.7434C150.5 12.3203 149.156 11.3404 147.604 11.2004C145.89 10.9438 144.477 12.9969 144.477 12.9969C142.832 15.8431 141.419 18.8527 140.238 21.9323C138.269 27.2516 137.412 28.6981 135.605 30.4712C134.98 31.1244 132.455 33.2708 134.725 27.1816C135.906 24.3587 136.74 21.3957 137.25 18.3628C137.829 14.7 136.925 11.6204 132.246 11.7137C125.806 11.7137 120.317 16.4731 119.367 22.8889C119.367 22.8889 117.166 33.2242 124.162 33.7841C126.617 33.9707 128.609 31.941 130.161 29.118C130.161 29.118 130.439 32.9675 132.779 33.4575C135.119 33.9474 137.088 31.1244 137.088 31.1244C138.246 29.398 139.335 27.6249 140.307 25.7818C141.049 24.1254 143.157 19.4127 144.222 16.2164C143.574 20.2292 143.203 24.2887 143.157 28.3715C140.678 31.661 137.458 35.9305 136.207 38.1002L135.999 38.4035L137.69 38.6368C138.802 36.8637 141.558 33.3641 143.157 31.1478V33.6674C143.11 38.4735 142.809 43.2562 142.253 48.0388C141.975 49.672 140.4 52.9615 137.366 52.3549C135.906 52.2383 134.702 51.1418 134.447 49.6953C134.076 47.0823 134.609 44.4227 135.953 42.1596L134.123 41.973C133.752 42.6029 133.451 43.2562 133.173 43.9327C132.339 45.9858 132.154 48.2722 132.64 50.4419C133.682 53.2648 136.37 55.1312 139.358 55.1079C142.902 55.2246 145.983 52.7516 146.678 49.252C147.141 46.3824 147.326 43.4661 147.257 40.5498C147.442 35.0206 147.72 31.2178 148.068 27.9282L150.06 25.7818C151.148 24.4287 152.446 22.9589 153.789 21.5824ZM132.571 15.7498C132.316 17.7329 131.852 19.6926 131.227 21.6057C130.671 24.6153 129.536 27.4849 127.891 30.0512C127.891 30.0512 125.806 33.2941 124.417 29.7713C123.884 27.7882 123.884 25.6652 124.417 23.6821C124.996 20.3459 126.409 17.2196 128.494 14.56C131.158 11.5037 132.825 14.3267 132.571 15.7498Z" fill="black"></path>
<path d="M114.447 38.5909C111.53 37.2398 109.053 35.3296 107.202 32.674C104.03 28.7372 100.766 23.1231 99.1226 20.9101C101.299 19.3028 108.127 12.9433 110.118 11.103C113.104 8.1446 112.433 6.28102 112.433 6.28102C112.433 6.28102 112.433 5.51229 111.253 4.51061C110.558 3.90495 109.655 3.64871 108.752 3.76518C108.845 4.30096 108.752 4.83674 108.521 5.32593C107.85 6.8168 106.97 8.19119 105.928 9.42581C103.938 12.1979 96.3216 20.0016 95.3725 21.1431C95.7429 19.4659 96.229 17.4159 96.854 14.8535C98.1272 10.0315 100.627 4.51061 95.141 4.30096C95.141 4.30096 92.8262 4.30096 92.3632 5.72194C92.3632 5.72194 93.0577 5.97818 92.6641 8.49402C92.2706 11.0099 93.0345 7.93495 91.5299 15.4359C90.0252 22.9368 89.4696 28.9235 89.4696 28.9235C89.4696 28.9235 88.8678 34.095 92.4558 34.2347C93.2892 34.2813 94.0762 33.7456 94.354 32.9535C94.354 32.9535 93.7753 32.6507 93.9373 30.7871C94.1225 29.2264 94.5623 25.8253 94.9096 24.2879L97.2244 22.6572C98.405 23.7055 99.6782 26.6639 102.78 32.5808C106.854 40.3147 109.887 42.1317 109.887 42.1317C109.887 42.1317 113.614 44.9038 116.137 42.4112C118.66 39.9187 117.642 38.917 117.642 38.917C116.785 39.2664 115.211 38.9869 114.447 38.5909Z" fill="black"></path>
</g>
<defs>
<clipPath id="clip0_132_1164">
<rect width="177" height="57" fill="white"></rect>
</clipPath>
</defs>
</svg>