<svg width="25" height="55" viewBox="0 0 25 55" fill="none" xmlns="http://www.w3.org/2000/svg">
<path d="M24.8516 35.0933C24.3988 36.7722 22.4366 37.9932 20.7764 37.3827C17.3048 36.1617 13.8333 35.0933 10.3618 34.1775C14.1352 40.2826 17.9086 46.2351 21.682 52.1877C22.7385 53.8666 20.1726 56.0034 18.8142 54.4771C12.1731 46.9983 6.13564 38.909 0.551043 30.6671C-1.26018 28.0724 1.75852 25.325 4.32442 25.7829C9.00341 26.6987 13.5315 27.9197 17.9086 29.2934C16.5502 25.1724 13.2296 19.8304 12.173 17.3884C10.3618 12.9621 8.39967 8.68856 6.58845 4.26234C5.0791 0.751882 11.1165 -1.8428 12.6258 1.66766C15.6445 8.53594 18.5123 15.4042 21.3801 22.2725C23.1913 26.3935 25.9081 30.3618 24.7007 35.0933H24.8516Z" fill="#0569E7"></path>
</svg>