<svg width="140" height="140" viewBox="0 0 140 140" fill="none" xmlns="http://www.w3.org/2000/svg">
<path d="M4.08984 52.1199L37.0898 14.1199H103.09L136.09 52.1199L70.6698 128.12L4.08984 52.1199Z" fill="#4FA2F7"></path>
<path d="M43.0701 55.56L70.8201 86.24L98.5801 55.56L86.1901 39.25L72.0901 47.55L70.8201 48.3L69.5501 47.55L55.4501 39.25L43.0601 55.56H43.0701Z" fill="white"></path>
<path d="M134.88 49.4299C134.23 48.7199 134.39 48.7399 133.77 48.1099C133.01 47.3299 132.34 46.3399 131.67 45.6399C130.53 44.4499 129.39 42.7199 128.16 41.3299C125.61 38.4399 123.6 36.2999 121.17 32.8999C118.74 29.4999 116.68 25.9999 114.18 22.6299C111.59 19.1399 108.83 14.2899 104.83 12.4699C103.32 11.7799 101.61 11.8899 100.54 13.3499C99.59 14.6499 99.56 16.6499 100.8 17.8199C101.5 18.4799 102.19 19.0999 102.94 19.6999C102.67 19.4899 103.34 20.0399 103.43 20.1099C103.78 20.4099 104.11 20.7099 104.45 21.0199C105.69 22.1799 106.83 23.4399 107.91 24.7599C108.84 25.8999 109.56 26.9699 110.55 28.3499C111.67 29.9299 112.59 31.1199 113.55 32.4799C117.54 38.1499 121.07 42.5899 125.64 47.6799C126.96 49.1399 127.68 49.9499 129.35 51.8199C129.63 52.1299 130 52.4799 130.28 52.8199C126.85 56.3499 124.33 60.1499 121.14 63.8999C116.89 68.8799 113.12 74.2599 108.86 79.2399C104.62 84.1899 100.59 89.0499 96.21 93.8699C91.74 98.7899 86.84 104.66 82.86 110C78.51 115.85 74.1 120.7 71.07 127.39C70.68 128.26 71.64 129.08 72.37 128.42C77.17 124.13 81.74 119.15 85.78 114.13C89.85 109.08 94.28 104.15 98.57 99.3099C102.89 94.4299 106.75 89.7199 111.11 84.8799C115.52 79.9899 119.16 74.4799 123.26 69.3199C127.72 63.6999 131.48 59.1699 136.33 53.9299C137.52 52.6399 136.17 50.8499 134.87 49.4299H134.88Z" fill="#2E88D8"></path>
<path d="M33.81 15.5899C34.34 14.7699 34.9 14.3899 35.99 14.0599C36.95 13.7699 37.89 13.4599 38.83 13.1399C40.99 12.4099 43.32 12.1999 45.63 11.9099C50.56 11.2799 55.05 11.3299 59.5 11.2699C68.61 11.1499 77.61 11.0799 86.71 11.3299L94.43 11.5399C97.19 11.6199 100.15 11.5499 102.85 12.0599C106.13 12.6699 106.35 16.9899 102.85 17.4899C100.43 17.8299 97.89 17.7399 95.43 17.6899C93.19 17.6499 90.95 17.6099 88.71 17.5799C84.13 17.4999 79.54 17.4399 74.96 17.4399C66.08 17.4399 57.2 17.6299 48.32 17.7199C45.84 17.7399 43.35 17.8199 40.87 17.7099C39.59 17.6499 38.33 17.4599 37.05 17.4299C35.75 17.3999 34.96 17.2199 33.97 16.5299C33.63 16.2899 33.62 15.8799 33.82 15.5899H33.81Z" fill="#2E88D8"></path>
<path d="M35.9202 14.2298C34.9502 14.4098 34.2002 15.2398 33.4302 15.8698C32.5902 16.5498 31.7902 17.2598 31.0002 18.0098C29.5102 19.4198 28.1402 20.9798 26.7502 22.4998C24.0602 25.4398 21.4202 28.4098 18.9002 31.5098C16.3802 34.6098 13.9002 37.7398 11.4702 40.9198C10.2102 42.5698 8.96019 44.2298 7.73019 45.8898C6.49019 47.5698 4.68019 49.4198 4.10019 51.4798C3.48019 53.6798 5.99019 55.4198 7.74019 54.2998C9.41019 53.2298 10.6002 50.9898 11.8202 49.3998C12.9902 47.8698 14.1702 46.3498 15.3602 44.8398C17.8802 41.6498 20.4502 38.4998 23.0602 35.3898C25.6302 32.3398 28.1602 29.2498 30.7402 26.2098C32.0302 24.6898 33.3802 23.2198 34.6102 21.6498C35.2802 20.7898 35.9202 19.9198 36.5502 19.0198C37.1302 18.1898 37.8802 17.4098 38.0402 16.3698C38.2602 14.9398 37.2302 13.9998 35.9302 14.2398L35.9202 14.2298Z" fill="#2E88D8"></path>
<path d="M72.2901 125.77C70.0401 123.31 67.7901 120.84 65.5401 118.38C64.4701 117.21 63.3701 116.07 62.3301 114.87C61.1901 113.56 60.2101 112.12 59.1101 110.78C55.0701 105.89 51.0101 101.07 47.2001 95.9998C39.3601 85.5798 30.4601 75.9198 21.8901 66.0698C19.4801 63.2998 17.0601 60.5298 14.6501 57.7498C13.3901 56.2998 12.0301 54.9498 10.6801 53.5798C9.32013 52.1898 8.00013 50.9198 6.18013 50.1398C4.96013 49.6198 3.77013 50.9898 4.05013 52.0998C4.46013 53.7598 5.43013 55.0798 6.46013 56.4398C7.47013 57.7798 8.45013 59.1498 9.50013 60.4498C11.5901 63.0498 13.8501 65.5298 16.0201 68.0598C20.2601 73.0098 24.5001 77.9598 28.7401 82.9098C33.0101 87.8998 37.4001 92.7998 41.4501 97.9698C43.4101 100.48 45.3001 103.04 47.3101 105.52C49.2901 107.96 51.4901 110.23 53.6701 112.49C56.1901 115.1 58.9401 117.47 61.4301 120.12C64.0601 122.91 66.6901 125.71 69.3201 128.5C71.1101 130.4 74.0601 127.68 72.3001 125.76L72.2901 125.77Z" fill="#2E88D8"></path>
<path d="M87.4901 39.0398C87.2801 37.8498 86.1501 37.0098 84.8901 37.0098C83.7501 37.0098 82.6401 37.7498 81.6601 38.2398C79.8601 39.1398 78.1601 40.1998 76.4301 41.2098C74.7001 42.2198 72.9701 43.2398 71.2401 44.2498C71.2101 44.2698 71.1901 44.2798 71.1601 44.2898C71.0501 44.2498 70.9301 44.1998 70.8301 44.1298C70.0001 43.6298 69.1901 43.1198 68.3501 42.6498C66.6601 41.7198 64.9001 40.8898 63.1401 40.0998C61.4101 39.3198 59.5301 38.2898 57.6701 37.8698C55.0201 37.2698 53.5001 39.2598 52.0101 40.9898C50.6501 42.5598 49.1701 43.9798 47.8701 45.5998C46.4501 47.3698 44.8601 48.8198 43.8501 50.5398C43.3701 51.3598 42.9301 52.1798 42.5501 53.0498C42.1701 53.9298 41.6401 54.8498 41.6401 55.8198C41.6401 56.2998 43.1401 56.8098 43.5601 56.6198C44.2501 56.2998 44.7201 55.7198 45.2501 55.1998C45.9401 54.5198 46.6001 53.8498 47.2501 53.1398C48.4501 51.8098 49.7301 50.5598 50.9501 49.2498C52.1801 47.9298 53.4501 46.6498 54.7601 45.4098C55.3701 44.8398 55.9801 44.2698 56.6101 43.7098C56.6801 43.6498 56.7801 43.5698 56.8801 43.4998C56.9601 43.5398 57.0401 43.5698 57.1201 43.6098C60.6101 45.2598 63.9201 46.6798 67.2301 48.6498C68.4901 49.3998 69.9501 50.4398 71.2801 50.4098C72.4101 50.3898 72.5501 50.1198 73.3801 49.6598C75.0501 48.7198 76.4201 47.7898 77.9701 46.8398C79.6701 45.7898 81.5101 44.9298 83.4201 43.8298C85.1301 42.8398 87.9001 41.3098 87.4901 39.0398Z" fill="#212527"></path>
<path d="M100.26 54.0399C99.3802 52.5699 98.3202 51.1799 97.3202 49.7899C96.3502 48.4299 95.3802 47.0699 94.3402 45.7699C93.3002 44.4599 92.2402 43.1599 91.1702 41.8799C90.0302 40.5199 88.7902 38.7899 87.1802 37.9799C85.6102 37.1899 83.9702 38.7499 84.4502 40.3799C84.9402 42.0299 86.3102 43.5199 87.3402 44.8699C88.3202 46.1599 89.2802 47.4499 90.2202 48.7599C91.1702 50.0699 92.1502 51.3499 93.1102 52.6499C94.1302 54.0399 95.0602 55.4999 96.1302 56.8499C96.9702 57.9099 98.4102 58.3399 99.5902 57.5399C100.76 56.7499 100.97 55.2199 100.27 54.0499L100.26 54.0399Z" fill="#212527"></path>
<path d="M97.4699 55.2299C94.6899 57.3499 92.4099 59.9799 89.9999 62.4599C87.5899 64.9499 85.0599 67.3399 82.7199 69.8899C80.4299 72.3899 78.1199 74.8799 75.8399 77.3899C74.6999 78.6499 73.5599 79.8999 72.4099 81.1499C71.1799 82.4999 69.4299 83.9099 68.6199 85.5199C67.4799 87.7799 69.8999 90.66 72.4399 89.16C74.0099 88.2299 75.2199 86.6199 76.4599 85.3199C77.6799 84.0399 78.8999 82.7499 80.1199 81.4599C82.4999 78.9299 84.8299 76.3599 87.1399 73.7699C89.4599 71.1799 91.5599 68.3899 93.7499 65.6999C95.9899 62.9399 98.3999 60.2499 100.12 57.1599C101.05 55.4799 98.9399 54.1199 97.4899 55.2199L97.4699 55.2299Z" fill="#212527"></path>
<path d="M72.8098 84.5898C70.9698 81.5098 68.1798 78.9298 65.8098 76.2898L58.6898 68.3798C56.3798 65.8098 54.0698 63.2498 51.7098 60.7398C50.4598 59.4198 49.2398 58.0698 47.9698 56.7698C46.6798 55.4498 45.3298 54.5898 43.6498 53.9198C42.4798 53.4498 41.4098 54.8598 41.7098 55.9698C42.6698 59.4898 45.2998 62.0298 47.5398 64.7398C49.8098 67.4798 52.1298 70.1698 54.4598 72.8598C56.7198 75.4698 58.9898 78.0798 61.2498 80.6998C63.6598 83.4798 65.9398 86.5498 68.8398 88.7998C71.2698 90.6998 74.2698 87.0198 72.8198 84.5998L72.8098 84.5898Z" fill="#212527"></path>
<path d="M22.636 115.744C23.9568 114.644 25.2776 113.53 26.5857 112.403C27.5001 113.18 28.4146 113.97 29.3163 114.773C29.7608 115.174 30.345 114.89 30.5101 114.41C31.0308 112.87 30.4212 111.173 29.8497 109.567C31.8309 107.819 33.7867 106.058 35.7171 104.258C36.3902 103.637 35.7679 102.212 34.8408 102.381C32.6183 102.782 30.4847 103.507 28.3257 104.116C28.1606 102.925 28.0082 101.746 27.7795 100.555C27.7795 100.555 27.7668 100.555 27.7541 100.555C27.7033 100.361 27.589 100.205 27.4493 100.115C27.5763 99.4671 27.6652 98.8197 27.6779 98.1463C27.6779 97.1751 26.4587 96.5536 25.9888 97.3953C25.2522 98.729 24.9855 100.27 24.6045 101.798C24.3378 102.873 24.0711 103.935 23.7917 105.009C23.0932 105.074 22.382 105.074 21.6708 105.022C21.6327 105.009 21.5946 104.996 21.5565 104.971C21.4803 104.919 21.4041 104.88 21.3406 104.828C21.0739 104.647 20.7564 104.66 20.5659 104.893C19.6388 104.724 18.7117 104.427 17.8354 103.948C17.1496 103.572 16.6543 104.724 17.302 105.191C19.1308 106.499 20.9342 107.871 22.7249 109.27C22.636 109.632 22.5471 109.995 22.4582 110.344C22.1534 111.562 21.874 112.895 21.0993 113.815C20.1849 114.89 21.5311 116.664 22.6233 115.744H22.636Z" fill="#2E88D8"></path>
<path d="M129.242 31.9362C131.302 31.3183 130.143 31.5126 132.204 30.8947C133.218 30.5887 134.223 30.2645 135.223 29.9543C135.724 29.7992 136.232 29.6162 136.734 29.5071C137.418 29.3457 137.99 29.409 138.674 29.5512C139.572 29.7414 139.789 31.0037 139.151 31.573C138.633 32.0415 138.155 32.3246 137.483 32.55C137.024 32.7175 136.531 32.7987 136.043 32.912C134.985 33.1598 133.914 33.4034 132.856 33.6511C130.768 34.1549 131.901 33.8465 129.813 34.3503C128.246 34.7351 127.699 32.3891 129.214 31.9279L129.242 31.9362Z" fill="#2E88D8"></path>
<path d="M135.213 16.5145C130.868 19.9743 131.593 19.5513 126.754 22.5674C125.778 23.1731 124.528 21.9785 125.263 21.2216C128.98 17.4108 128.532 18.1978 132.758 14.7891C133.349 14.3217 134.261 14.1921 134.956 14.6868C135.566 15.1215 135.804 16.033 135.213 16.5145Z" fill="#2E88D8"></path>
<path d="M115.52 16.4973C116.685 16.4515 117.43 15.3338 118.301 13.7555C119.74 11.372 121.303 9.2551 122.438 6.70853C122.853 5.77443 121.739 4.59136 120.827 5.30602C120.187 5.80929 119.591 6.30893 119.095 6.95978C118.65 7.53378 118.267 8.16057 117.883 8.77295C117.101 9.99892 115.81 12.5876 115.81 12.5876C115.81 12.5876 115.311 14.0061 114.897 15.0443C114.735 15.4498 114.817 16.525 115.52 16.4973Z" fill="#2E88D8"></path>
</svg>